<svg width="60" height="60" viewBox="0 0 60 60" fill="none" xmlns="http://www.w3.org/2000/svg">
<path d="M27.0756 29.5465C27.0244 29.4478 26.9667 29.3562 26.9155 29.2645C26.7831 29.0192 26.5959 28.8152 26.3716 28.6721C26.1473 28.5289 25.8934 28.4514 25.6342 28.4468C24.6027 28.5173 24.2503 28.9966 23.4303 29.5959C21.9311 30.7026 19.2916 29.8708 17.7668 29.3914C17.2633 29.2442 16.7275 29.3177 16.2722 29.5965C15.8169 29.8752 15.4777 30.3375 15.3259 30.8859C14.6685 30.398 14.0374 29.8684 13.4359 29.2998C12.0329 27.9392 9.63682 29.2152 10.1942 31.3723C10.2903 31.7601 10.38 32.1407 10.4633 32.5285L10.1429 32.2183C9.79377 31.8449 9.32607 31.636 8.83919 31.636C8.35231 31.636 7.88461 31.8449 7.53544 32.2183C7.1948 32.5485 6.92182 32.9546 6.73462 33.4097H6.67696C6.34163 33.3129 5.98681 33.3391 5.66617 33.484C5.34554 33.629 5.07655 33.885 4.8999 34.2132C4.72326 34.5414 4.64858 34.9239 4.68716 35.303C4.72574 35.6821 4.87549 36.037 5.11374 36.3141C5.47892 36.7088 5.82488 37.0825 6.17724 37.4208C6.34381 37.6887 6.49116 37.9707 6.6257 38.2104C6.80321 38.5628 7.07914 38.8428 7.41262 39.0092C7.7461 39.1755 8.11939 39.2192 8.47722 39.1339C9.3293 39.5498 10.3031 38.6122 9.93793 37.724C9.96901 37.5498 9.98403 37.3727 9.98277 37.1953C10.855 37.8184 11.8268 38.2538 12.8465 38.4783C14.1279 38.718 15.6398 37.583 15.1593 35.9898C15.3836 36.1942 15.6078 36.3987 15.8 36.6101C16.0799 36.9058 16.432 37.1055 16.8132 37.1848C17.1945 37.264 17.5885 37.2195 17.9472 37.0565C18.3058 36.8936 18.6136 36.6193 18.833 36.2672C19.0524 35.915 19.1739 35.5002 19.1827 35.0733C19.1827 34.8055 19.1827 34.5376 19.1827 34.2697C21.9119 34.7491 24.9486 34.5446 26.7425 32.1548C27.0437 31.8161 27.2385 31.3802 27.2985 30.9109C27.3584 30.4416 27.2803 29.9635 27.0756 29.5465Z" fill="#57C1EC"/>
<path d="M28.3251 35.0519C26.5889 33.6702 25.4229 34.9039 24.7822 36.5605C24.3254 36.379 23.8327 36.3349 23.3552 36.4328C22.8777 36.5307 22.4326 36.767 22.0658 37.1175C20.6948 36.765 19.4007 38.5274 19.8043 39.9373C19.9644 40.5012 20.099 41.0723 20.2143 41.6433C19.2405 40.7973 17.562 41.3401 17.6196 42.8981C17.6591 46.123 18.0659 49.3296 18.8305 52.4432C19.2213 53.8531 20.9831 53.2398 20.8101 51.844C20.6189 50.1797 20.5482 48.5013 20.5987 46.8247C20.9371 47.2375 21.2376 47.6861 21.4956 48.1641C22.5591 50.1944 25.1666 48.7774 24.7822 46.6414C24.5708 45.4289 24.4491 44.2022 24.3273 42.9756C24.6204 42.844 24.8856 42.647 25.1061 42.3971C25.3266 42.1471 25.4977 41.8497 25.6087 41.5234H25.7176C26.0259 41.608 26.3475 41.6153 26.6587 41.5448C26.9699 41.4742 27.2628 41.3276 27.5156 41.1157C27.7683 40.9039 27.9746 40.6323 28.1192 40.3209C28.2638 40.0096 28.3429 39.6664 28.3507 39.3169C28.3259 38.8099 28.3691 38.3015 28.4788 37.8083L28.639 37.6532C29.4719 36.9553 29.0298 35.6089 28.3251 35.0519Z" fill="#57C1EC"/>
<path d="M57.4559 28.9402C56.9097 26.3849 55.9715 23.9509 54.6818 21.7426C54.4892 21.4009 54.2241 21.1158 53.9092 20.9119C53.5944 20.7079 53.2392 20.5912 52.8742 20.5718C52.5093 20.5524 52.1455 20.6308 51.8142 20.8004C51.4829 20.97 51.194 21.2256 50.9724 21.5452C50.6392 21.3267 50.3317 21.1081 49.9729 20.9107C48.6468 20.1282 46.507 21.0658 46.6863 23.0256C46.6863 23.371 46.7504 23.7306 46.7888 24.0619C46.5103 24.1 46.2407 24.1957 45.9944 24.3439C45.5434 24.6336 45.1955 25.0836 45.0078 25.6198C44.1685 24.9713 43.3421 24.3086 42.5605 23.5684C42.2377 23.2389 41.8274 23.032 41.3899 22.9783C40.9523 22.9245 40.5107 23.0267 40.1298 23.2698C39.749 23.5128 39.4491 23.884 39.2742 24.3286C39.0994 24.7732 39.0589 25.2678 39.1586 25.7397C39.2867 26.3107 39.3956 26.8887 39.4917 27.4668C38.9728 26.9028 38.4731 26.3177 37.999 25.7115C38.2754 25.3504 38.4373 24.8999 38.4602 24.4285C38.5307 23.1102 38.5499 21.7849 38.5627 20.4666C39.05 20.435 39.5081 20.2006 39.8441 19.811C40.4341 18.9037 40.7663 17.8243 40.7987 16.7092C41.1749 16.6036 41.5218 16.398 41.8089 16.1104C42.096 15.8228 42.3145 15.4619 42.4452 15.0596C42.7014 14.3547 42.9 13.6497 43.0858 12.8884C43.4766 13.1915 43.8738 13.5299 43.9315 13.5933C44.3638 13.8649 44.8705 13.956 45.3588 13.8498C45.8472 13.7437 46.2844 13.4474 46.5902 13.0152C46.6479 13.0505 46.6928 13.0998 46.7568 13.1351C46.9693 13.2768 47.2088 13.3619 47.4565 13.3838C47.7041 13.4056 47.9529 13.3635 48.1831 13.2608C48.4134 13.1581 48.6186 12.9976 48.7825 12.7922C48.9464 12.5868 49.0645 12.3421 49.1273 12.0777C49.5565 9.74426 48.4866 8.01712 46.7056 6.81165C46.4347 6.63822 46.1318 6.53429 45.8194 6.5076C45.507 6.48092 45.1931 6.53217 44.9012 6.65753C44.6093 6.7829 44.3469 6.97914 44.1335 7.23163C43.9201 7.48413 43.7613 7.78636 43.6688 8.11581C42.8875 7.78092 42.028 7.73636 41.2215 7.98892C39.9786 8.33435 39.4597 9.92049 39.0945 11.4573C38.6645 11.496 38.2551 11.676 37.9192 11.974C37.5834 12.2719 37.3366 12.6739 37.211 13.128C37.0929 13.7998 37.0264 14.4813 37.0123 15.1654C36.7248 15.1013 36.4279 15.1075 36.1428 15.1835C35.8576 15.2595 35.5911 15.4034 35.362 15.605C35.1329 15.8067 34.9468 16.0613 34.8168 16.3507C34.6869 16.6402 34.6162 16.9575 34.6099 17.2802C34.6099 18.2249 34.6099 19.1695 34.6099 20.1C34.2383 19.8392 33.8667 19.5784 33.5079 19.2964C32.5726 18.5914 30.9453 19.529 31.099 20.8191C31.302 23.1688 31.8449 25.4677 32.7071 27.6289C33.0402 28.4537 34.0269 27.9321 34.0909 27.2201C34.1742 26.2966 34.1998 25.366 34.2191 24.4355C34.5346 24.7248 34.8089 25.0646 35.0327 25.4436C35.1029 25.5635 35.1822 25.6767 35.2697 25.782C35.1746 25.9638 35.1136 26.1649 35.0905 26.3732C35.0674 26.5815 35.0826 26.7928 35.1352 26.9945C35.4688 27.9162 35.8474 28.8175 36.2692 29.6945C36.378 29.9689 36.5689 30.1941 36.8102 30.3326C37.0514 30.4711 37.3285 30.5146 37.5953 30.4558C38.7678 31.76 40.0106 32.9866 41.1126 34.3754C42.3939 35.9827 44.6234 34.2696 44.2006 32.4015C44.0404 31.6965 43.9187 30.9916 43.8162 30.2866C44.38 30.7589 44.9245 31.2383 45.4435 31.767C45.7437 32.081 46.1202 32.2923 46.5275 32.3754C46.9347 32.4585 47.3551 32.4098 47.7376 32.2351C48.1202 32.0605 48.4485 31.7675 48.6826 31.3915C48.9168 31.0156 49.0468 30.573 49.0568 30.1174C49.0568 29.7791 49.0568 29.4125 49.0568 29.0952C49.325 29.056 49.5839 28.9602 49.8192 28.8133C50.3233 28.4912 50.7172 27.9959 50.9403 27.4034C51.2415 27.6712 51.5362 27.9603 51.8309 28.2564C52.2677 28.6882 52.8391 28.918 53.4261 28.8979C53.8525 29.5196 54.345 30.0829 54.8932 30.5757C55.1351 30.8282 55.4449 30.9878 55.7761 31.0306C56.1073 31.0733 56.4421 30.9969 56.7306 30.8128C57.0191 30.6287 57.2456 30.3468 57.3764 30.0093C57.5071 29.6717 57.535 29.2966 57.4559 28.9402Z" fill="#57C1EC"/>
<path d="M43.2845 7.22035C37.7748 9.84983 33.4055 17.7383 31.3874 24.0194C29.1643 21.5662 26.2621 19.1764 25.1473 21.9539C25.1182 22.0325 25.1009 22.1159 25.0961 22.2006C25.0216 22.2138 24.9526 22.2521 24.8987 22.3102C24.8448 22.3682 24.8086 22.4433 24.795 22.5249C24.3511 24.896 24.4814 27.3538 25.1729 29.652C21.329 27.7557 15.7296 29.652 12.0586 30.9562C8.55417 32.1898 3.52497 34.4809 3.04447 39.0843C2.17958 47.3745 14.1343 42.2636 21.1496 38.2313C18.2346 42.7994 16.7675 48.2205 15.6847 53.8531C15.6498 54.0072 15.6516 54.1687 15.69 54.3219C15.7283 54.4751 15.802 54.6148 15.9038 54.7275C16.0055 54.8402 16.132 54.9221 16.271 54.9652C16.4099 55.0084 16.5567 55.0114 16.697 54.974C23.9237 53.9377 27.0693 45.0341 29.5935 37.9634C31.8807 41.0934 34.4946 44.0331 36.4614 47.0009C37.5057 48.573 39.7352 52.3092 42.016 51.6325C43.8354 51.0967 44.4377 48.2275 44.1366 46.444C43.1948 40.9877 40.0555 35.7217 36.8266 31.1183C38.5676 31.4993 40.3323 31.7349 42.1057 31.8233C46.0201 32.2392 52.0359 32.5282 55.252 29.4335C57.4559 27.3186 57.7058 23.5541 54.5729 22.3064C50.5176 20.685 44.7836 21.2701 40.6129 22.6025C41.6636 21.4463 42.6566 20.2761 43.56 19.2328C45.9945 16.4271 49.8641 12.3454 50.1075 8.22139C50.3382 4.37939 44.6939 6.5436 43.2845 7.22035ZM17.5683 52.9014C18.9521 46.1832 21.0022 39.8738 25.82 35.1365C26.6016 34.3681 25.4741 33.1274 24.6989 33.8676C22.1362 36.3209 18.7535 37.9775 15.6527 39.472C13.6667 40.4237 2.13473 44.5336 4.92161 37.7237C7.32409 31.922 20.2975 28.5593 25.3139 30.6742C25.3771 30.6909 25.4429 30.6909 25.5061 30.6742C26.2665 32.6843 27.2568 34.5795 28.4531 36.3138C26.2236 42.595 23.5393 50.9839 17.5683 52.9014ZM31.0222 34.777C30.8044 35.1577 30.5289 35.6653 30.7531 36.1164C30.9773 36.5676 31.8486 36.3068 32.2074 36.1728C33.0548 35.8306 33.8632 35.3811 34.6163 34.8334C35.1439 34.5327 35.6311 34.1531 36.0642 33.7055C37.2366 35.5877 38.3386 37.4347 39.2355 39.0067C38.6402 39.712 37.9267 40.2841 37.1341 40.6916C36.2116 41.0582 35.1417 40.8537 34.8982 39.6694C34.847 39.4156 34.4561 39.465 34.4818 39.7328C34.7573 42.8417 38.2745 41.8477 39.8633 40.1135C40.7218 41.6362 41.3176 42.7782 41.5034 43.2224C41.8395 44.042 42.1263 44.8851 42.3619 45.7461C42.5093 46.2748 43.3357 51.9638 40.094 49.0523C38.2873 47.4309 37.0316 45.013 35.6093 42.9968C33.9244 40.5647 31.964 38.3793 30.2278 36.1023C30.3943 35.6371 30.5673 35.1859 30.7339 34.7488C31.0863 33.8253 29.6127 33.1345 29.254 34.0439L29.081 34.5091C26.8451 31.2804 25.237 27.7557 25.583 23.0607C25.6867 23.0965 25.7982 23.0946 25.9009 23.0552C26.0036 23.0159 26.0921 22.9411 26.1532 22.8421C26.9604 21.7424 29.0105 23.7092 31.3553 26.804C31.067 27.1494 30.9069 27.6006 30.625 27.9813C30.2551 28.4846 29.7921 28.8955 29.2668 29.1867C28.7478 29.4828 27.5114 29.9763 26.9604 29.5886C26.9377 29.57 26.9119 29.5566 26.8844 29.5491C26.857 29.5415 26.8285 29.54 26.8006 29.5446C26.7726 29.5492 26.7457 29.5598 26.7215 29.5758C26.6972 29.5918 26.6761 29.6129 26.6593 29.6379C26.6425 29.6629 26.6303 29.6913 26.6234 29.7215C26.6166 29.7516 26.6152 29.783 26.6193 29.8138C26.6235 29.8446 26.6331 29.8741 26.6477 29.9008C26.6622 29.9275 26.6814 29.9507 26.7041 29.9692C27.3832 30.6742 28.4467 30.5543 29.2668 30.2865C29.9364 30.0553 30.5572 29.679 31.0927 29.1797C31.5241 28.8205 31.8857 28.3699 32.1562 27.8544C33.2517 29.363 34.3857 31.0619 35.4748 32.789C35.2134 33.0087 34.9631 33.2441 34.7252 33.494C34.1892 33.971 33.6193 34.4001 33.0211 34.777C32.5608 35.096 32.0712 35.3607 31.5604 35.5666C30.9197 35.7992 31.0542 35.5666 31.3425 34.9815C31.3672 34.9366 31.3746 34.8828 31.3632 34.8319C31.3518 34.781 31.3224 34.7372 31.2817 34.71C31.2409 34.6829 31.192 34.6748 31.1457 34.6873C31.0995 34.6999 31.0596 34.7321 31.035 34.777H31.0222ZM40.4912 24.3296C43.6368 24.0194 46.68 23.2581 49.8641 23.2299C51.4145 23.2299 55.8479 23.2651 55.4058 26.2471C55.0983 28.3619 52.6894 29.222 51.139 29.7154C45.751 31.4144 40.6834 29.8282 35.4171 29.1444L34.4241 27.798C36.3996 26.6709 38.2024 25.2104 39.7672 23.4695C39.7427 23.5823 39.7439 23.7 39.7706 23.8121C39.7973 23.9242 39.8487 24.0274 39.9203 24.1125C39.9919 24.1975 40.0815 24.2618 40.181 24.2997C40.2806 24.3376 40.3871 24.3478 40.4912 24.3296ZM47.295 11.4148C43.8527 17.596 39.1775 22.8344 33.6233 26.7335C33.3734 26.4022 33.0595 25.9933 32.6879 25.5351C34.3896 19.9964 37.3231 15.0139 41.2215 11.0412C42.94 9.19917 45.1718 8.04702 47.5577 7.77022C49.4989 7.58693 47.7179 10.6394 47.295 11.4148Z" fill="#3C3C3B"/>
</svg>
