<svg width="100" height="100" viewBox="0 0 100 100" fill="none" xmlns="http://www.w3.org/2000/svg">
<g opacity="0.9" clip-path="url(#clip0_209_7224)">
<path d="M67.564 78.9028C62.9188 67.0358 56.5332 53.8501 43.9897 48.5758C41.1383 47.3628 36.3324 49.4065 37.8987 53.1908L38.5948 54.8258C36.6805 52.4524 34.8063 50.1054 32.7581 47.7979C30.0807 44.6465 24.1905 47.9957 25.6497 51.8723C26.0915 53.0326 26.4931 54.1929 26.8679 55.3665C23.8558 51.5426 20.8438 47.7188 17.7113 44.0004C14.9402 40.704 10.3886 44.3301 11.0178 47.8111C11.3257 49.3802 11.5935 50.9493 11.8344 52.5315C10.0004 50.7383 8.11288 48.9978 6.15839 47.3628C5.63862 46.914 4.97629 46.6577 4.28539 46.638C3.59449 46.6183 2.91823 46.8365 2.37298 47.2549C1.82773 47.6733 1.4476 48.2658 1.29799 48.9304C1.14839 49.5951 1.23867 50.2903 1.55331 50.8965C3.13296 53.9424 3.64166 57.397 4.76616 60.6143C4.91528 61.1476 5.27337 61.6008 5.76167 61.874C6.24997 62.1472 6.82847 62.2182 7.36991 62.0714C7.91135 61.9245 8.37137 61.5718 8.64878 61.0908C8.9262 60.6099 8.99827 60.04 8.84916 59.5067C8.84916 59.3485 8.84916 59.1903 8.75545 59.0321C10.7099 61.2341 12.6644 63.4756 14.4449 65.9282C14.8986 66.6762 15.6115 67.2375 16.4522 67.5086C17.2929 67.7798 18.2048 67.7426 19.0198 67.4038C19.8348 67.065 20.4981 66.4475 20.8874 65.6651C21.2767 64.8827 21.3658 63.988 21.1383 63.146C20.9375 62.1702 20.7769 61.1945 20.6296 60.2188C24.485 65.137 28.3137 70.0816 32.2896 74.9208C35.1008 78.349 39.7461 74.5384 39.0901 70.9651L38.5279 67.9588C41.2052 71.3255 43.9317 74.6659 46.7072 77.9798C47.0821 79.2984 47.4435 80.617 47.805 81.9355C47.3625 82.1881 46.9751 82.5244 46.6649 82.9249C46.3548 83.3254 46.1281 83.7823 45.9977 84.2694C45.8183 85.0786 45.7641 85.9099 45.8371 86.7351C45.1268 86.5664 44.3846 86.5784 43.6802 86.7698C42.9759 86.9612 42.3325 87.3259 41.8105 87.8295C41.2885 88.3331 40.905 88.9591 40.6961 89.6487C40.4872 90.3384 40.4597 91.069 40.6162 91.772C40.9363 93.2632 41.7866 94.5927 43.0138 95.521C44.241 96.4493 45.7644 96.9154 47.3097 96.8353C47.8719 97.0068 48.4342 97.165 48.9696 97.2968C50.0237 97.5751 51.1464 97.4373 52.0989 96.9128C53.0514 96.3883 53.7586 95.5184 54.07 94.4883C54.8572 94.7194 55.6963 94.7153 56.4811 94.4764C57.2659 94.2375 57.961 93.7746 58.4785 93.1463C58.996 92.518 59.3125 91.7525 59.388 90.9469C59.4635 90.1413 59.2946 89.3317 58.9027 88.6207C57.5871 86.3404 56.6004 83.8907 55.971 81.3422C57.818 81.9363 59.6096 82.6862 61.3257 83.5838C64.3378 85.232 68.9562 82.4893 67.564 78.9028ZM55.1008 72.521C54.6591 71.2815 54.2039 70.0553 53.7621 68.829C54.5252 70.1476 55.2347 71.4661 55.8906 72.7847C55.6229 72.7232 55.3596 72.6353 55.1008 72.521Z" fill="#DF51AF"/>
<path d="M90.9107 55.7751C94.3378 56.1707 89.6925 55.3136 88.8759 55.6169L88.394 55.8279C87.5026 54.8506 86.7091 53.7908 86.0245 52.6633C83.7889 48.879 78.8358 50.87 78.3271 54.2851C78.3155 54.0805 78.2841 53.8774 78.2333 53.6786C77.4386 50.3633 76.3454 47.1245 74.967 44.0003C75.7986 43.7818 76.546 43.326 77.1153 42.6902C77.6846 42.0544 78.0503 41.267 78.1664 40.427C80.6965 42.5895 85.3016 41.3105 85.1945 37.4602C85.138 35.2795 84.9458 33.1041 84.6189 30.9465C85.3173 31.0438 86.0293 30.9675 86.6902 30.7246C87.351 30.4817 87.9397 30.0799 88.4027 29.5558C88.8656 29.0316 89.1882 28.4017 89.341 27.7235C89.4938 27.0452 89.472 26.3401 89.2775 25.6723C88.6483 23.0351 88.0192 20.398 87.3097 17.8927C90.1075 17.273 92.3699 14.3722 90.402 11.6032L90.228 11.3526C89.8996 10.8616 89.4745 10.4405 88.9778 10.1143C88.4811 9.78814 87.9229 9.56357 87.3364 9.45391C85.7135 8.64702 84.2094 7.6268 82.8652 6.42121C82.0626 5.6531 80.9932 5.21472 79.8743 5.19513C78.7554 5.17553 77.6709 5.5762 76.8411 6.31572L76.6805 6.05201C73.722 1.21287 67.0955 5.44547 69.2106 10.3637C70.0138 12.2097 70.7902 14.0821 71.5399 15.9544C69.9067 13.6997 68.22 11.4713 66.4529 9.36161C63.5346 5.77511 58.2334 9.95496 59.639 13.7656C56.7608 12.6712 53.0125 15.3479 54.0968 18.6707C54.8598 21.0032 55.7537 23.2922 56.7742 25.5272C56.1676 25.5752 55.5783 25.7491 55.0448 26.0375C54.5114 26.326 54.046 26.7223 53.6793 27.2006C53.3126 27.6789 53.0529 28.2283 52.9172 28.8125C52.7814 29.3968 52.7729 30.0028 52.892 30.5905C57.4168 46.4133 69.2641 58.8869 72.477 75.2503C72.892 77.3337 76.2119 76.8194 76.1852 74.7493C76.1362 72.4088 75.8944 70.076 75.4623 67.7741C75.7969 68.6839 76.145 69.5937 76.5332 70.4112C77.564 72.7055 80.7367 70.9518 80.3619 68.8289C80.2815 68.3806 80.2146 67.9455 80.1477 67.5103C82.3463 69.3533 84.4422 71.312 86.4261 73.378C89.4649 76.6348 94.4582 72.4813 92.4636 68.7893C92.0352 68.0114 91.647 67.2071 91.2856 66.3896C91.6616 66.1702 92.0042 65.8994 92.303 65.5852L92.4904 65.6644C92.5585 65.7213 92.63 65.7741 92.7046 65.8226C93.4504 66.351 94.3576 66.6117 95.2748 66.561C96.1744 66.5396 97.0449 66.2422 97.7648 65.7104C98.4846 65.1786 99.0181 64.4388 99.2909 63.5942C101.071 59.0188 94.3779 56.1707 90.9107 55.7751Z" fill="#DF51AF"/>
<path d="M78.5974 53.1625C89.0526 41.124 101.355 13.1836 85.7728 3.12294C65.4649 -9.97042 40.8732 21.1873 52.8143 39.0143C51.3973 38.0207 49.8417 37.2346 48.1958 36.6804C45.2084 30.0968 43.9648 22.8745 44.5814 15.6889C44.6751 14.5022 42.7875 14.278 42.493 15.412C40.6189 22.7564 42.9749 31.0765 46.643 37.8276C46.6381 38.0389 46.69 38.2478 46.7934 38.433C46.8969 38.6183 47.0482 38.7733 47.232 38.8824C47.58 39.4758 47.9281 40.0559 48.2762 40.6097C46.5225 41.9283 46.0272 44.3281 46.4288 47.3212C32.4395 47.163 8.9455 31.8017 1.00708 51.2769C-4.65557 65.0691 15.0633 70.5412 24.9294 72.6377C31.5712 74.1656 38.4011 74.7473 45.2106 74.365C42.5332 74.5628 42.4261 91.1372 43.8719 94.5259C46.1744 99.721 51.3551 101.699 56.2012 98.2706C61.9174 94.249 62.9749 84.5839 64.7152 78.4921C67.1115 80.7601 69.3069 82.2764 70.9535 82.6061C75.4247 83.4895 75.5854 78.8877 74.5546 73.9431C84.6483 75.3539 98.5707 75.0375 99.9897 62.577C100.846 54.2701 86.7768 52.9383 78.5974 53.1625ZM62.1316 77.6614C60.3511 83.1467 59.4542 88.6978 56.5091 93.8007C50.1102 97.5102 46.6028 96.807 45.987 91.691C45.5299 89.0763 45.4848 86.4078 45.8531 83.7796C46.1075 80.259 46.8973 76.7648 47.4596 73.2311C47.58 72.4531 47.1115 71.3719 46.1209 71.5037C33.6577 73.0333 15.8531 70.1061 5.96023 62.1024C2.14497 59.0169 2.09142 54.9557 4.31364 50.9209C8.3297 43.5633 16.5225 43.4183 23.8183 44.8687C31.1142 46.3191 39.1329 50.9209 46.6831 48.9431C48.5439 57.4215 56.2815 69.5918 63.0553 76.7516C62.8352 76.8129 62.6348 76.9288 62.4731 77.088C62.3114 77.2473 62.1938 77.4447 62.1316 77.6614ZM70.9535 80.5755C64.0994 79.2569 43.5238 48.1783 48.8652 41.6382C48.9153 41.7248 48.9822 41.8008 49.0621 41.8619C49.1421 41.923 49.2334 41.968 49.331 41.9943C49.4286 42.0207 49.5305 42.0278 49.6309 42.0153C49.7312 42.0029 49.8281 41.9711 49.916 41.9217C50.0039 41.8724 50.0811 41.8065 50.1431 41.7277C50.2052 41.649 50.2509 41.559 50.2776 41.4629C50.3043 41.3668 50.3116 41.2664 50.2989 41.1675C50.2863 41.0687 50.254 40.9732 50.2039 40.8866L50.0164 40.5043C50.0233 40.4358 50.0162 40.3667 49.9955 40.301C49.9748 40.2354 49.941 40.1744 49.896 40.1219C55.9201 43.4974 61.0338 51.8439 64.3939 56.7622C66.9741 61.3558 69.2112 66.1285 71.0874 71.0422C70.8715 71.1958 70.707 71.4094 70.615 71.6556C70.523 71.9018 70.5076 72.1694 70.5708 72.4242C70.6341 72.6791 70.7731 72.9095 70.97 73.0861C71.167 73.2627 71.4129 73.3775 71.6764 73.4157H71.9174C73.3364 77.7933 73.6309 81.0633 70.9535 80.5755ZM94.4609 67.4689C91.7835 70.9104 88.236 71.3455 84.0994 71.6092C80.6402 71.7373 77.1774 71.4763 73.7782 70.8313C73.064 68.285 72.1693 65.7912 71.1008 63.3682C67.7942 56.6962 61.5827 45.8313 54.2601 40.0691C54.3184 40.0435 54.371 40.0067 54.4147 39.9609C54.4585 39.9151 54.4925 39.8612 54.515 39.8023C54.5374 39.7434 54.5477 39.6807 54.5453 39.6179C54.5429 39.5551 54.5279 39.4933 54.501 39.4362C50.7661 29.8371 53.6844 19.9083 59.2668 11.5881C65.5988 2.13401 80.8063 -1.50523 87.5533 9.61028C95.1972 22.2289 83.2561 45.2115 73.6309 53.8877C72.2922 55.0217 73.7514 56.6303 75.1436 56.4325C81.5331 55.3853 88.0944 56.2345 93.9923 58.8719C97.6336 60.7618 97.8031 63.6275 94.501 67.4689H94.4609Z" fill="#262626"/>
<path d="M46.4933 42.6422C40.8842 35.7197 31.0582 29.773 22.1024 28.4676C21.1519 28.3357 20.3353 29.6939 21.3795 30.1422C25.5964 31.9222 30.014 32.9771 34.164 35.0077C38.4346 37.2009 42.3396 40.0245 45.7436 43.3806C46.2523 43.8552 46.8547 43.1564 46.4933 42.6422Z" fill="#262626"/>
</g>
<defs>
<clipPath id="clip0_209_7224">
<rect width="100" height="100" fill="white"/>
</clipPath>
</defs>
</svg>
