<svg width="40" height="40" viewBox="0 0 40 40" fill="none" xmlns="http://www.w3.org/2000/svg">
<path d="M23.3335 3.33337H11.6668C10.7828 3.33337 9.93493 3.68456 9.30981 4.30968C8.68469 4.93481 8.3335 5.78265 8.3335 6.66671V30C8.3335 30.8841 8.68469 31.7319 9.30981 32.3571C9.93493 32.9822 10.7828 33.3334 11.6668 33.3334H16.6668V38.3334L20.0002 36.6667L23.3335 38.3334V33.3334H28.3335C29.2176 33.3334 30.0654 32.9822 30.6905 32.3571C31.3156 31.7319 31.6668 30.8841 31.6668 30V11.6667M23.3335 25V28.3334L20.0002 26.6667L16.6668 28.3334V25L13.3335 23.3334L16.6668 21.6667V18.3334L20.0002 20L23.3335 18.3334V21.6667L26.6668 23.3334M21.6668 13.3334V5.83337L29.1668 13.3334H21.6668Z" fill="#F5C362"/>
</svg>
