<svg width="40" height="40" viewBox="0 0 40 40" fill="none" xmlns="http://www.w3.org/2000/svg">
<path d="M21.6668 5.13329V16.6666H35.0002C35.0008 13.4591 33.8452 10.3589 31.7452 7.93439C29.6452 5.50991 26.7416 3.9237 23.5668 3.46663C22.5668 3.31663 21.6668 4.11663 21.6668 5.13329ZM32.2002 26.4833C34.0158 24.1546 35.0013 21.2861 35.0002 18.3333H10.7335L9.60016 15.95C9.46622 15.6655 9.25399 15.425 8.98834 15.2568C8.72269 15.0885 8.41461 14.9995 8.10016 15H5.00016C4.0835 15 3.3335 15.75 3.3335 16.6666C3.3335 17.5833 4.0835 18.3333 5.00016 18.3333H7.0335C7.0335 18.3333 10.1835 25.1166 10.5668 25.7C9.42157 26.3157 8.51446 27.2958 7.98917 28.4853C7.46388 29.6747 7.35045 31.0054 7.66683 32.2666C8.16683 34.3666 9.90016 36.05 12.0002 36.5166C15.5002 37.2833 18.6335 34.9166 19.0835 31.6666H22.5502C22.6638 32.4615 22.9404 33.2244 23.3627 33.9074C23.785 34.5904 24.3438 35.1788 25.0042 35.6357C25.6645 36.0926 26.4121 36.4082 27.2001 36.5627C27.9881 36.7171 28.7995 36.7071 29.5835 36.5333C30.6318 36.3028 31.5961 35.7871 32.3696 35.0429C33.1432 34.2988 33.6959 33.3553 33.9668 32.3166C34.5502 30 33.7335 27.85 32.2002 26.4833ZM13.3335 33.3333C11.9502 33.3333 10.8335 32.2166 10.8335 30.8333C10.8335 29.45 11.9502 28.3333 13.3335 28.3333C14.7168 28.3333 15.8335 29.45 15.8335 30.8333C15.8335 32.2166 14.7168 33.3333 13.3335 33.3333ZM28.3335 33.3333C26.9502 33.3333 25.8335 32.2166 25.8335 30.8333C25.8335 29.45 26.9502 28.3333 28.3335 28.3333C29.7168 28.3333 30.8335 29.45 30.8335 30.8333C30.8335 32.2166 29.7168 33.3333 28.3335 33.3333Z" fill="#00D2E7"/>
</svg>
