<svg width="62" height="60" viewBox="0 0 62 60" fill="none" xmlns="http://www.w3.org/2000/svg">
<path d="M61.0063 25.8577C59.1563 16.7912 47.0032 19.1107 41.4176 24.2432C41.752 16.9745 38.6853 10.0372 29.7839 11.2498C22.0139 12.3073 17.5098 19.569 18.6981 26.6191C14.9341 23.9118 10.4869 22.2057 5.89037 24.2573C1.52151 26.2102 0.23362 31.5542 1.03055 35.8266C2.23305 42.0448 8.45904 45.4641 14.1016 46.86C24.5754 49.4545 37.7461 48.686 47.6721 44.4207C48.0136 44.2726 47.7575 43.8073 47.4373 43.8637C39.0411 45.3654 30.958 46.6838 22.3839 46.2255C15.8093 45.8519 8.15307 44.4841 4.1969 38.696C3.03476 36.9733 2.47503 34.9205 2.60356 32.8523C2.73209 30.7842 3.54178 28.8149 4.90845 27.2466C9.17769 22.523 15.9871 26.5415 19.68 29.7423C20.3133 30.2993 21.6012 29.7776 21.2312 28.8469C18.5772 22.0436 21.9427 15.4517 28.9799 13.3366C38.2299 10.5166 40.514 20.0836 39.2545 27.0492C39.0766 28.0291 40.4215 28.7341 40.9551 27.7542C44.5555 21.1059 58.5373 18.0884 59.4908 28.2054C59.9604 33.211 47.6721 42.3973 42.9119 42.0307C42.0224 41.9672 41.8588 43.3491 42.7055 43.5606C46.5905 44.5194 51.5286 40.1412 54.2823 38.0121C58.2029 34.9664 62.095 31.0818 61.0063 25.8577Z" fill="#3C3C3B"/>
</svg>
