<svg width="200" height="200" viewBox="0 0 200 200" fill="none" xmlns="http://www.w3.org/2000/svg">
<path d="M180.172 133.31C179.509 131.914 178.847 130.57 178.072 129.246C178.318 128.972 178.483 128.635 178.547 128.273C178.611 127.911 178.573 127.539 178.436 127.198L178.251 126.664C178.762 126.509 179.204 126.182 179.499 125.738C179.794 125.294 179.924 124.762 179.867 124.233C180.358 123.837 180.686 123.276 180.788 122.656C180.891 122.035 180.761 121.399 180.423 120.868C180.291 120.437 180.014 120.065 179.639 119.812C179.265 119.559 178.815 119.441 178.363 119.478C177.847 119.26 177.323 119.076 176.833 118.872C176.388 118.692 175.892 118.679 175.437 118.836C174.983 118.992 174.601 119.307 174.362 119.721C173.916 119.581 173.439 119.564 172.984 119.671C172.528 119.777 172.109 120.004 171.772 120.327C171.414 120.279 171.049 120.318 170.71 120.442C170.37 120.565 170.066 120.769 169.823 121.035C169.58 121.302 169.407 121.623 169.317 121.972C169.227 122.32 169.224 122.685 169.308 123.035C169.016 123.048 168.729 123.119 168.465 123.245C168.201 123.371 167.964 123.548 167.77 123.766C167.576 123.984 167.428 124.239 167.335 124.515C167.242 124.791 167.206 125.083 167.228 125.373C166.089 124.095 164.93 122.837 163.724 121.618C162.24 120.13 159.988 121.48 160.002 123.212C159.955 123.087 159.902 122.956 159.862 122.83C159.823 122.705 159.79 122.593 159.756 122.481C159.937 122.244 160.067 121.972 160.139 121.683C160.211 121.395 160.223 121.094 160.174 120.8C160.126 120.507 160.018 120.226 159.858 119.975C159.697 119.723 159.487 119.507 159.24 119.339C157.253 117.91 155.034 119.339 155.087 121.599L153.762 120.281C152.391 118.918 150.171 120.005 149.907 121.553C148.43 119.682 146.804 117.933 145.045 116.323C144.661 115.974 144.167 115.771 143.648 115.748C143.129 115.726 142.618 115.886 142.206 116.2C141.794 116.514 141.506 116.963 141.393 117.467C141.279 117.971 141.348 118.499 141.587 118.957C141.693 119.188 141.805 119.418 141.918 119.616C141.481 119.28 141.03 118.957 140.553 118.661C138.599 117.442 136.831 119.754 137.652 121.539C138.281 122.909 138.977 124.253 139.639 125.59C138.977 124.721 138.315 123.858 137.586 123.015C136.301 121.493 133.406 123.114 134.155 124.991C134.685 126.308 135.287 127.626 135.91 128.91C134.042 127.804 131.717 130.063 133.439 131.782C134.408 132.783 135.294 133.86 136.089 135.003C135.853 135.144 135.656 135.342 135.516 135.578C135.376 135.814 135.298 136.081 135.289 136.355C135.28 136.628 135.34 136.9 135.463 137.145C135.587 137.39 135.77 137.6 135.996 137.756C137.003 138.468 138.122 138.725 139.255 139.225C139.546 139.346 139.862 139.394 140.176 139.364C140.481 139.812 140.779 140.266 141.063 140.734C142.249 142.664 145.343 141.392 144.74 139.192C144.669 138.924 144.59 138.654 144.501 138.382C145.164 139.12 145.906 139.844 146.674 140.529C148.145 141.847 150.814 140.595 150.152 138.514C149.82 137.453 149.436 136.419 149.032 135.398C149.337 135.807 149.642 136.208 149.96 136.591C151.331 138.25 154.252 136.479 153.563 134.509C153.159 133.337 152.695 132.19 152.238 131.051C152.781 131.611 153.344 132.151 153.934 132.665C154.209 132.917 154.542 133.099 154.904 133.193C155.267 133.287 155.647 133.291 156.011 133.204C156.375 133.118 156.712 132.943 156.992 132.696C157.272 132.449 157.487 132.138 157.617 131.789C157.673 131.893 157.735 131.994 157.802 132.092C159.849 134.885 162.009 137.704 163.764 140.721C163.049 140.088 162.34 139.454 161.638 138.817C160.492 137.763 158.776 139.476 159.922 140.523C162.149 142.991 164.515 145.331 167.01 147.531C167.271 147.781 167.607 147.939 167.966 147.982C168.326 148.025 168.69 147.951 169.003 147.77C169.317 147.589 169.563 147.312 169.704 146.98C169.845 146.649 169.873 146.28 169.785 145.931C169.492 144.733 169.113 143.558 168.652 142.413L170.746 144.482C171.055 144.817 171.472 145.036 171.925 145.101C172.289 145.661 172.66 146.221 173.031 146.767C174.356 148.651 177.668 147.531 176.906 145.147C176.495 143.882 176.012 142.664 175.488 141.471C175.647 141.63 175.8 141.801 175.959 141.959C177.436 143.467 180.516 141.959 179.688 139.798C179.291 138.771 178.86 137.763 178.416 136.768C178.768 136.669 179.096 136.498 179.378 136.266C179.66 136.034 179.891 135.747 180.056 135.422C180.221 135.097 180.316 134.741 180.336 134.378C180.356 134.015 180.3 133.651 180.172 133.31Z" fill="#62E7F4"/>
<path d="M108.056 130.458C107.328 129.536 106.612 128.601 105.897 127.672C107.016 127.29 107.884 125.979 107.069 124.833C106.327 123.792 105.559 122.778 104.777 121.77C105.157 121.749 105.522 121.62 105.83 121.399C106.138 121.178 106.376 120.874 106.515 120.522C106.655 120.171 106.69 119.787 106.617 119.416C106.543 119.045 106.365 118.703 106.102 118.43C105.327 117.442 104.572 116.454 103.83 115.42C104.04 115.293 104.223 115.124 104.366 114.925C104.51 114.726 104.611 114.5 104.665 114.261C104.719 114.022 104.724 113.774 104.679 113.533C104.635 113.292 104.542 113.062 104.406 112.858C103.814 111.88 103.277 110.871 102.797 109.834C102.925 109.722 103.038 109.593 103.135 109.452C103.539 109.479 103.941 109.371 104.276 109.145C104.612 108.92 104.863 108.589 104.988 108.206C105.113 107.822 105.107 107.408 104.969 107.029C104.831 106.65 104.57 106.328 104.227 106.113C104.019 105.961 103.798 105.829 103.565 105.718C103.404 105.631 103.229 105.571 103.048 105.54C102.488 105.146 101.866 104.847 101.207 104.657C100.913 104.577 100.604 104.566 100.305 104.624C100.006 104.681 99.724 104.807 99.4813 104.99C99.2386 105.174 99.0416 105.41 98.9055 105.681C98.7694 105.952 98.6979 106.251 98.6964 106.554C98.6964 106.732 98.6964 106.89 98.6964 107.055C98.5382 107.206 98.3941 107.372 98.2659 107.549C98.2055 107.628 98.1544 107.715 98.1135 107.806L97.6498 107.49C97.2639 107.271 96.8154 107.187 96.3759 107.252C95.9365 107.316 95.5314 107.525 95.2254 107.845C93.9239 106.689 92.4976 105.679 90.9728 104.835C89.3301 103.946 86.9984 105.843 88.2305 107.562C88.7869 108.333 89.3566 109.09 89.9329 109.848C89.7688 109.998 89.6301 110.174 89.5222 110.368C89.1115 110.091 88.6875 109.821 88.2504 109.571C86.6672 108.649 84.5409 110.539 85.6405 112.16C86.0313 112.733 86.4288 113.299 86.8262 113.866C86.1638 113.339 85.5345 112.818 84.839 112.331C83.3221 111.237 81.5667 113.306 82.3947 114.755C84.1832 117.89 86.1638 120.907 87.9324 124.036C86.3294 122.238 84.7529 120.426 83.0903 118.687C82.0172 117.568 79.7385 118.687 80.3545 120.275C81.0169 121.961 81.7787 123.627 82.6199 125.241C81.7456 124.793 80.8646 124.365 79.9703 123.957C79.7038 123.811 79.3967 123.755 79.0954 123.797C78.794 123.84 78.5147 123.978 78.2995 124.192C78.0843 124.406 77.9448 124.684 77.9021 124.984C77.8594 125.283 77.9157 125.589 78.0626 125.854C79.1821 127.935 80.1094 130.135 81.1163 132.276C81.58 133.264 83.1565 132.559 82.8584 131.545C82.5338 130.412 82.196 129.286 81.8383 128.166C83.441 129.065 84.9892 130.057 86.4751 131.137C87.4754 131.874 88.8002 130.86 88.8267 129.786C89.8732 130.886 90.953 131.953 92.0989 132.955C93.2449 133.956 95.4109 133.02 94.8611 131.361C94.0053 128.734 92.9215 126.186 91.622 123.746C93.9404 126.44 96.1727 129.213 98.6501 131.756C100.187 133.33 102.366 131.341 101.532 129.549C101.339 129.141 101.141 128.739 100.942 128.337C102.274 130.034 103.724 131.636 105.281 133.132C107.195 134.852 109.54 132.329 108.056 130.458Z" fill="#ED82C9"/>
<path d="M58.8331 121.869C56.5412 118.914 54.2272 115.945 51.8912 112.963C50.626 111.152 49.3674 109.295 48.089 107.45C50.0762 109.624 52.0634 111.758 54.1102 113.695C56.5942 116.007 59.8996 112.575 57.7865 110.045C55.9715 107.872 54.1654 105.696 52.3681 103.518C52.7114 103.392 53.0216 103.19 53.2754 102.928C53.5291 102.665 53.7199 102.349 53.8333 102.003C53.9468 101.657 53.98 101.29 53.9304 100.93C53.8808 100.569 53.7498 100.224 53.5472 99.9213C52.7125 98.5644 51.8183 97.247 50.8975 95.9692C51.3873 95.5803 51.7226 95.0314 51.8439 94.42C51.9651 93.8086 51.8645 93.1742 51.56 92.6296L50.6856 90.8906C51.1363 90.5197 51.4734 90.0305 51.6584 89.4785C51.8434 88.9266 51.869 88.3341 51.7322 87.7684C51.8568 87.4136 51.8975 87.0349 51.8514 86.6618C51.5666 83.7899 50.1093 82.4001 47.2543 82.051C45.8236 81.8731 44.9624 82.9666 44.7571 84.1786C43.0878 84.5277 41.7829 86.2073 42.9355 88.0056C43.1475 88.3349 43.3462 88.6643 43.5449 89.0002C43.1978 89.1415 42.8808 89.3472 42.6109 89.6062C41.2243 88.2142 39.8266 86.8265 38.4179 85.4433C36.5963 83.6319 33.43 85.5421 33.8937 87.7223C33.0127 87.2415 32.1185 86.7936 31.1845 86.405C29.4093 85.6475 26.8193 87.0636 27.2101 88.9409C26.7932 89.048 26.4088 89.2546 26.0903 89.5427C25.7717 89.8307 25.5286 90.1917 25.3819 90.5942C25.2494 90.4625 25.1169 90.3242 24.9778 90.1924C22.7919 88.1176 19.9899 90.7194 21.0564 93.2027C22.1228 95.6859 23.2953 98.1033 24.5075 100.494C23.4257 99.539 22.2793 98.6587 21.0762 97.8596C19.3871 96.7332 16.7905 98.6039 17.539 100.567C19.6985 106.238 23.3748 111.363 26.3887 116.725C23.6137 113.079 20.651 109.579 17.5125 106.238C15.9956 104.71 12.7035 106.238 13.6375 108.478C14.9606 111.462 16.4602 114.365 18.1286 117.172C16.3925 115.415 14.4142 113.911 12.2531 112.707C10.4447 111.751 8.27866 113.701 9.38487 115.559C9.78231 116.217 10.1665 116.876 10.5441 117.535C10.1201 117.219 9.68957 116.876 9.21927 116.613C8.03357 115.809 6.50342 117.383 7.23206 118.556C8.63635 120.723 9.11328 123.351 10.2526 125.663C10.7627 126.691 12.5445 125.953 12.1272 124.873C11.8668 124.172 11.6456 123.457 11.4648 122.732C12.4514 123.794 13.3759 124.911 14.2336 126.078C14.4523 126.48 14.8125 126.787 15.245 126.94C15.6775 127.093 16.1518 127.082 16.5766 126.909C17.0015 126.736 17.347 126.413 17.5466 126.001C17.7463 125.59 17.786 125.12 17.6583 124.682C17.4648 123.729 17.2171 122.787 16.9164 121.862C19.4202 124.398 21.8181 127.073 24.7857 129.042C26.2893 130.043 28.727 128.383 27.9983 126.585C27.7996 126.098 27.5744 125.623 27.3359 125.143C28.6651 126.66 30.0712 128.109 31.5488 129.483C33.377 131.163 35.861 129.483 35.4769 127.211C34.7615 122.956 32.9995 119.129 30.9328 115.42C34.2448 120.15 37.3846 124.998 41.4981 128.891C43.4853 130.781 46.7973 128.364 45.3466 125.933C43.7635 123.265 42.134 120.617 40.4978 117.976C42.7103 121.052 44.9889 124.082 47.4531 126.947C49.374 129.187 52.7523 126.328 51.4275 123.904C48.6653 118.958 45.6447 114.169 42.5579 109.413L46.7377 114.683C49.2033 118.265 51.8866 121.694 54.7726 124.952C56.7399 127.086 60.6216 124.188 58.8331 121.869Z" fill="#F5C362"/>
<path d="M90.3833 83.5067C90.1183 81.7546 87.7933 80.8259 86.442 80.1079C86.1087 79.9157 85.7307 79.8137 85.3454 79.812C84.9602 79.8103 84.5812 79.909 84.2462 80.0982C83.9112 80.2874 83.6319 80.5606 83.4361 80.8905C83.2403 81.2204 83.1347 81.5955 83.13 81.9786V82.1169C82.3916 81.7498 81.5446 81.6609 80.7454 81.8666C80.353 81.9772 79.9983 82.192 79.7193 82.4879C79.4404 82.7838 79.2478 83.1497 79.1622 83.5463C78.9134 83.1614 78.5474 82.8657 78.1177 82.7022C77.688 82.5387 77.217 82.5159 76.7734 82.6372C76.3297 82.7586 75.9367 83.0176 75.6515 83.3766C75.3662 83.7356 75.2038 84.1758 75.1878 84.6331C75.1878 85.3511 75.1083 86.0559 75.0421 86.7607L74.1015 85.8517C72.366 84.1918 69.882 86.2798 70.8822 88.3218C71.8228 90.2254 72.472 92.2739 73.247 94.25C73.7835 95.6267 74.3731 98.1429 76.2543 98.2022C76.4972 98.2007 76.7367 98.1448 76.955 98.0386C77.1732 97.9323 77.3645 97.7786 77.5148 97.5887C77.665 97.3988 77.7702 97.1777 77.8226 96.9418C77.8751 96.7059 77.8733 96.4612 77.8176 96.2261C77.8176 96.2261 77.8176 96.0943 77.7182 95.6267C77.6278 95.2824 77.5172 94.9437 77.387 94.6123C77.3009 94.3752 77.2214 94.1446 77.1419 93.9075C77.5886 93.7914 77.9868 93.5377 78.2795 93.1827C78.5723 92.8277 78.7444 92.3897 78.7714 91.9314C78.8112 90.9961 78.9105 90.0673 79.0231 89.1451C79.1801 89.3205 79.3261 89.5053 79.4603 89.6984C79.6828 90.0562 80.0043 90.3426 80.3864 90.5232C80.7684 90.7038 81.1947 90.7711 81.6142 90.7169C82.0337 90.6626 82.4286 90.4892 82.7515 90.2175C83.0744 89.9457 83.3116 89.5871 83.4347 89.1847C83.6219 88.5562 83.7657 87.9158 83.8653 87.2679C83.9392 87.3154 84.0167 87.3573 84.0971 87.393C84.5631 87.519 85.0578 87.4886 85.5046 87.3063C85.9514 87.1241 86.3251 86.8003 86.5679 86.3852C86.7528 86.0823 86.9081 85.7625 87.0316 85.4301C87.6938 85.744 88.4442 85.823 89.1579 85.6541C89.6001 85.5207 89.9739 85.2235 90.2019 84.8238C90.43 84.4242 90.4949 83.9526 90.3833 83.5067Z" fill="#FFD583"/>
<path d="M125.636 99.3022C125.239 98.1626 124.795 97.0428 124.311 95.9626C123.649 93.9865 123.093 91.9446 122.324 89.9948C122.123 89.4707 121.746 89.0315 121.258 88.7508C120.769 88.4701 120.199 88.3652 119.641 88.4535C119.231 87.9727 118.807 87.4918 118.356 87.0307C118.088 86.7708 117.76 86.5799 117.401 86.4744C117.041 86.3689 116.662 86.3521 116.294 86.4254C115.927 86.4987 115.583 86.6599 115.293 86.8951C115.002 87.1303 114.774 87.4323 114.627 87.775C114.199 87.8168 113.79 87.9755 113.446 88.2335C113.103 88.4916 112.837 88.8389 112.68 89.2373C111.783 88.3734 110.955 87.4419 110.202 86.4511C109.123 84.9756 106.413 85.7924 107.056 87.7685C107.381 88.8112 107.961 89.7574 108.745 90.5218C110.156 92.2212 111.918 93.6703 112.971 95.6398C113.965 97.4908 116.687 96.5422 116.76 94.6189C116.763 94.5662 116.763 94.5134 116.76 94.4608C117.296 95.0377 117.762 95.6743 118.151 96.3578C118.293 96.6035 118.484 96.8181 118.712 96.989C118.939 97.1599 119.199 97.2835 119.476 97.3524C119.643 97.7152 119.912 98.0219 120.251 98.2351C120.602 99.1902 120.986 100.132 121.423 101.048C122.543 103.426 126.517 101.746 125.636 99.3022Z" fill="#FFD583"/>
<path d="M162.287 105.692C161.662 104.783 161.089 103.839 160.571 102.866C160.819 102.789 161.046 102.66 161.238 102.487C161.429 102.314 161.58 102.102 161.681 101.865C161.781 101.627 161.828 101.371 161.818 101.114C161.809 100.857 161.743 100.605 161.625 100.376C161.479 100.06 161.333 99.7568 161.188 99.4538C162.618 99.0323 163.002 96.7071 161.24 96.358C162.115 96.5292 160.916 96.1735 160.856 96.1604C159.889 95.943 158.909 95.7717 157.935 95.5873C157.7 95.5338 157.457 95.5288 157.22 95.5726C156.982 95.6165 156.757 95.7082 156.557 95.8422C156.357 95.9762 156.187 96.1496 156.057 96.3516C155.927 96.5536 155.841 96.78 155.802 97.0167C154.756 97.267 153.928 98.3933 154.669 99.467C155.568 100.822 156.384 102.23 157.114 103.683C156.754 103.717 156.418 103.875 156.164 104.13C155.91 104.386 155.754 104.721 155.723 105.079C155.544 105.096 155.37 105.149 155.213 105.234C155.055 105.32 154.917 105.437 154.806 105.577C154.695 105.718 154.614 105.879 154.568 106.051C154.522 106.224 154.511 106.404 154.537 106.581C154.652 107.822 154.956 109.039 155.438 110.191C155.107 111.264 155.438 111.752 156.816 112.351C157.046 112.454 157.298 112.497 157.549 112.478C157.8 112.458 158.042 112.376 158.253 112.239C159.366 113.385 161.678 112.621 161.082 110.79C160.803 109.934 160.518 109.071 160.24 108.208C160.426 108.243 160.618 108.269 160.817 108.287C162.082 108.412 162.996 106.693 162.287 105.692Z" fill="#BFBFBF"/>
<path d="M47.6319 70.7742C46.6251 73.4089 45.9561 75.2862 43.121 76.3796C41.0146 77.1964 38.5504 77.0054 36.3777 76.6036C32.9266 75.9449 26.084 73.1455 28.1375 68.5214C28.2037 68.3634 28.005 68.1657 27.8659 68.3172C24.2492 72.5197 31.6283 76.2215 34.8277 77.203C39.6434 78.6719 48.7382 77.7761 48.2877 70.8598C48.2819 70.7828 48.2496 70.7102 48.1963 70.6541C48.1429 70.5981 48.0718 70.562 47.9948 70.5519C47.9179 70.5419 47.8398 70.5585 47.7737 70.599C47.7076 70.6394 47.6576 70.7013 47.6319 70.7742Z" fill="#262626"/>
<path d="M35.7684 57.7847C35.7587 58.4914 35.7123 59.1972 35.6293 59.8991C35.5802 59.9133 35.5358 59.9403 35.5008 59.9774C35.4659 60.0145 35.4416 60.0602 35.4305 60.1099C35.4305 60.1626 35.4305 60.2087 35.4305 60.2614C35.3643 59.6027 35.3113 58.944 35.2981 58.2853C35.2841 58.1666 35.2268 58.0572 35.1371 57.9777C35.0473 57.8983 34.9313 57.8544 34.8112 57.8544C34.691 57.8544 34.5751 57.8983 34.4853 57.9777C34.3956 58.0572 34.3383 58.1666 34.3243 58.2853C34.3243 58.4631 34.3243 58.6476 34.2912 58.832C34.1822 58.8386 34.0795 58.8855 34.0035 58.9635C33.9275 59.0415 33.8836 59.145 33.8805 59.2536C33.8143 60.8608 33.8805 62.4812 33.8805 64.095C33.8785 64.1737 33.8968 64.2517 33.9338 64.3214C33.9707 64.3911 34.0249 64.4502 34.0913 64.4932C34.1578 64.5361 34.2342 64.5614 34.3132 64.5667C34.3923 64.5719 34.4713 64.5569 34.5429 64.5231C34.575 64.6185 34.6195 64.7093 34.6754 64.7932C34.7059 64.8343 34.7512 64.862 34.8018 64.8706C34.8525 64.8792 34.9045 64.868 34.947 64.8393C34.9942 64.9006 35.0541 64.9512 35.1227 64.9876C35.1913 65.0239 35.2669 65.0452 35.3444 65.0501C35.3444 65.1793 35.3961 65.3033 35.488 65.3947C35.5799 65.4861 35.7046 65.5375 35.8346 65.5375C35.9646 65.5375 36.0893 65.4861 36.1812 65.3947C36.2731 65.3033 36.3248 65.1793 36.3248 65.0501C36.3579 62.6195 36.7752 60.2153 36.8083 57.8045C36.811 57.6673 36.7587 57.5348 36.6631 57.4359C36.5674 57.3371 36.4362 57.2801 36.2983 57.2775C36.1604 57.2749 36.0271 57.3268 35.9277 57.422C35.8283 57.5171 35.771 57.6476 35.7684 57.7847Z" fill="#262626"/>
<path d="M46.0088 60.2087C46.0088 59.6751 45.161 59.55 45.0484 60.0769C45.0484 60.2218 44.9887 60.3602 44.9622 60.5051C44.9207 60.4237 44.8559 60.3564 44.7759 60.3116C44.6959 60.2669 44.6043 60.2468 44.5128 60.2539C44.4213 60.2609 44.334 60.2948 44.2619 60.3513C44.1898 60.4077 44.1361 60.4842 44.1077 60.5709C43.8384 61.5893 43.7798 62.6515 43.9355 63.6931C43.9355 63.8446 43.9355 64.141 43.9355 64.4638C43.8809 65.4404 43.7659 66.4127 43.5911 67.3752C43.4785 67.9746 44.3992 68.2381 44.5251 67.6321L45.0417 65.1159C45.0417 65.2542 45.0417 65.3926 45.0417 65.5309C45.0477 65.6458 45.0938 65.755 45.172 65.8396C45.2503 65.9243 45.3558 65.9792 45.4704 65.9948C45.585 66.0104 45.7015 65.9858 45.7998 65.9252C45.8981 65.8645 45.972 65.7717 46.0088 65.6626C46.3665 63.8249 46.0486 62.0596 46.0088 60.2087Z" fill="#262626"/>
<path d="M122 89.4612C119.025 84.4486 112.627 82.9138 109.533 88.6247C109.493 88.6945 109.482 88.7775 109.503 88.8553C109.524 88.9332 109.575 88.9995 109.646 89.0396C109.716 89.0798 109.799 89.0906 109.878 89.0696C109.956 89.0486 110.023 88.9975 110.063 88.9277C113.375 83.9018 118.297 85.3576 121.218 89.9091C124.431 94.9152 122.543 100.284 117.402 102.503C117.802 101.153 117.909 99.7338 117.717 98.3393C117.524 96.9449 117.036 95.6069 116.285 94.414C115.533 93.2211 114.536 92.2003 113.358 91.4192C112.181 90.6381 110.85 90.1144 109.454 89.8828C108.632 86.0162 106.261 82.927 102.671 82.7689C97.6099 80.1341 92.8141 82.9138 90.0121 87.3797C83.1033 85.5881 79.109 91.2331 78.2876 97.3392C75.6579 96.3577 73.525 94.599 73.525 91.6217C73.525 89.0858 75.2207 86.7145 76.9562 84.9953C78.6917 83.2761 81.1956 81.8665 83.7657 81.8336C85.007 81.8327 86.2086 82.2691 87.1572 83.0653C88.323 84.0072 88.6277 85.5552 89.6876 86.4839C89.7126 86.5086 89.7443 86.5253 89.7789 86.5321C89.8134 86.5388 89.8492 86.5353 89.8817 86.5219C89.9142 86.5086 89.9421 86.486 89.9617 86.4569C89.9814 86.4279 89.992 86.3938 89.9923 86.3588C90.2837 83.724 86.7531 81.1419 84.3751 80.9311C81.3016 80.6545 78.4135 82.2815 76.2673 84.3102C74.1211 86.339 72.432 89.2241 72.5579 92.2145C72.6904 95.508 75.5983 97.4841 78.5195 98.426C78.5909 98.4452 78.6658 98.4478 78.7384 98.4336C78.8109 98.4195 78.8793 98.3889 78.9382 98.3444C78.997 98.2999 79.0448 98.2425 79.0779 98.1767C79.111 98.1109 79.1284 98.0385 79.1289 97.9649C79.6787 92.2607 83.1033 86.8199 89.4955 88.2097C86.9121 92.9193 86.5014 99.0847 90.1115 102.76C83.4875 110.908 81.5533 121.434 78.6652 131.249C78.6481 131.31 78.6433 131.373 78.651 131.436C78.6588 131.499 78.6789 131.56 78.7103 131.615C78.7417 131.67 78.7837 131.718 78.8339 131.757C78.8842 131.796 78.9416 131.825 79.003 131.841C85.3621 133.442 91.8735 133.818 98.3981 133.699C98.3981 133.699 98.3584 133.752 98.3518 133.798C98.0868 137.447 96.0665 142.42 97.7954 145.951C98.8486 148.111 102.048 150.14 104.525 149.086C104.915 148.924 105.265 148.682 105.554 148.376C105.843 148.07 106.064 147.707 106.203 147.311C106.342 146.914 106.395 146.493 106.359 146.075C106.324 145.657 106.2 145.251 105.996 144.884C104.81 142.341 100.697 142.282 98.524 143.171C98.2061 143.303 98.2127 143.83 98.6101 143.83C100.789 143.77 103.472 143.059 105.022 145.101C106.347 146.82 104.664 148.467 102.889 148.394C95.4372 148.151 98.9148 138.099 98.8751 133.804C98.865 133.767 98.8493 133.732 98.8287 133.699C102.141 133.646 105.512 133.482 108.838 133.324C108.967 133.322 109.091 133.27 109.182 133.179C109.274 133.088 109.326 132.965 109.328 132.836C109.507 123.483 102.419 113.556 104.883 104.381C104.924 104.279 104.924 104.166 104.883 104.064C108.93 101.239 110.388 95.62 109.679 90.8906C114.978 92.3265 118.674 97.6553 116.263 103.096C116.111 103.432 116.356 103.92 116.786 103.755C123.318 101.535 125.51 95.3894 122 89.4612ZM105.241 117.08C106.102 120.374 107.036 123.568 107.745 126.868C108.08 128.472 108.284 130.1 108.354 131.736C108.414 132.889 102.008 132.652 101.306 132.678C97.4686 132.805 93.6333 132.766 89.8002 132.559C87.4014 132.406 85.0131 132.12 82.6462 131.703C79.2084 131.123 80.2881 129.141 80.9902 126.579C83.2623 118.338 85.3687 110.111 90.4096 103.063C92.0258 104.558 94.3509 105.593 97.5569 105.856C99.7195 106.081 101.901 105.676 103.836 104.69C102.624 108.59 104.254 113.332 105.241 117.08ZM109.076 94.0259C109.076 100.303 104.85 105.099 98.4246 104.954C81.699 104.585 88.4224 80.1868 101.14 82.8875C100.9 82.9215 100.661 82.9676 100.425 83.0258C99.8488 83.1707 100.101 83.9809 100.67 83.8887C105.082 83.1905 107.519 86.26 108.526 89.9091C108.314 90.1265 108.341 90.5678 108.705 90.66C108.948 91.7636 109.072 92.8897 109.076 94.0194V94.0259Z" fill="#262626"/>
<path d="M103.724 97.7476C101.969 99.5524 101.008 101.153 98.3452 101.772C97.1856 102.041 95.9684 101.901 94.9007 101.377C93.5097 100.672 93.3639 99.2362 92.993 97.9123C92.9268 97.6949 92.5691 97.6686 92.5227 97.9123C91.1581 104.776 103.379 103.676 104.274 98.0638C104.327 97.7608 103.995 97.4841 103.724 97.7476Z" fill="#262626"/>
<path d="M101.75 94.3817C101.32 93.835 101.379 92.847 101.419 92.1883C101.426 92.1362 101.419 92.0834 101.401 92.0342C101.383 91.985 101.353 91.9408 101.314 91.9054C101.275 91.8699 101.228 91.8443 101.178 91.8304C101.127 91.8166 101.073 91.8151 101.022 91.826V91.22C101.022 91.0942 100.971 90.9736 100.882 90.8846C100.793 90.7957 100.671 90.7457 100.545 90.7457C100.418 90.7457 100.297 90.7957 100.208 90.8846C100.118 90.9736 100.068 91.0942 100.068 91.22C100.068 91.826 99.9619 92.4386 99.9089 93.0512C99.8691 93.4727 99.7168 94.138 100.041 94.4871L100.081 94.52C100.081 94.8691 100.081 95.2248 100.081 95.5739C100.095 95.6859 100.149 95.789 100.234 95.8639C100.319 95.9387 100.428 95.98 100.541 95.98C100.655 95.98 100.764 95.9387 100.849 95.8639C100.934 95.789 100.988 95.6859 101.002 95.5739C101.008 95.225 101.042 94.8771 101.101 94.5332C101.154 94.6393 101.216 94.7407 101.287 94.8362C101.571 95.1392 102.009 94.6781 101.75 94.3817Z" fill="#262626"/>
<path d="M96.5836 92.2345C96.548 92.1333 96.4786 92.0474 96.387 91.991C96.2953 91.9347 96.187 91.9113 96.0802 91.9249V91.6812C96.0676 91.5843 96.02 91.4953 95.9462 91.4308C95.8725 91.3663 95.7776 91.3307 95.6794 91.3307C95.5812 91.3307 95.4863 91.3663 95.4126 91.4308C95.3388 91.4953 95.2912 91.5843 95.2786 91.6812C95.2786 92.9985 94.8812 94.25 94.8746 95.5543C94.8736 95.5979 94.8826 95.6411 94.9008 95.6808C94.9191 95.7205 94.9461 95.7555 94.9798 95.7834C95.0136 95.8113 95.0532 95.8312 95.0957 95.8417C95.1383 95.8522 95.1827 95.853 95.2256 95.8441C95.2256 95.91 95.2256 95.9758 95.2256 96.0417C95.2256 96.1622 95.2738 96.2778 95.3595 96.3631C95.4452 96.4483 95.5615 96.4962 95.6827 96.4962C95.8039 96.4962 95.9202 96.4483 96.0059 96.3631C96.0916 96.2778 96.1398 96.1622 96.1398 96.0417C96.1398 95.4423 96.2524 94.8429 96.3186 94.2501C96.365 93.8944 96.4047 93.5321 96.4577 93.1764L96.5173 92.7943C96.5727 92.7131 96.6075 92.6199 96.6191 92.5224C96.6306 92.425 96.6184 92.3262 96.5836 92.2345Z" fill="#262626"/>
<path d="M171.222 79.8115C169.381 83.5199 165.261 84.4223 161.425 84.2247C159.809 84.1457 154.06 83.2894 154.709 80.5756C154.715 80.5496 154.712 80.5221 154.7 80.4982C154.688 80.4742 154.668 80.4554 154.643 80.445C154.618 80.4346 154.591 80.4335 154.565 80.4417C154.539 80.45 154.517 80.4671 154.503 80.49C152.9 83.3684 158.113 84.6661 160.061 84.9954C164.532 85.7529 169.898 84.6463 172.064 80.3055C172.349 79.7456 171.501 79.2319 171.222 79.8115Z" fill="#262626"/>
<path d="M169.454 70.9324C169.513 70.6294 169.586 70.3264 169.679 70.0168C169.858 69.424 168.937 69.1802 168.745 69.7665C168.666 69.997 168.586 70.2342 168.513 70.4713C168.438 70.507 168.377 70.5675 168.341 70.6425C168.341 70.6425 168.341 70.7084 168.341 70.7479C168.338 70.7632 168.338 70.7788 168.341 70.794C168.116 71.3216 167.966 71.8782 167.897 72.4474C167.804 72.428 167.708 72.4448 167.627 72.4941C167.546 72.5435 167.487 72.6217 167.463 72.7127C167.438 72.8038 167.45 72.9007 167.495 72.9837C167.54 73.0666 167.615 73.1293 167.705 73.1587C167.493 73.0797 167.606 73.3366 167.593 73.5606C167.579 73.7845 167.593 73.9821 167.559 74.2192C167.544 74.3545 167.565 74.4915 167.619 74.6163C167.674 74.7412 167.761 74.8496 167.871 74.9306C167.912 74.9507 167.957 74.9641 168.003 74.9702C168.003 75.0624 168.003 75.1546 168.003 75.2534C168.014 75.3203 168.048 75.3812 168.099 75.4253C168.151 75.4693 168.217 75.4936 168.285 75.4936C168.353 75.4936 168.419 75.4693 168.47 75.4253C168.522 75.3812 168.556 75.3203 168.566 75.2534C168.566 75.0821 168.566 74.9175 168.566 74.7462C168.639 74.7751 168.718 74.7859 168.796 74.7776C168.874 74.7694 168.949 74.7424 169.014 74.6989C169.079 74.6555 169.133 74.5969 169.17 74.5282C169.208 74.4596 169.228 74.3829 169.229 74.3049C169.275 73.3102 169.646 72.3815 169.719 71.4C169.734 71.3038 169.716 71.2055 169.668 71.1207C169.62 71.0359 169.544 70.9696 169.454 70.9324Z" fill="#262626"/>
<path d="M160.439 68.4359C160.425 68.3189 160.368 68.211 160.28 68.1328C160.191 68.0545 160.077 68.0112 159.958 68.0112C159.84 68.0112 159.726 68.0545 159.637 68.1328C159.549 68.211 159.492 68.3189 159.478 68.4359C159.478 68.6269 159.478 68.8113 159.432 69.0024C159.379 69.0004 159.326 69.0095 159.277 69.0292C159.228 69.0489 159.183 69.0786 159.146 69.1165C159.109 69.1544 159.081 69.1996 159.063 69.2492C159.045 69.2988 159.037 69.3516 159.041 69.4042C159.041 70.5371 159.041 71.6701 159.001 72.7964C158.999 72.8606 159.011 72.9245 159.036 72.9837C159.061 73.0429 159.099 73.0958 159.147 73.139C159.147 73.3497 159.147 73.5539 159.147 73.7976C159.147 73.878 159.179 73.9551 159.236 74.0119C159.293 74.0687 159.371 74.1006 159.452 74.1006C159.532 74.1006 159.61 74.0687 159.667 74.0119C159.724 73.9551 159.756 73.878 159.756 73.7976C159.756 73.5869 159.756 73.3695 159.756 73.139C159.801 73.0976 159.837 73.0477 159.862 72.9923C159.887 72.9368 159.901 72.8769 159.902 72.8162C159.902 72.724 159.902 72.6318 159.902 72.5395C159.954 72.5499 160.007 72.5495 160.058 72.5382C160.11 72.5269 160.158 72.505 160.201 72.474C160.243 72.443 160.279 72.4035 160.305 72.3581C160.331 72.3127 160.347 72.2623 160.353 72.2102C160.475 70.9559 160.504 69.6944 160.439 68.4359Z" fill="#262626"/>
<path d="M157.107 54.6164C157.048 53.9577 156.908 53.299 156.862 52.6403C156.892 52.5947 156.91 52.5428 156.915 52.4888C156.915 52.1265 156.981 51.5205 156.537 51.3756C156.48 51.3597 156.42 51.3552 156.361 51.3625C156.302 51.3698 156.245 51.3887 156.193 51.4181C156.141 51.4476 156.096 51.4869 156.059 51.5339C156.023 51.5808 155.996 51.6345 155.981 51.6918C155.849 52.5415 156.193 53.6152 156.306 54.4583C156.451 55.5715 156.65 56.6979 156.71 57.8176C156.71 57.905 156.745 57.9888 156.807 58.0505C156.869 58.1123 156.953 58.147 157.041 58.147C157.129 58.147 157.213 58.1123 157.275 58.0505C157.337 57.9888 157.372 57.905 157.372 57.8176C157.348 56.7463 157.259 55.6773 157.107 54.6164Z" fill="#262626"/>
<path d="M177.807 55.0841C177.231 55.6284 176.763 56.2766 176.43 56.9943C175.82 57.9801 175.269 59.0006 174.78 60.0506C174.615 60.4063 175.125 60.7093 175.323 60.3668C175.84 59.4512 176.37 58.5422 176.94 57.6596C177.383 56.9679 178.099 56.2565 178.264 55.4529C178.35 55.196 178.059 54.8996 177.807 55.0841Z" fill="#262626"/>
<path d="M182.477 58.6541C182.336 58.9055 182.172 59.1436 181.987 59.3654C181.633 59.8886 181.248 60.3901 180.834 60.8673C180.428 61.3623 179.985 61.8268 179.509 62.2571C179.317 62.435 178.761 63.008 178.483 62.9158C178.205 62.8236 178.152 63.1595 178.344 63.2517C179.324 63.7326 180.443 62.4284 181.033 61.829C181.579 61.2587 182.092 60.6583 182.57 60.0307C182.918 59.6714 183.139 59.2089 183.199 58.7133C183.179 58.6369 183.135 58.5686 183.074 58.5179C183.014 58.4671 182.938 58.4363 182.859 58.4298C182.78 58.4233 182.701 58.4414 182.632 58.4816C182.564 58.5217 182.51 58.582 182.477 58.6541Z" fill="#262626"/>
<path d="M190.498 102.945C185.418 97.9451 180.171 92.5768 174.024 88.7827C181.132 83.6976 184.033 74.9501 179.986 66.5452C179.009 64.4743 177.58 62.6463 175.803 61.1945C174.026 59.7427 171.945 58.7038 169.712 58.1535C169.838 57.5395 169.998 56.9326 170.189 56.3355C170.507 55.3343 171.096 54.4912 171.448 53.5295C171.547 53.2594 171.222 53.0816 171.004 53.187C170.103 53.6217 169.811 54.9325 169.54 55.8217C169.319 56.5367 169.155 57.2679 169.05 58.0086C167.111 57.5691 165.121 57.3962 163.134 57.4948C163.171 57.4518 163.194 57.3991 163.201 57.3433C163.247 55.9205 163.466 54.5175 163.631 53.1079C163.664 52.8247 163.697 52.5414 163.724 52.2582C163.795 51.8057 163.713 51.3426 163.492 50.9408C163.639 51.3679 163.816 51.7839 164.022 52.1857C164.072 52.2519 164.143 52.2995 164.223 52.3208C164.304 52.3421 164.389 52.3359 164.465 52.3032C164.542 52.2705 164.605 52.2133 164.645 52.1406C164.684 52.0679 164.698 51.9841 164.684 51.9025C164.499 51.3558 164.486 50.3612 163.916 50.0384C163.849 49.9963 163.771 49.974 163.691 49.974C163.611 49.974 163.533 49.9963 163.466 50.0384C162.704 50.6115 162.929 51.8366 162.869 52.6732C162.77 54.2277 162.545 55.769 162.545 57.3367C162.552 57.4009 162.58 57.461 162.624 57.508C159.194 57.7288 155.841 58.6244 152.761 60.1427C152.209 60.4183 151.674 60.7262 151.158 61.0649C150.661 59.517 150.456 57.5212 149.555 56.1577C149.51 56.0992 149.447 56.0558 149.377 56.0329C149.306 56.0101 149.23 56.0088 149.159 56.0294C149.087 56.05 149.024 56.0915 148.976 56.1484C148.929 56.2053 148.9 56.2751 148.893 56.3487C148.893 56.4211 148.893 56.5002 148.893 56.5792C148.807 56.4277 148.734 56.2762 148.641 56.1313C148.336 55.6768 147.608 56.0852 147.899 56.5595C148.84 58.114 149.33 59.8859 150.29 61.4272C150.333 61.4966 150.395 61.5518 150.469 61.5853C143.64 66.6572 143.183 76.0765 147.343 83.3616C148.897 86.1084 151.12 88.4231 153.808 90.0935C153.681 93.113 153.968 96.1357 154.662 99.078C154.686 99.161 154.734 99.2352 154.799 99.2915C154.865 99.3478 154.946 99.3838 155.032 99.395C155.117 99.4062 155.205 99.3922 155.283 99.3546C155.361 99.317 155.426 99.2575 155.47 99.1834C155.729 98.7577 156.015 98.3485 156.325 97.9583C156.048 99.2975 156.154 100.687 156.63 101.97C156.656 102.061 156.711 102.142 156.788 102.199C156.865 102.256 156.958 102.287 157.054 102.286C158.435 102.313 159.817 102.234 161.187 102.049C161.116 102.106 161.067 102.186 161.05 102.275C161.033 102.365 161.049 102.457 161.094 102.536C161.677 103.715 162.459 104.657 162.85 105.948C163.158 107.02 163.203 108.149 162.982 109.242C162.83 110.163 162.447 111.032 161.868 111.768C161.289 112.504 160.533 113.082 159.67 113.451C157.537 114.221 156.06 112.351 155.398 110.585C155.113 109.794 154.99 108.954 155.036 108.115C155.081 107.276 155.294 106.454 155.663 105.698C155.992 105.059 156.442 104.489 156.987 104.018C157.484 103.557 158.173 103.419 158.643 102.938C158.66 102.92 158.672 102.899 158.679 102.875C158.685 102.852 158.685 102.827 158.679 102.803C158.673 102.78 158.661 102.758 158.645 102.74C158.628 102.722 158.607 102.709 158.584 102.701C157.325 102.306 156.007 103.722 155.331 104.604C154.799 105.338 154.424 106.173 154.228 107.056C154.032 107.94 154.02 108.854 154.192 109.742C154.788 112.094 156.179 114.729 159.014 114.564C161.247 114.432 162.883 112.449 163.651 110.539C164.698 107.905 164.009 103.906 161.743 102.075C161.706 102.044 161.663 102.019 161.618 102.003C163.274 101.68 164.777 101.034 165.175 99.6972C165.625 100.086 166.082 100.474 166.579 100.83C166.634 100.862 166.694 100.883 166.757 100.892C166.82 100.901 166.884 100.897 166.946 100.881C167.007 100.865 167.065 100.837 167.116 100.799C167.167 100.761 167.209 100.713 167.241 100.659C168.639 98.1691 169.394 95.4421 170.553 92.8534C170.712 92.4977 170.295 92.1025 169.99 92.4187C168.805 93.6241 168.407 95.7978 167.798 97.3127C167.493 98.0681 167.155 98.8058 166.784 99.526C166.586 99.9343 164.247 97.5499 164.068 97.3918C162.735 95.9277 161.477 94.3976 160.299 92.8073C160.256 92.7635 160.205 92.7287 160.148 92.7049C160.091 92.6811 160.03 92.6689 159.968 92.6689C159.906 92.6689 159.845 92.6811 159.789 92.7049C159.732 92.7287 159.68 92.7635 159.637 92.8073C158.226 94.5528 156.53 96.0546 155.245 97.8924C154.679 95.4453 154.406 92.9403 154.43 90.4294C159.995 93.5648 167.016 93.7229 173.263 90.9893C173.587 90.8444 173.349 90.2911 173.024 90.4162C163.916 94.0193 154.397 91.7863 148.694 83.6646C143.812 76.7089 144.574 67.6057 151.158 62.3823C151.214 62.3852 151.27 62.3683 151.315 62.3346C151.359 62.3008 151.391 62.2524 151.403 62.1979C151.701 61.9739 151.986 61.75 152.298 61.5392C154.727 59.9514 157.471 58.9009 160.344 58.4589C163.217 58.0168 166.152 58.1935 168.95 58.9769C168.95 59.2272 168.95 59.4775 168.95 59.7278C168.95 59.8011 168.98 59.8715 169.032 59.9234C169.084 59.9753 169.155 60.0044 169.229 60.0044C169.302 60.0044 169.373 59.9753 169.425 59.9234C169.477 59.8715 169.507 59.8011 169.507 59.7278C169.507 59.5367 169.546 59.3523 169.566 59.1613C173.374 60.3507 176.628 62.8553 178.741 66.2225C183.728 74.2585 180.065 83.4143 172.978 88.315C172.907 88.345 172.844 88.39 172.792 88.4468C172.04 88.9555 171.255 89.4132 170.441 89.8168C169.878 90.0935 170.374 90.93 170.938 90.6534C171.701 90.2728 172.442 89.8484 173.157 89.3821C177.86 92.2342 181.933 96.1535 185.928 99.8882C186.948 100.843 187.955 101.825 188.955 102.8C189.836 103.656 185.822 106.752 185.437 107.081C181.576 110.612 179.721 110.414 175.323 107.74C174.985 107.529 174.428 107.878 174.601 108.287C178.88 118.713 180.613 130 179.655 141.221C179.277 145.457 178.019 145.002 174.442 145.298C172.033 145.526 169.614 145.625 167.195 145.595C159.683 145.41 160.677 135.471 159.471 130.326C159.445 130.236 159.392 130.155 159.32 130.094C159.248 130.032 159.16 129.993 159.066 129.981C158.972 129.968 158.877 129.983 158.791 130.023C158.705 130.063 158.633 130.128 158.584 130.208C156.1 134.081 155.053 139.568 151.205 142.407C149.807 143.434 147.8 143.388 145.674 142.842C145.925 142.558 145.674 142.018 145.256 142.183L144.316 142.46C141.189 141.406 138.016 139.581 136.214 138.705C134.929 138.079 138.864 123.18 139.261 121.408C139.659 119.636 140.036 117.89 140.48 116.138C143.958 119.906 152.516 119.484 157.113 119.642C163.737 119.88 171.024 120.169 177.648 119.227C178.131 119.155 177.939 118.503 177.542 118.45C165.175 116.85 152.562 121.085 140.606 115.815C141.614 111.785 142.887 107.824 144.415 103.959C144.561 103.597 144.143 103.3 143.819 103.36C138.831 104.611 135.579 104.828 133.671 100.81C133.746 100.828 133.824 100.819 133.894 100.787C133.963 100.755 134.02 100.701 134.055 100.633C134.346 100.079 133.77 99.8751 133.326 99.9739C133.161 99.5391 133.008 99.0846 132.863 98.5709C131.591 93.96 146.614 89.5797 149.88 88.6378C149.968 88.6142 150.042 88.5569 150.088 88.4784C150.133 88.4 150.145 88.3069 150.122 88.2195C150.098 88.1322 150.04 88.0578 149.961 88.0127C149.882 87.9676 149.789 87.9555 149.701 87.9791C143.295 89.6917 137.427 92.6887 131.531 95.6397C131.439 95.6926 131.367 95.7742 131.327 95.8718C131.286 95.9694 131.279 96.0777 131.306 96.1798C131.605 97.5919 131.977 98.988 132.419 100.362C131.902 100.652 131.392 101.021 130.928 101.304C129.935 101.924 128.941 102.549 127.961 103.195C127.632 103.367 127.321 103.573 127.034 103.807C127 103.807 127.034 103.867 126.994 103.893C126.936 103.939 126.885 103.992 126.841 104.051C126.795 103.917 126.742 103.785 126.682 103.656C125.921 102.108 124.179 101.851 122.748 102.444C122.769 102.4 122.777 102.351 122.771 102.303C122.765 102.255 122.745 102.21 122.713 102.173C122.682 102.136 122.64 102.109 122.593 102.095C122.546 102.081 122.497 102.081 122.45 102.095C121.874 102.253 121.336 102.526 120.87 102.898C120.404 103.269 120.019 103.732 119.739 104.256C119.458 104.781 119.289 105.357 119.24 105.949C119.191 106.542 119.265 107.137 119.456 107.7C119.535 107.918 119.64 108.126 119.767 108.319C119.767 108.319 119.727 108.28 119.701 108.273C117.647 107.944 115.322 108.471 113.275 108.702C110.507 109.011 107.751 109.36 104.989 109.709C104.499 109.769 104.485 110.533 104.989 110.487C109.804 109.979 114.965 109.94 119.701 109.011C119.789 108.988 119.866 108.932 119.915 108.855C119.964 108.778 119.982 108.686 119.966 108.596C121.257 110.217 124.079 110.651 125.695 109.327C126.372 108.711 126.852 107.91 127.077 107.026C127.302 106.141 127.261 105.21 126.961 104.348C127.623 104.651 129.325 103.234 129.763 102.971C130.564 102.483 131.372 102.003 132.187 101.535C132.373 101.423 132.565 101.324 132.75 101.219C133.909 103.972 135.797 105.672 139.97 105.171C142.739 104.828 143.196 104.262 141.991 107.562C140.882 110.734 139.958 113.967 139.222 117.245C137.506 124.299 136.42 131.492 134.711 138.553C134.684 138.657 134.692 138.765 134.732 138.864C134.773 138.963 134.844 139.045 134.936 139.1C137.535 140.494 140.211 141.741 142.951 142.835C138.255 144.231 129.458 147.163 131.16 150.976C134.472 158.38 146.237 148.203 148.581 144.64C148.8 144.317 148.297 144.054 148.071 144.343C146.034 146.8 143.565 148.869 140.785 150.449C139.208 151.474 137.428 152.148 135.565 152.426C133.929 152.623 131.187 151.286 132.253 149.31C133.512 146.952 137.811 145.746 140.089 144.903C141.534 144.37 143.216 144.007 144.667 143.362C146.17 143.807 147.735 144.016 149.303 143.981C154.404 143.797 156.285 136.656 158.041 133.073C159.663 129.747 159.637 137.388 159.909 139.146C160.207 141.122 160.915 143.895 162.677 145.154C165.519 147.176 169.553 146.972 173.415 146.53C175.804 147.549 177.856 149.215 179.337 151.339C180.178 152.623 181.231 155.199 179.622 156.345C177.707 157.708 174.435 155.548 172.892 154.553C171.116 153.414 169.845 151.549 168.765 149.784C168.228 148.908 167.837 147.255 166.844 146.84C166.833 146.838 166.821 146.84 166.811 146.846C166.801 146.852 166.794 146.862 166.791 146.873C166.241 148.19 168.189 150.588 168.884 151.629C170.027 153.364 171.543 154.826 173.322 155.91C175.091 156.997 178.409 158.63 180.35 156.971C181.927 155.62 181.39 153.321 180.615 151.701C179.502 149.363 177.383 147.584 175.084 146.346C176.647 146.155 178.151 145.97 179.496 145.931C179.603 145.933 179.708 145.899 179.793 145.834C179.878 145.77 179.939 145.678 179.966 145.575C181.169 139.274 181.292 132.815 180.33 126.473C179.808 122.631 179.045 118.825 178.045 115.078C177.522 113.102 176.84 111.211 176.124 109.314C176.389 110.019 180.43 111.481 181.198 111.949C181.29 112.004 181.399 112.026 181.505 112.013C181.612 112 181.711 111.952 181.788 111.876C184.669 109.084 187.676 106.436 190.558 103.643C190.6 103.593 190.632 103.536 190.652 103.474C190.672 103.412 190.68 103.346 190.674 103.281C190.669 103.216 190.65 103.153 190.62 103.095C190.59 103.038 190.548 102.986 190.498 102.945ZM157.206 96.8648C157.577 96.4433 157.961 96.0349 158.352 95.6199C159.206 94.7307 159.61 93.4199 160.803 94.9612C161.944 96.4641 163.204 97.8739 164.572 99.1768C163.724 100.033 162.664 100.652 161.498 100.968C160.137 101.279 158.742 101.423 157.345 101.397C156.881 100.059 156.616 98.2613 157.206 96.878V96.8648ZM125.397 108.214C124.073 109.808 121.257 109.209 120.33 107.555C119.601 106.238 120.164 104.604 121.191 103.524C121.132 103.595 121.099 103.684 121.099 103.776C121.099 103.868 121.131 103.958 121.19 104.029C121.249 104.1 121.331 104.148 121.422 104.166C121.513 104.183 121.607 104.168 121.688 104.124C123.119 103.465 124.709 102.207 125.795 104.124C126.117 104.775 126.251 105.503 126.181 106.225C126.111 106.948 125.839 107.636 125.397 108.214Z" fill="#262626"/>
<path d="M198.765 115.236C197.348 113.392 194.844 113.78 193.512 115.48C193.537 115.39 193.529 115.295 193.491 115.211C193.452 115.127 193.384 115.059 193.3 115.019C191.744 114.156 190.426 112.766 189.081 111.62C188.014 110.704 186.762 109.42 185.365 109.031C185.294 109.01 185.219 109.008 185.148 109.027C185.076 109.045 185.012 109.083 184.961 109.136C184.663 109.505 184.53 109.591 184.623 110.131C184.638 110.168 184.664 110.199 184.699 110.22C184.733 110.24 184.774 110.248 184.813 110.243C184.853 110.237 184.89 110.219 184.918 110.19C184.946 110.162 184.963 110.125 184.967 110.085C184.928 109.571 184.656 109.551 185.047 109.775C185.292 109.92 185.57 109.999 185.822 110.157C186.758 110.782 187.644 111.477 188.471 112.239C189.849 113.431 191.22 114.953 192.85 115.802C192.918 115.845 192.998 115.868 193.078 115.868C193.159 115.868 193.238 115.845 193.307 115.802C193.283 115.859 193.278 115.921 193.291 115.981C193.305 116.04 193.337 116.094 193.384 116.134C193.43 116.174 193.488 116.199 193.549 116.204C193.61 116.21 193.672 116.196 193.724 116.165C195.142 115.302 196.586 114.123 197.984 115.697C198.45 116.307 198.78 117.01 198.95 117.758C199.12 118.505 199.127 119.281 198.971 120.031C198.619 121.803 197.189 122.198 195.659 121.52C194.334 120.947 192.804 120.282 193.168 118.576C193.354 117.935 193.724 117.362 194.232 116.927C194.74 116.491 195.365 116.213 196.029 116.125C196.087 116.125 196.143 116.102 196.184 116.062C196.225 116.021 196.248 115.965 196.248 115.908C196.248 115.85 196.225 115.795 196.184 115.754C196.143 115.713 196.087 115.69 196.029 115.69C193.122 115.611 190.618 119.458 193.492 121.441C195.334 122.699 198.421 123.694 199.593 121.118C199.966 120.148 200.085 119.1 199.94 118.071C199.796 117.043 199.391 116.067 198.765 115.236Z" fill="#262626"/>
<path d="M88.5882 133.739C87.9258 135.853 88.1378 138.844 87.6609 141.301C87.6397 141.275 87.6152 141.253 87.588 141.235C85.4418 139.99 82.567 139.983 80.7322 141.762C79.6524 142.809 79.3146 144.838 80.6328 145.839C82.6862 147.407 86.0049 146.386 87.4887 144.522C89.6017 141.887 88.469 136.966 89.1314 133.877C89.1498 133.805 89.1389 133.73 89.101 133.666C89.0632 133.602 89.0014 133.556 88.9294 133.538C88.8573 133.52 88.7809 133.53 88.717 133.568C88.653 133.606 88.6067 133.667 88.5882 133.739ZM83.3818 145.595C81.2886 145.799 79.9373 144.179 81.3946 142.44C82.8518 140.701 85.369 141.393 87.2899 141.933C87.3672 141.96 87.4512 141.96 87.5284 141.933C87.0316 143.843 85.9585 145.332 83.3818 145.582V145.595Z" fill="#262626"/>
<path d="M85.6139 106.607C85.3556 107.266 82.8583 107.588 82.2621 107.714C80.6288 108.045 78.9724 108.252 77.3074 108.333C77.4323 107.899 77.4137 107.438 77.2544 107.015C76.6384 105.474 74.2007 105.171 72.7898 105.329C71.6836 103.788 69.7759 102.694 68.0404 102.971C68.3348 102.625 68.6682 102.313 69.034 102.042C69.0824 102.008 69.1162 101.957 69.1288 101.899C69.1414 101.841 69.1318 101.781 69.102 101.73C69.0721 101.679 69.0242 101.641 68.9675 101.623C68.9108 101.605 68.8495 101.609 68.7955 101.634C67.9709 102.08 67.2683 102.72 66.7487 103.498C66.0419 104.011 65.4953 104.712 65.1722 105.52C65.1439 105.585 65.1327 105.656 65.1397 105.726C65.1467 105.796 65.1716 105.864 65.212 105.922C65.2525 105.98 65.3072 106.027 65.3709 106.058C65.4347 106.089 65.5053 106.103 65.5763 106.1C65.3324 107.028 65.2806 107.996 65.4239 108.945C65.8677 111.514 69.0207 112.081 71.2398 111.231C71.7167 113.444 75.1744 111.297 76.1879 110.217C76.5637 109.826 76.8785 109.382 77.1219 108.899C79.2206 108.882 81.3126 108.661 83.3684 108.241C84.2361 108.076 86.1769 107.839 86.2895 106.673C86.3094 106.297 85.7398 106.284 85.6139 106.607ZM68.1 110.612C66.7752 110.395 66.2188 109.209 66.1128 107.977C66.0736 106.943 66.2801 105.914 66.7156 104.973C67.9808 103.834 69.3652 103.307 71.0609 104.703C72.4785 105.882 73.4257 108.293 71.9287 109.762C71.0477 110.665 69.2857 110.809 68.1 110.612ZM75.6249 109.69C75.0089 110.395 72.2201 112.562 71.6505 111.073C71.9259 110.942 72.1858 110.78 72.4255 110.592C73.0826 110.081 73.5327 109.352 73.6933 108.538C73.8539 107.724 73.7142 106.879 73.2999 106.159C74.4127 106.232 76.0753 106.232 76.5324 107.312C76.8371 108.142 76.1349 109.11 75.6249 109.69Z" fill="#262626"/>
<path d="M67.6296 101.515C64.5428 99.9082 61.4759 98.301 58.4487 96.5884C56.5212 95.5015 54.5936 94.4147 52.6395 93.3739C52.454 93.2751 52.2487 93.15 52.0367 93.0248C51.0343 89.7797 49.9921 86.5455 48.9102 83.3223C48.8826 83.2362 48.8295 83.1605 48.7578 83.1049C49.2281 82.8744 49.6918 82.6307 50.1422 82.3606C66.5565 72.4802 57.0312 34.9677 36.6624 44.5583C36.4769 44.6505 36.6094 44.9271 36.8015 44.881C37.5398 44.7081 38.2873 44.5761 39.0404 44.4858C33.4365 46.2972 27.5477 48.4511 23.0037 52.2254C17.9363 56.4608 17.4925 62.949 18.4993 69.0089C18.9609 71.6345 19.9892 74.1293 21.5136 76.3217C23.0379 78.5141 25.022 80.3519 27.3291 81.7085C27.2789 81.7369 27.2393 81.7808 27.2165 81.8337C26.5541 83.151 25.8917 84.5606 25.3353 85.9439C25.2801 85.9 25.2135 85.8723 25.1432 85.8642C25.073 85.856 25.0018 85.8677 24.9379 85.8978C18.8305 88.3547 13.432 92.1224 7.89428 95.6135C7.69836 95.0936 7.38572 94.625 6.98017 94.2434C4.78762 92.2673 1.37626 95.4818 0.356159 97.2668C0.259863 97.4254 0.19829 97.6024 0.175462 97.7863C0.152634 97.9702 0.169064 98.1568 0.223679 98.3339C-0.233378 99.401 -0.0479054 100.593 1.32327 101.627C3.54231 103.307 6.62247 102.767 7.72868 100.205C8.26942 98.9597 8.40604 97.5781 8.1195 96.2524C13.6837 93.0644 18.9431 89.3823 24.918 86.9319C22.9772 91.635 21.3543 96.4764 19.2876 101.12C15.9292 108.695 10.895 115.71 9.4973 124.023C9.46636 124.148 9.48487 124.279 9.54899 124.391C9.61311 124.503 9.71793 124.585 9.84174 124.622C14.7104 126.48 19.8506 126.934 25.0107 127.257C24.9773 127.257 24.9442 127.264 24.9136 127.277C24.8831 127.291 24.8559 127.311 24.8339 127.336C24.8118 127.361 24.7955 127.39 24.786 127.422C24.7766 127.454 24.7741 127.488 24.7789 127.521C24.98 129.459 25.0618 131.408 25.024 133.357C22.5334 132.151 18.7842 133.251 16.6049 134.608C14.6177 135.853 14.5779 137.763 16.6711 138.85C19.228 140.167 23.05 140.431 24.7921 137.783C26.6137 135.01 25.7261 130.537 25.3552 127.521C25.3463 127.453 25.3145 127.391 25.2651 127.344C25.2156 127.298 25.1516 127.269 25.0836 127.264L26.4084 127.349C31.7606 127.685 37.0068 128.383 42.253 129.207C41.8026 131.888 41.4515 134.595 41.0276 137.282C40.6566 139.601 40.4049 139.884 42.3524 141.235C43.2307 141.901 44.293 142.284 45.3966 142.332C46.5002 142.38 47.5922 142.091 48.526 141.505C49.811 140.622 50.6655 138.87 50.0296 137.394C49.0758 135.142 45.8433 135.418 43.9223 135.748C43.2996 135.846 43.5646 136.782 44.1806 136.683C45.7174 136.433 48.6187 136.077 49.2281 138.04C49.6189 139.357 48.3736 140.549 47.3535 141.07C45.4392 142.038 43.2731 140.859 41.8423 139.614C41.1336 139.002 42.1338 135.142 42.2398 134.279C42.4451 132.606 42.6571 130.939 42.8426 129.266L43.5977 129.385C48.7181 130.201 56.5145 131.98 57.8658 125.386C59.2171 118.793 56.8192 110.895 55.256 104.552C54.3882 101.041 53.4079 97.5566 52.3613 94.0919C54.2557 95.1524 56.1171 96.2458 57.9917 97.3327C60.8334 98.9794 64.0659 101.469 67.3249 102.207C67.7489 102.319 68.0403 101.726 67.6296 101.515ZM7.28488 98.3932C7.10603 100.178 5.96007 101.832 4.00599 101.733C2.51559 101.627 0.435647 100.527 0.88608 98.7884C1.28983 98.7659 1.69453 98.7659 2.09827 98.7884C2.17125 98.8084 2.24904 98.8012 2.31709 98.7683C2.38515 98.7353 2.4388 98.6789 2.46803 98.6094C2.49725 98.54 2.50004 98.4624 2.47588 98.3911C2.45172 98.3197 2.40225 98.2596 2.33674 98.2219C2.10561 98.079 1.84541 97.989 1.57498 97.9584C1.49562 97.9519 1.41587 97.9519 1.33651 97.9584C1.79604 97.4153 2.37323 96.9827 3.02482 96.6929C3.67641 96.4032 4.38551 96.2638 5.09895 96.2854C5.37716 96.2854 5.4434 95.844 5.16519 95.8045C4.16859 95.6737 3.15587 95.8581 2.2705 96.3315L2.85341 95.8177C3.54893 95.159 4.58228 94.3883 5.60238 94.5003C5.98174 94.5854 6.32767 94.7792 6.59731 95.0579C6.86694 95.3365 7.04843 95.6878 7.11928 96.068L6.88743 96.2129C6.82454 96.2607 6.78136 96.3296 6.766 96.4068C6.75065 96.484 6.76418 96.5641 6.80405 96.6321C6.84392 96.7 6.90738 96.7512 6.98251 96.7759C7.05764 96.8006 7.13925 96.7971 7.21201 96.7662H7.265C7.33724 97.3058 7.34391 97.852 7.28488 98.3932ZM20.3805 138.817C18.9009 138.789 17.4653 138.311 16.267 137.447C15.1674 136.518 17.1282 135.392 17.7707 135.036C20.0493 133.785 22.4671 133.818 24.9379 134.206C24.6398 136.795 23.5402 138.923 20.3938 138.817H20.3805ZM19.4466 68.7718C15.6775 53.5428 29.2037 50.0057 39.8816 45.0655C39.9377 45.0323 39.9849 44.9861 40.0191 44.9308C40.0534 44.8756 40.0736 44.8129 40.0782 44.7482C40.0827 44.6834 40.0714 44.6186 40.0453 44.5591C40.0191 44.4997 39.9789 44.4474 39.928 44.4068C57.1504 43.1816 63.7347 68.4622 51.8512 79.8378C41.0673 90.1793 22.7321 82.0181 19.4466 68.7718ZM54.8917 107.2C56.0677 111.796 56.8149 116.491 57.1239 121.223C57.2356 122.976 57.0657 124.735 56.6205 126.434C55.66 129.885 50.9172 129.2 48.1484 129.003C42.5842 128.607 37.1327 127.198 31.5884 126.71C28.1174 126.401 24.6332 126.276 21.1622 125.986C17.6912 125.696 9.90136 125.927 11.1533 120.94C12.9484 113.695 17.8104 107.226 20.6919 100.369C23.1825 94.3817 25.0902 88.0846 27.8193 82.163C27.8318 82.1088 27.8318 82.0525 27.8193 81.9983C33.7809 85.4894 41.5906 86.2469 47.9563 83.4804C47.9531 83.5132 47.9531 83.5463 47.9563 83.5792C48.9367 86.4994 49.8751 89.4262 50.7715 92.3596C50.3463 92.1484 49.8755 92.0444 49.4003 92.0566C49.3275 92.0566 49.2546 92.1488 49.3076 92.2212C49.8068 92.7759 50.4279 93.2087 51.1226 93.4859C52.5136 98.0243 53.7921 102.589 54.8917 107.2Z" fill="#262626"/>
</svg>
