<svg width="60" height="60" viewBox="0 0 60 60" fill="none" xmlns="http://www.w3.org/2000/svg">
<g opacity="0.9" clip-path="url(#clip0_209_7268)">
<path d="M58.0254 26.1445C58.2626 25.7202 58.4125 25.2544 58.4664 24.7736C58.7674 22.5527 55.9953 20.8459 54.4342 19.8383C54.1742 19.6478 53.8766 19.5122 53.5603 19.4402C53.244 19.3682 52.9159 19.3613 52.5967 19.4199C52.2775 19.4786 51.9743 19.6015 51.7061 19.7809C51.438 19.9603 51.2108 20.1922 51.0391 20.4621C50.696 20.1742 50.339 19.8863 50.031 19.5847C48.6309 18.3372 46.5308 18.9541 45.6698 20.2085C45.2443 20.1404 44.8078 20.1902 44.4097 20.3524L43.7937 19.9206C42.2886 18.9061 40.8885 19.6738 40.2935 20.9145C39.5095 20.0417 38.7301 19.1643 37.9554 18.2823C35.7293 15.7461 32.2431 19.3653 34.2662 21.8947C36.5973 24.801 39.0685 27.6731 41.3366 30.6685C34.3012 24.2869 28.2039 16.9183 21.7006 10.0157C19.3975 7.57551 15.9883 11.1193 18.0464 13.5938C19.0335 14.7934 20.0345 15.9792 21.0355 17.1582C17.9558 14.4517 14.6881 11.9575 11.2561 9.69357C9.70899 8.68595 7.75589 9.93348 7.48287 11.4758C6.39082 10.8794 5.27076 10.3242 4.10871 9.83066C2.14161 9.00811 -0.462522 10.8246 0.909546 12.9632C1.72859 14.2313 2.59663 15.4445 3.49968 16.6441C1.65858 16.3219 -0.399519 17.919 0.923547 19.8657C5.46677 26.5421 10.899 32.6289 15.6243 39.1887C14.4077 38.3564 13.1194 37.6293 11.7741 37.0158C11.3822 36.8325 10.9419 36.7728 10.5139 36.8447C10.0859 36.9166 9.69111 37.1166 9.38402 37.4173C9.07693 37.718 8.8726 38.1046 8.79916 38.5237C8.72572 38.9428 8.78679 39.3739 8.97395 39.7576C11.3235 44.6948 15.1423 48.8212 19.9295 51.5954C20.1653 51.7109 20.4307 51.7554 20.6924 51.7235C20.954 51.6917 21.2002 51.5848 21.3999 51.4163C21.5997 51.2478 21.7441 51.0252 21.815 50.7766C21.886 50.528 21.8802 50.2644 21.7986 50.0189L22.5476 50.6632C22.9326 51.0158 23.4332 51.2227 23.9598 51.2468C24.4864 51.2709 25.0045 51.1107 25.4214 50.7948C25.8383 50.4789 26.1268 50.0281 26.2352 49.5229C26.3435 49.0178 26.2647 48.4914 26.0128 48.0379C24.6359 45.0731 23.0378 42.2115 21.2316 39.4766C24.7723 43.2231 28.6498 46.6504 32.8171 49.7173C34.6022 50.9854 36.8703 48.7851 36.1913 46.9755L37.2064 48.0791C39.1035 50.012 42.5686 47.469 41.0355 45.1864C39.6705 43.1301 38.2354 41.2039 36.6953 39.2984C39.3345 41.8894 42.0436 44.4119 44.8927 46.7698C46.9928 48.5109 50.577 46.2626 48.8969 43.747C48.6029 43.3014 48.3019 42.8696 48.0009 42.4309C48.3089 42.6365 48.6099 42.849 48.9179 43.0478C50.724 44.2199 53.5382 42.2664 52.7191 40.1826C52.2221 38.9145 51.6481 37.6807 51.0391 36.4812C51.4729 36.269 51.8497 35.9599 52.1391 35.5789C52.4285 35.1979 52.6224 34.7556 52.7051 34.2877C54.5252 35.0828 56.5693 33.376 56.4013 31.5459C56.6761 31.3589 56.9035 31.1129 57.0661 30.8265C57.2287 30.5402 57.3222 30.2211 57.3394 29.8939C57.9276 29.4778 58.3279 28.8544 58.4559 28.1549C58.5839 27.4555 58.4295 26.7347 58.0254 26.1445Z" fill="#ED82C9"/>
<path d="M51.6002 17.9194C44.9638 15.0884 37.6835 17.5012 32.4332 21.8265C26.5039 14.7183 6.95192 -3.74102 1.21163 11.3596C-1.94553 19.6673 1.63865 28.4206 5.50285 35.9126C8.611 41.9103 13.4412 49.6354 20.1056 52.7542C20.1149 52.8864 20.1518 53.0154 20.2141 53.133C20.2765 53.2507 20.3628 53.3545 20.4679 53.4381C20.5729 53.5216 20.6944 53.5832 20.8248 53.6188C20.9551 53.6545 21.0916 53.6635 21.2256 53.6453L22.0867 53.5151C22.2827 53.5768 22.4717 53.6453 22.6677 53.7001C22.7323 53.721 22.8008 53.7274 22.8682 53.7189C22.9356 53.7104 23.0003 53.6872 23.0574 53.6511C23.1144 53.6149 23.1625 53.5667 23.198 53.5099C23.2336 53.4532 23.2557 53.3894 23.2627 53.3232C36.9694 51.1091 56.7034 46.4001 59.7836 31.2515C60.9876 25.3017 56.9204 20.1677 51.6002 17.9194ZM55.1003 37.4137C48.45 47.3049 32.0972 50.218 20.9316 51.9248C15.2543 48.9499 11.2011 42.4313 8.21898 37.2629C4.71881 31.1898 1.44264 23.7663 1.73666 16.6376C1.88367 12.9498 3.75276 8.57661 7.70096 7.63754C10.8511 6.85612 14.5123 8.93991 17.0814 10.4411C22.6047 13.6695 27.666 18.5294 31.5721 23.5264C31.6441 23.638 31.7403 23.7328 31.8539 23.8038C31.9675 23.8749 32.0957 23.9206 32.2294 23.9376C32.3631 23.9546 32.499 23.9425 32.6274 23.9023C32.7558 23.862 32.8735 23.7945 32.9722 23.7046C38.4255 18.8653 45.7899 16.8501 52.5732 20.3322C59.5735 23.924 58.9155 31.7382 55.1143 37.3863L55.1003 37.4137Z" fill="#262626"/>
</g>
<defs>
<clipPath id="clip0_209_7268">
<rect width="60" height="60" fill="white"/>
</clipPath>
</defs>
</svg>
