<svg width="100" height="100" viewBox="0 0 100 100" fill="none" xmlns="http://www.w3.org/2000/svg">
<g clip-path="url(#clip0_209_7217)">
<path d="M75.5556 31.0067C74.9791 30.3643 74.3919 29.722 73.7994 29.0904C73.8289 28.6124 73.6804 28.1406 73.3831 27.7679C70.8112 24.5132 67.9526 21.5013 64.8424 18.7692C65.7499 19.0121 66.5239 18.1916 66.6787 17.3279C67.0029 17.4069 67.3416 17.4013 67.6631 17.3117C67.9846 17.2221 68.2783 17.0514 68.5168 16.8157C68.7552 16.58 68.9306 16.2868 69.0264 15.9638C69.1223 15.6408 69.1354 15.2985 69.0647 14.9689C69.0647 14.834 69.0007 14.7044 68.9686 14.5695L69.0861 14.699C69.2928 14.8911 69.5366 15.0378 69.8022 15.1299C70.0677 15.222 70.3493 15.2576 70.6291 15.2342C70.9089 15.2109 71.1809 15.1292 71.4279 14.9944C71.675 14.8596 71.8918 14.6744 72.0646 14.4507L72.1447 14.5155C73.8581 15.7517 75.8438 13.3981 74.899 11.7301C74.3065 10.6828 73.7567 9.60861 73.2016 8.53979C73.4719 8.18987 73.6185 7.75845 73.6179 7.31441V7.21725C73.8717 7.14647 74.0963 6.99507 74.2585 6.7854C76.0573 4.57217 75.0752 2.85018 72.5931 1.69498C71.2853 1.0796 69.7213 1.69498 69.5024 3.17406C69.1404 3.07681 68.7597 3.07539 68.397 3.16992C68.0343 3.26446 67.7017 3.45178 67.4313 3.71387L67.0256 3.17406C65.862 1.68958 64.0738 2.82858 63.8229 4.32926C62.6913 4.46961 61.645 5.47906 62.1521 6.74221C62.3176 7.15787 62.4831 7.57352 62.6539 7.98918C61.7732 7.11468 60.8764 6.26718 59.9316 5.45746C59.5854 5.10814 59.1163 4.91217 58.6273 4.91268C58.1382 4.91318 57.6695 5.11012 57.324 5.46016C56.9786 5.81021 56.7848 6.28468 56.7853 6.77921C56.7858 7.27374 56.9806 7.74781 57.3267 8.09714C58.8485 9.86388 60.2486 11.7342 61.5169 13.695C59.6433 12.6693 57.7804 11.5735 55.7413 10.9419C54.5617 10.5803 53.7503 11.9082 54.2467 12.9123C54.6561 13.6554 55.2528 14.2757 55.9762 14.7098C56.1464 14.8261 56.3523 14.8764 56.5562 14.8517C56.7601 14.8269 56.9484 14.7286 57.0865 14.5749L57.348 14.7206C57.1422 14.9028 56.9806 15.1305 56.876 15.3861C56.7714 15.6417 56.7265 15.9183 56.7449 16.1943C51.9728 11.8758 47.1794 7.58972 41.7988 4.06475C40.0479 2.92575 38.4893 5.14437 39.3487 6.69363C38.2169 5.95659 37.0462 5.28262 35.8417 4.67474C35.5023 4.4859 35.1115 4.4136 34.728 4.46872C34.3445 4.52384 33.9891 4.7034 33.7152 4.98039C33.4413 5.25737 33.2637 5.61681 33.2092 6.00463C33.1547 6.39245 33.2262 6.78768 33.413 7.13088C34.7156 9.5732 36.1891 11.9183 37.8221 14.1484C36.1731 12.8637 34.4196 11.7224 32.5802 10.7368C31.1177 9.95949 29.2974 11.5627 30.2369 13.1012C31.3819 14.9567 32.6405 16.738 34.0055 18.4345C32.4788 17.1066 30.9202 15.8164 29.3188 14.5803C27.8455 13.4413 26.4577 15.5411 27.0555 16.8691C28.8224 20.7989 31.4539 24.1403 34.1496 27.4332C31.4597 24.7587 28.5783 22.2886 25.5289 20.0432C24.1304 19.0445 22.5503 20.9446 23.2977 22.2996C25.0058 25.3873 26.9434 28.3293 28.9291 31.2442C26.5004 28.9716 24.0716 26.699 21.1785 25.0256C20.1109 24.3994 18.4135 25.4467 18.9206 26.78C20.586 31.1309 23.2336 34.8772 25.7211 38.7422C23.698 37.2739 21.7764 35.6599 19.8494 33.9865C18.5843 32.8799 16.5506 34.2834 17.4633 35.8488C18.3748 37.375 19.1861 38.96 19.8921 40.5938C19.0434 40.1565 18.1946 39.7139 17.3833 39.2064C17.0961 39.0422 16.7637 38.9776 16.4368 39.0224C16.1099 39.0672 15.8065 39.219 15.573 39.4546C15.3394 39.6902 15.1885 39.9966 15.1433 40.3271C15.0982 40.6576 15.1612 40.9939 15.3228 41.2847C15.7548 42.0502 16.1364 42.8437 16.4652 43.6599C16.0221 43.517 15.5917 43.3364 15.1787 43.1201C14.8855 42.9773 14.5526 42.9408 14.2359 43.0166C13.9192 43.0925 13.6378 43.276 13.4389 43.5366C13.2401 43.7971 13.1358 44.1189 13.1435 44.4479C13.1512 44.777 13.2704 45.0934 13.4813 45.3441C13.5507 45.4197 13.6147 45.506 13.6841 45.587C13.5446 45.7188 13.4365 45.881 13.3681 46.0613C13.2996 46.2416 13.2726 46.4353 13.2891 46.6277C13.3055 46.8201 13.365 47.0062 13.463 47.1719C13.5611 47.3376 13.6951 47.4787 13.8549 47.5843C14.709 48.1727 16.0328 48.6639 16.8975 47.811C17.1342 47.5831 17.2963 47.2873 17.3619 46.9635C17.8957 47.1093 18.4295 47.2496 18.9366 47.4062C20.4526 47.8596 21.2105 46.0189 20.3565 44.95C20.12 44.6449 19.9127 44.3177 19.7373 43.973C20.4312 44.34 21.1198 44.7179 21.787 45.139C22.972 45.8839 24.3119 44.6639 24.0236 43.4008C23.7992 42.4557 23.5176 41.5255 23.1802 40.6154C25.1278 42.0919 27.1895 43.4079 29.3455 44.5506C29.6268 44.7074 29.9509 44.7676 30.269 44.7222C30.5871 44.6768 30.8821 44.5282 31.1095 44.2988C31.337 44.0693 31.4847 43.7715 31.5304 43.4499C31.5762 43.1283 31.5175 42.8004 31.3632 42.5155C29.3828 38.5911 26.7192 35.0877 24.5094 31.309C28.0217 34.3589 31.1764 37.8731 35.2225 40.2699C36.5516 41.0526 38.2117 39.4656 37.3577 38.1106C35.6068 35.2388 33.6852 32.4858 31.8062 29.6896C35.4467 33.2361 38.9483 36.923 42.9144 40.0701C43.2027 40.3443 43.5782 40.5056 43.9735 40.5252C44.3688 40.5448 44.7581 40.4215 45.0716 40.1772C45.3851 39.9329 45.6023 39.5837 45.6844 39.1922C45.7664 38.8006 45.7079 38.3923 45.5193 38.0405C43.3307 33.112 39.7597 29.1012 36.3862 24.9554C41.644 29.8137 46.715 34.888 52.3998 39.2604C53.729 40.2915 55.6506 38.2834 54.6951 36.9392C50.633 31.2226 45.578 26.3751 40.8967 21.2092C46.7683 26.8124 51.8927 33.3657 58.8106 37.7004C60.6042 38.8232 62.1575 36.3832 60.9458 34.9042C54.4709 27.0931 46.7096 20.2591 40.7312 12.0486C49.6348 19.0013 56.2111 28.9716 66.3157 34.4777C67.789 35.2766 69.9348 33.5438 68.7925 31.973C68.3067 31.3036 67.805 30.6504 67.2979 30.0081C69.2199 31.4492 71.2174 32.7845 73.2816 34.0081C75.1766 35.0877 76.9701 32.5884 75.5556 31.0067Z" fill="#00D2E7"/>
<mask id="path-2-outside-1_209_7217" maskUnits="userSpaceOnUse" x="9.52637" y="-1.01184" width="80" height="102" fill="black">
<rect fill="white" x="9.52637" y="-1.01184" width="80" height="102"/>
<path d="M88.2823 81.9198C87.5009 82.6347 86.5962 83.1983 85.6133 83.5825C85.1679 81.9125 84.4942 80.3137 83.6116 78.8321C83.5683 78.76 83.4989 78.7078 83.4182 78.6866C83.3374 78.6655 83.2517 78.677 83.1792 78.7188L81.9355 79.2586C81.2843 76.349 80.5477 74.6324 77.4143 75.0804C71.4839 75.9225 65.4575 77.1749 60.0181 79.7822C59.9579 79.8178 59.911 79.8727 59.8849 79.9381C59.8589 80.0036 59.855 80.0759 59.874 80.1439C60.253 81.8195 60.7525 83.4649 61.3686 85.0669L61.4007 85.1047C60.5359 85.2073 59.6712 85.2937 58.8011 85.3476C58.7549 85.3478 58.7093 85.3587 58.6679 85.3794C58.6265 85.4 58.5902 85.43 58.5619 85.4669C58.5336 85.5038 58.514 85.5468 58.5046 85.5926C58.4952 85.6383 58.4962 85.6856 58.5075 85.7309C58.979 87.4202 59.61 89.0598 60.3918 90.627C60.4879 90.8105 60.7388 90.627 60.664 90.465C60.6373 90.4165 58.2033 85.99 60.1302 85.8874C61.4967 85.8119 62.8526 85.5959 64.2084 85.3908C67.8192 84.7775 71.3739 83.864 74.8361 82.6594C77.3823 81.8227 79.8911 80.8402 82.3572 79.7876C84.06 79.0588 84.455 82.3841 85.0955 83.8146C83.4141 84.4677 81.5725 84.932 80.206 85.434C75.9845 87.04 71.6793 88.4114 67.3097 89.542C61.9718 90.9077 56.5058 91.7552 51.2106 93.38C45.9154 95.0049 40.7644 96.932 35.3838 98.2383C32.3889 98.953 29.3224 99.3153 26.2453 99.3179C24.2756 99.3179 23.4162 92.3004 23.0426 90.9077C21.58 85.1479 20.1067 79.3935 18.436 73.6877C16.3008 66.3355 11.4967 57.7849 12.3401 49.936C15.7724 47.9441 20.08 46.9239 23.7045 45.7201C30.8626 43.3396 38.1168 41.2289 45.387 39.2424C52.465 37.3099 59.5858 35.5069 66.7706 34.0116C69.3488 33.4718 71.9483 32.9806 74.5639 32.6567C75.3539 32.5541 78.0068 31.9765 78.626 32.7323C78.8342 32.986 79.2399 32.6945 79.1598 32.4138C79.2197 32.4876 79.2749 32.5651 79.3253 32.6459C79.3656 32.6971 79.4229 32.7317 79.4866 32.7433C79.5502 32.755 79.6159 32.7428 79.6713 32.7092C79.7268 32.6755 79.7683 32.6226 79.7881 32.5603C79.8079 32.4981 79.8047 32.4306 79.779 32.3706C78.1776 29.6715 74.2596 27.4151 71.911 25.4556C70.0605 23.9082 68.2047 22.3679 66.3435 20.8348L66.3756 20.8024C68.2545 18.071 71.0035 15.9441 73.2401 13.4988C74.3077 12.3274 76.4855 10.125 76.0852 8.29502C75.055 3.77681 67.9556 1.11014 64.0536 -0.00187187C63.9793 -0.0196183 63.9013 -0.0135663 63.8306 0.0154467C63.7598 0.0444597 63.6997 0.0949992 63.6586 0.160071C60.9576 4.21945 57.947 8.14388 55.6517 12.4408C53.191 10.7026 50.6555 9.08315 48.088 7.4907C45.75 6.05121 43.3888 4.6423 41.0046 3.26398C40.5829 3.01567 39.2965 1.99003 38.7039 2.34091C38.6847 2.35007 38.6684 2.36458 38.657 2.38274C38.6456 2.4009 38.6396 2.42196 38.6396 2.44347C38.6396 2.46498 38.6456 2.48604 38.657 2.50421C38.6684 2.52237 38.6847 2.53687 38.7039 2.54604C39.5527 2.71338 40.9512 3.95494 41.7145 4.40299C43.9778 5.74172 46.2144 7.12903 48.4456 8.52174C52.0263 10.7166 55.4868 13.1061 58.8118 15.6796C62.8526 18.8537 66.8186 22.1574 70.7526 25.434C72.6102 26.9779 74.4607 28.5343 76.304 30.1034C76.9286 30.6432 78.0495 31.318 78.7755 32.0251C77.1207 30.8051 72.0924 32.2896 70.6405 32.5649C63.1355 33.8713 55.7211 35.8038 48.3549 37.7309C40.2252 39.8902 32.1437 42.2275 24.1582 44.8672C20.3843 46.1142 15.7777 47.2964 12.1906 49.4448C12.1519 49.4368 12.112 49.4368 12.0732 49.4448L13.2048 48.3652C13.2164 48.3585 13.2266 48.3495 13.2347 48.3388C13.2428 48.3281 13.2488 48.3159 13.2523 48.3028C13.2557 48.2898 13.2566 48.2762 13.2549 48.2628C13.2532 48.2494 13.2489 48.2365 13.2422 48.2248C13.2356 48.2131 13.2267 48.2029 13.2161 48.1947C13.2055 48.1864 13.1934 48.1804 13.1806 48.1769C13.1677 48.1734 13.1542 48.1725 13.141 48.1742C13.1278 48.176 13.115 48.1803 13.1034 48.1871C12.1479 48.8564 11.9825 48.824 12.607 48.0791C13.1408 46.7566 13.6746 45.4178 14.1603 44.0791C14.9984 41.8659 15.7617 39.6311 16.6051 37.407C18.3452 32.6297 20.1281 27.8038 22.797 23.4961C27.4463 15.9387 33.8571 9.57437 38.2769 1.90366C38.4744 1.56898 37.9833 1.29367 37.7431 1.60137C32.6348 8.84023 26.9499 15.6904 22.1618 23.1506C17.1816 30.9617 14.8809 40.6189 11.486 49.2073C11.39 49.4448 11.6996 49.6661 11.9024 49.5636C11.8998 49.576 11.8998 49.5889 11.9024 49.6014C11.4594 49.8767 11.027 50.1412 10.6213 50.4705C10.3918 50.6486 10.6213 51.0535 10.8562 50.8753C11.091 50.6972 11.5021 50.4435 11.833 50.2383C11.1818 56.5865 14.2564 63.2532 16.2368 69.0939C19.6477 79.0966 21.8736 89.5042 24.5692 99.7174C24.5917 99.7901 24.6363 99.8538 24.6967 99.8994C24.7571 99.9449 24.8302 99.97 24.9055 99.9711C31.311 100.246 37.4335 98.5784 43.508 96.6351C50.1164 94.519 56.5699 92.6567 63.349 91.183C69.1286 89.902 74.8116 88.21 80.3555 86.1196C82.6668 85.2613 87.0065 84.3274 88.72 82.3679C88.9869 82.0494 88.5705 81.6283 88.2823 81.9198ZM61.7636 85.0507C61.7781 85.0243 61.7857 84.9946 61.7857 84.9644C61.7857 84.9342 61.7781 84.9044 61.7636 84.878C61.3633 83.8524 59.7993 80.5595 61.3153 79.8524C63.864 78.7313 66.5179 77.8722 69.2367 77.2883C71.4786 76.7484 73.7632 76.4246 76.0318 76.0143C76.9207 75.8202 77.8212 75.685 78.7274 75.6095C80.6171 75.5015 81.0014 78.2167 81.2683 79.4367C81.2766 79.4577 81.2874 79.4776 81.3003 79.4961C74.9856 82.0926 68.4894 84.2086 61.7636 85.0507ZM58.7958 14.7889C57.9275 14.116 57.0485 13.461 56.1588 12.824L56.7247 12.2842C56.7319 12.2786 56.7369 12.2706 56.7386 12.2615C56.7404 12.2525 56.7389 12.2431 56.7343 12.2352C56.7297 12.2272 56.7224 12.2212 56.7137 12.2183C56.7051 12.2154 56.6957 12.2158 56.6873 12.2194C57.4346 11.8902 59.3562 7.73902 59.9861 6.82134C60.4398 6.15197 63.6266 0.624309 64.3525 0.829437C67.2601 1.72203 70.0068 3.08173 72.4874 4.85643C77.0674 8.01432 74.3931 11.2586 71.4199 14.3841C69.5356 16.3544 67.3577 18.1628 65.7884 20.3868C63.4664 18.4974 61.1498 16.6243 58.7958 14.7889Z"/>
</mask>
<path d="M88.2823 81.9198C87.5009 82.6347 86.5962 83.1983 85.6133 83.5825C85.1679 81.9125 84.4942 80.3137 83.6116 78.8321C83.5683 78.76 83.4989 78.7078 83.4182 78.6866C83.3374 78.6655 83.2517 78.677 83.1792 78.7188L81.9355 79.2586C81.2843 76.349 80.5477 74.6324 77.4143 75.0804C71.4839 75.9225 65.4575 77.1749 60.0181 79.7822C59.9579 79.8178 59.911 79.8727 59.8849 79.9381C59.8589 80.0036 59.855 80.0759 59.874 80.1439C60.253 81.8195 60.7525 83.4649 61.3686 85.0669L61.4007 85.1047C60.5359 85.2073 59.6712 85.2937 58.8011 85.3476C58.7549 85.3478 58.7093 85.3587 58.6679 85.3794C58.6265 85.4 58.5902 85.43 58.5619 85.4669C58.5336 85.5038 58.514 85.5468 58.5046 85.5926C58.4952 85.6383 58.4962 85.6856 58.5075 85.7309C58.979 87.4202 59.61 89.0598 60.3918 90.627C60.4879 90.8105 60.7388 90.627 60.664 90.465C60.6373 90.4165 58.2033 85.99 60.1302 85.8874C61.4967 85.8119 62.8526 85.5959 64.2084 85.3908C67.8192 84.7775 71.3739 83.864 74.8361 82.6594C77.3823 81.8227 79.8911 80.8402 82.3572 79.7876C84.06 79.0588 84.455 82.3841 85.0955 83.8146C83.4141 84.4677 81.5725 84.932 80.206 85.434C75.9845 87.04 71.6793 88.4114 67.3097 89.542C61.9718 90.9077 56.5058 91.7552 51.2106 93.38C45.9154 95.0049 40.7644 96.932 35.3838 98.2383C32.3889 98.953 29.3224 99.3153 26.2453 99.3179C24.2756 99.3179 23.4162 92.3004 23.0426 90.9077C21.58 85.1479 20.1067 79.3935 18.436 73.6877C16.3008 66.3355 11.4967 57.7849 12.3401 49.936C15.7724 47.9441 20.08 46.9239 23.7045 45.7201C30.8626 43.3396 38.1168 41.2289 45.387 39.2424C52.465 37.3099 59.5858 35.5069 66.7706 34.0116C69.3488 33.4718 71.9483 32.9806 74.5639 32.6567C75.3539 32.5541 78.0068 31.9765 78.626 32.7323C78.8342 32.986 79.2399 32.6945 79.1598 32.4138C79.2197 32.4876 79.2749 32.5651 79.3253 32.6459C79.3656 32.6971 79.4229 32.7317 79.4866 32.7433C79.5502 32.755 79.6159 32.7428 79.6713 32.7092C79.7268 32.6755 79.7683 32.6226 79.7881 32.5603C79.8079 32.4981 79.8047 32.4306 79.779 32.3706C78.1776 29.6715 74.2596 27.4151 71.911 25.4556C70.0605 23.9082 68.2047 22.3679 66.3435 20.8348L66.3756 20.8024C68.2545 18.071 71.0035 15.9441 73.2401 13.4988C74.3077 12.3274 76.4855 10.125 76.0852 8.29502C75.055 3.77681 67.9556 1.11014 64.0536 -0.00187187C63.9793 -0.0196183 63.9013 -0.0135663 63.8306 0.0154467C63.7598 0.0444597 63.6997 0.0949992 63.6586 0.160071C60.9576 4.21945 57.947 8.14388 55.6517 12.4408C53.191 10.7026 50.6555 9.08315 48.088 7.4907C45.75 6.05121 43.3888 4.6423 41.0046 3.26398C40.5829 3.01567 39.2965 1.99003 38.7039 2.34091C38.6847 2.35007 38.6684 2.36458 38.657 2.38274C38.6456 2.4009 38.6396 2.42196 38.6396 2.44347C38.6396 2.46498 38.6456 2.48604 38.657 2.50421C38.6684 2.52237 38.6847 2.53687 38.7039 2.54604C39.5527 2.71338 40.9512 3.95494 41.7145 4.40299C43.9778 5.74172 46.2144 7.12903 48.4456 8.52174C52.0263 10.7166 55.4868 13.1061 58.8118 15.6796C62.8526 18.8537 66.8186 22.1574 70.7526 25.434C72.6102 26.9779 74.4607 28.5343 76.304 30.1034C76.9286 30.6432 78.0495 31.318 78.7755 32.0251C77.1207 30.8051 72.0924 32.2896 70.6405 32.5649C63.1355 33.8713 55.7211 35.8038 48.3549 37.7309C40.2252 39.8902 32.1437 42.2275 24.1582 44.8672C20.3843 46.1142 15.7777 47.2964 12.1906 49.4448C12.1519 49.4368 12.112 49.4368 12.0732 49.4448L13.2048 48.3652C13.2164 48.3585 13.2266 48.3495 13.2347 48.3388C13.2428 48.3281 13.2488 48.3159 13.2523 48.3028C13.2557 48.2898 13.2566 48.2762 13.2549 48.2628C13.2532 48.2494 13.2489 48.2365 13.2422 48.2248C13.2356 48.2131 13.2267 48.2029 13.2161 48.1947C13.2055 48.1864 13.1934 48.1804 13.1806 48.1769C13.1677 48.1734 13.1542 48.1725 13.141 48.1742C13.1278 48.176 13.115 48.1803 13.1034 48.1871C12.1479 48.8564 11.9825 48.824 12.607 48.0791C13.1408 46.7566 13.6746 45.4178 14.1603 44.0791C14.9984 41.8659 15.7617 39.6311 16.6051 37.407C18.3452 32.6297 20.1281 27.8038 22.797 23.4961C27.4463 15.9387 33.8571 9.57437 38.2769 1.90366C38.4744 1.56898 37.9833 1.29367 37.7431 1.60137C32.6348 8.84023 26.9499 15.6904 22.1618 23.1506C17.1816 30.9617 14.8809 40.6189 11.486 49.2073C11.39 49.4448 11.6996 49.6661 11.9024 49.5636C11.8998 49.576 11.8998 49.5889 11.9024 49.6014C11.4594 49.8767 11.027 50.1412 10.6213 50.4705C10.3918 50.6486 10.6213 51.0535 10.8562 50.8753C11.091 50.6972 11.5021 50.4435 11.833 50.2383C11.1818 56.5865 14.2564 63.2532 16.2368 69.0939C19.6477 79.0966 21.8736 89.5042 24.5692 99.7174C24.5917 99.7901 24.6363 99.8538 24.6967 99.8994C24.7571 99.9449 24.8302 99.97 24.9055 99.9711C31.311 100.246 37.4335 98.5784 43.508 96.6351C50.1164 94.519 56.5699 92.6567 63.349 91.183C69.1286 89.902 74.8116 88.21 80.3555 86.1196C82.6668 85.2613 87.0065 84.3274 88.72 82.3679C88.9869 82.0494 88.5705 81.6283 88.2823 81.9198ZM61.7636 85.0507C61.7781 85.0243 61.7857 84.9946 61.7857 84.9644C61.7857 84.9342 61.7781 84.9044 61.7636 84.878C61.3633 83.8524 59.7993 80.5595 61.3153 79.8524C63.864 78.7313 66.5179 77.8722 69.2367 77.2883C71.4786 76.7484 73.7632 76.4246 76.0318 76.0143C76.9207 75.8202 77.8212 75.685 78.7274 75.6095C80.6171 75.5015 81.0014 78.2167 81.2683 79.4367C81.2766 79.4577 81.2874 79.4776 81.3003 79.4961C74.9856 82.0926 68.4894 84.2086 61.7636 85.0507ZM58.7958 14.7889C57.9275 14.116 57.0485 13.461 56.1588 12.824L56.7247 12.2842C56.7319 12.2786 56.7369 12.2706 56.7386 12.2615C56.7404 12.2525 56.7389 12.2431 56.7343 12.2352C56.7297 12.2272 56.7224 12.2212 56.7137 12.2183C56.7051 12.2154 56.6957 12.2158 56.6873 12.2194C57.4346 11.8902 59.3562 7.73902 59.9861 6.82134C60.4398 6.15197 63.6266 0.624309 64.3525 0.829437C67.2601 1.72203 70.0068 3.08173 72.4874 4.85643C77.0674 8.01432 74.3931 11.2586 71.4199 14.3841C69.5356 16.3544 67.3577 18.1628 65.7884 20.3868C63.4664 18.4974 61.1498 16.6243 58.7958 14.7889Z" fill="#262626"/>
<path d="M88.2823 81.9198C87.5009 82.6347 86.5962 83.1983 85.6133 83.5825C85.1679 81.9125 84.4942 80.3137 83.6116 78.8321C83.5683 78.76 83.4989 78.7078 83.4182 78.6866C83.3374 78.6655 83.2517 78.677 83.1792 78.7188L81.9355 79.2586C81.2843 76.349 80.5477 74.6324 77.4143 75.0804C71.4839 75.9225 65.4575 77.1749 60.0181 79.7822C59.9579 79.8178 59.911 79.8727 59.8849 79.9381C59.8589 80.0036 59.855 80.0759 59.874 80.1439C60.253 81.8195 60.7525 83.4649 61.3686 85.0669L61.4007 85.1047C60.5359 85.2073 59.6712 85.2937 58.8011 85.3476C58.7549 85.3478 58.7093 85.3587 58.6679 85.3794C58.6265 85.4 58.5902 85.43 58.5619 85.4669C58.5336 85.5038 58.514 85.5468 58.5046 85.5926C58.4952 85.6383 58.4962 85.6856 58.5075 85.7309C58.979 87.4202 59.61 89.0598 60.3918 90.627C60.4879 90.8105 60.7388 90.627 60.664 90.465C60.6373 90.4165 58.2033 85.99 60.1302 85.8874C61.4967 85.8119 62.8526 85.5959 64.2084 85.3908C67.8192 84.7775 71.3739 83.864 74.8361 82.6594C77.3823 81.8227 79.8911 80.8402 82.3572 79.7876C84.06 79.0588 84.455 82.3841 85.0955 83.8146C83.4141 84.4677 81.5725 84.932 80.206 85.434C75.9845 87.04 71.6793 88.4114 67.3097 89.542C61.9718 90.9077 56.5058 91.7552 51.2106 93.38C45.9154 95.0049 40.7644 96.932 35.3838 98.2383C32.3889 98.953 29.3224 99.3153 26.2453 99.3179C24.2756 99.3179 23.4162 92.3004 23.0426 90.9077C21.58 85.1479 20.1067 79.3935 18.436 73.6877C16.3008 66.3355 11.4967 57.7849 12.3401 49.936C15.7724 47.9441 20.08 46.9239 23.7045 45.7201C30.8626 43.3396 38.1168 41.2289 45.387 39.2424C52.465 37.3099 59.5858 35.5069 66.7706 34.0116C69.3488 33.4718 71.9483 32.9806 74.5639 32.6567C75.3539 32.5541 78.0068 31.9765 78.626 32.7323C78.8342 32.986 79.2399 32.6945 79.1598 32.4138C79.2197 32.4876 79.2749 32.5651 79.3253 32.6459C79.3656 32.6971 79.4229 32.7317 79.4866 32.7433C79.5502 32.755 79.6159 32.7428 79.6713 32.7092C79.7268 32.6755 79.7683 32.6226 79.7881 32.5603C79.8079 32.4981 79.8047 32.4306 79.779 32.3706C78.1776 29.6715 74.2596 27.4151 71.911 25.4556C70.0605 23.9082 68.2047 22.3679 66.3435 20.8348L66.3756 20.8024C68.2545 18.071 71.0035 15.9441 73.2401 13.4988C74.3077 12.3274 76.4855 10.125 76.0852 8.29502C75.055 3.77681 67.9556 1.11014 64.0536 -0.00187187C63.9793 -0.0196183 63.9013 -0.0135663 63.8306 0.0154467C63.7598 0.0444597 63.6997 0.0949992 63.6586 0.160071C60.9576 4.21945 57.947 8.14388 55.6517 12.4408C53.191 10.7026 50.6555 9.08315 48.088 7.4907C45.75 6.05121 43.3888 4.6423 41.0046 3.26398C40.5829 3.01567 39.2965 1.99003 38.7039 2.34091C38.6847 2.35007 38.6684 2.36458 38.657 2.38274C38.6456 2.4009 38.6396 2.42196 38.6396 2.44347C38.6396 2.46498 38.6456 2.48604 38.657 2.50421C38.6684 2.52237 38.6847 2.53687 38.7039 2.54604C39.5527 2.71338 40.9512 3.95494 41.7145 4.40299C43.9778 5.74172 46.2144 7.12903 48.4456 8.52174C52.0263 10.7166 55.4868 13.1061 58.8118 15.6796C62.8526 18.8537 66.8186 22.1574 70.7526 25.434C72.6102 26.9779 74.4607 28.5343 76.304 30.1034C76.9286 30.6432 78.0495 31.318 78.7755 32.0251C77.1207 30.8051 72.0924 32.2896 70.6405 32.5649C63.1355 33.8713 55.7211 35.8038 48.3549 37.7309C40.2252 39.8902 32.1437 42.2275 24.1582 44.8672C20.3843 46.1142 15.7777 47.2964 12.1906 49.4448C12.1519 49.4368 12.112 49.4368 12.0732 49.4448L13.2048 48.3652C13.2164 48.3585 13.2266 48.3495 13.2347 48.3388C13.2428 48.3281 13.2488 48.3159 13.2523 48.3028C13.2557 48.2898 13.2566 48.2762 13.2549 48.2628C13.2532 48.2494 13.2489 48.2365 13.2422 48.2248C13.2356 48.2131 13.2267 48.2029 13.2161 48.1947C13.2055 48.1864 13.1934 48.1804 13.1806 48.1769C13.1677 48.1734 13.1542 48.1725 13.141 48.1742C13.1278 48.176 13.115 48.1803 13.1034 48.1871C12.1479 48.8564 11.9825 48.824 12.607 48.0791C13.1408 46.7566 13.6746 45.4178 14.1603 44.0791C14.9984 41.8659 15.7617 39.6311 16.6051 37.407C18.3452 32.6297 20.1281 27.8038 22.797 23.4961C27.4463 15.9387 33.8571 9.57437 38.2769 1.90366C38.4744 1.56898 37.9833 1.29367 37.7431 1.60137C32.6348 8.84023 26.9499 15.6904 22.1618 23.1506C17.1816 30.9617 14.8809 40.6189 11.486 49.2073C11.39 49.4448 11.6996 49.6661 11.9024 49.5636C11.8998 49.576 11.8998 49.5889 11.9024 49.6014C11.4594 49.8767 11.027 50.1412 10.6213 50.4705C10.3918 50.6486 10.6213 51.0535 10.8562 50.8753C11.091 50.6972 11.5021 50.4435 11.833 50.2383C11.1818 56.5865 14.2564 63.2532 16.2368 69.0939C19.6477 79.0966 21.8736 89.5042 24.5692 99.7174C24.5917 99.7901 24.6363 99.8538 24.6967 99.8994C24.7571 99.9449 24.8302 99.97 24.9055 99.9711C31.311 100.246 37.4335 98.5784 43.508 96.6351C50.1164 94.519 56.5699 92.6567 63.349 91.183C69.1286 89.902 74.8116 88.21 80.3555 86.1196C82.6668 85.2613 87.0065 84.3274 88.72 82.3679C88.9869 82.0494 88.5705 81.6283 88.2823 81.9198ZM61.7636 85.0507C61.7781 85.0243 61.7857 84.9946 61.7857 84.9644C61.7857 84.9342 61.7781 84.9044 61.7636 84.878C61.3633 83.8524 59.7993 80.5595 61.3153 79.8524C63.864 78.7313 66.5179 77.8722 69.2367 77.2883C71.4786 76.7484 73.7632 76.4246 76.0318 76.0143C76.9207 75.8202 77.8212 75.685 78.7274 75.6095C80.6171 75.5015 81.0014 78.2167 81.2683 79.4367C81.2766 79.4577 81.2874 79.4776 81.3003 79.4961C74.9856 82.0926 68.4894 84.2086 61.7636 85.0507ZM58.7958 14.7889C57.9275 14.116 57.0485 13.461 56.1588 12.824L56.7247 12.2842C56.7319 12.2786 56.7369 12.2706 56.7386 12.2615C56.7404 12.2525 56.7389 12.2431 56.7343 12.2352C56.7297 12.2272 56.7224 12.2212 56.7137 12.2183C56.7051 12.2154 56.6957 12.2158 56.6873 12.2194C57.4346 11.8902 59.3562 7.73902 59.9861 6.82134C60.4398 6.15197 63.6266 0.624309 64.3525 0.829437C67.2601 1.72203 70.0068 3.08173 72.4874 4.85643C77.0674 8.01432 74.3931 11.2586 71.4199 14.3841C69.5356 16.3544 67.3577 18.1628 65.7884 20.3868C63.4664 18.4974 61.1498 16.6243 58.7958 14.7889Z" stroke="#262626" mask="url(#path-2-outside-1_209_7217)"/>
<path d="M77.0074 33.0368C76.3207 34.0935 77.6726 37.8475 78.4643 40.046C78.6756 40.6328 78.847 41.1087 78.9291 41.393C79.8815 44.7374 80.8732 48.0701 81.8647 51.4018C82.3791 53.1305 82.8935 54.859 83.4022 56.5887M77.0074 33.0368L83.4022 56.5887M77.0074 33.0368C77.0393 32.9732 77.0484 32.9005 77.0331 32.831C77.0179 32.7614 76.9792 32.6994 76.9238 32.6555C76.8684 32.6115 76.7996 32.5884 76.7292 32.59C76.6588 32.5916 76.5911 32.6179 76.5377 32.6643L77.0074 33.0368ZM83.4022 56.5887L83.6421 56.5182C83.642 56.5181 83.642 56.518 83.642 56.5179L83.4022 56.5887ZM86.1446 69.6842C86.3142 70.3251 86.491 70.9709 86.6687 71.6207C87.6149 75.079 88.5915 78.6485 88.6984 82.1618L88.6989 82.1762L88.701 82.1905C88.7182 82.308 88.7767 82.4158 88.8665 82.4941L89.0308 82.3057L88.8665 82.4941C88.9564 82.5725 89.0716 82.616 89.1912 82.616C89.3108 82.616 89.426 82.5725 89.5158 82.4941L89.3515 82.3057L89.5159 82.4941C89.6056 82.4158 89.6641 82.308 89.6814 82.1905L89.6827 82.1814L89.6834 82.1722C89.8855 79.3753 89.1108 76.3982 88.4093 73.702C88.2828 73.2162 88.1588 72.7396 88.0433 72.2747L86.1446 69.6842ZM86.1446 69.6842C86.1446 69.6844 86.1447 69.6845 86.1447 69.6847L86.3861 69.6198L86.1444 69.6837C86.1445 69.6839 86.1445 69.6841 86.1446 69.6842ZM77.0485 38.1257L77.2903 38.0624L77.0485 38.1256C77.0485 38.1256 77.0485 38.1257 77.0485 38.1257Z" fill="#262626" stroke="#262626" stroke-width="0.5"/>
<path d="M23.1513 60.2308C23.125 60.2313 23.0988 60.2337 23.073 60.2379C23.0649 60.1979 23.0568 60.1579 23.0486 60.1178L23.0485 60.1173C23.0179 59.9665 22.987 59.8145 22.9548 59.6623C22.9238 59.5161 22.8361 59.4016 22.712 59.3398C22.5953 59.2818 22.4676 59.2803 22.3602 59.3096C22.1475 59.3676 21.9302 59.5791 21.9834 59.8911L21.9835 59.8918C22.0432 60.2362 22.1027 60.5807 22.1621 60.9252C22.7629 64.4041 23.3639 67.8841 24.1683 71.3259C24.1377 71.3593 24.1124 71.3972 24.093 71.4385C24.0421 71.5465 24.0384 71.663 24.0624 71.7639C24.0959 71.9047 24.195 72.0492 24.3493 72.1197C24.3603 72.1694 24.3708 72.22 24.3818 72.2725L24.3816 72.2725L24.3838 72.2815C24.8 73.9677 25.2882 75.8736 26.0186 77.6551C26.7488 79.4362 27.7285 81.1119 29.1393 82.3273L29.1406 82.3284C30.2783 83.2949 31.7958 83.5331 33.2942 83.4713C34.7946 83.4095 36.3214 83.0443 37.511 82.759C39.8361 82.2147 42.0677 81.3664 44.2795 80.51C44.3896 80.4674 44.4996 80.4247 44.6096 80.3821C46.7147 79.5663 48.8051 78.7561 50.9682 78.1908L50.9682 78.1908L50.972 78.1898C51.0994 78.1543 51.2109 78.0771 51.2893 77.9709C51.3676 77.8647 51.4084 77.7356 51.4058 77.6039L51.4055 77.5928L51.4043 77.5817C50.9659 73.5639 49.7156 69.7918 48.4276 66.063C48.3456 65.8257 48.2635 65.5886 48.1815 65.3517C46.9712 61.8569 45.7704 58.3894 45.1894 54.7463L45.1869 54.7309L45.1826 54.716C45.1384 54.5638 45.0365 54.4344 44.898 54.3566C44.7619 54.2801 44.6015 54.2597 44.4507 54.2998C41.5511 54.9294 38.7379 55.9633 35.9452 56.9896C35.2446 57.247 34.5453 57.504 33.8463 57.754C30.349 59.0048 26.8465 60.0862 23.1513 60.2308ZM23.1513 60.2308C23.1524 60.2307 23.1535 60.2307 23.1546 60.2307L23.1586 60.4807M23.1513 60.2308C23.1505 60.2308 23.1497 60.2308 23.1489 60.2308L23.1586 60.4807M23.1586 60.4807C23.1468 60.4808 23.1351 60.4817 23.1235 60.4831L44.5101 54.5427C41.627 55.1681 38.8324 56.1951 36.0393 57.2214C31.841 58.7641 27.6461 60.3056 23.1586 60.4807ZM22.2298 59.8491C22.1764 59.536 22.6462 59.4118 22.7102 59.7141C22.7422 59.8653 22.7729 60.0164 22.8036 60.1676C22.8148 60.2227 22.826 60.2777 22.8372 60.3328L22.2298 59.8491ZM22.2298 59.8491C22.2895 60.1934 22.3489 60.5376 22.4084 60.8818C23.019 64.4176 23.6283 67.9457 24.4504 71.4334L22.2298 59.8491ZM46.697 64.8293C45.7884 62.466 45.0509 60.0388 44.4905 57.567L44.4894 57.5621L44.4895 57.5621C44.3396 56.8342 44.093 56.4148 43.8094 56.1809C43.53 55.9505 43.178 55.8701 42.7476 55.8994C42.3124 55.9291 41.8203 56.0696 41.2888 56.2573C41.0356 56.3467 40.778 56.4451 40.5164 56.5451L40.4822 56.5581C40.2101 56.6621 39.9337 56.7673 39.6601 56.8625M46.697 64.8293L44.7343 57.5117C44.1912 54.8735 42.3241 55.5868 40.4282 56.3111C40.144 56.4197 39.8591 56.5286 39.5779 56.6264C38.4604 57.0165 37.3509 57.4271 36.2408 57.838C35.5535 58.0924 34.8659 58.3469 34.176 58.5967M46.697 64.8293C43.4782 66.2002 40.1692 67.3431 36.7938 68.2499C36.3792 66.6541 35.999 65.0459 35.623 63.4542L35.6161 63.4252C35.2418 61.8406 34.8713 60.2722 34.4756 58.754M46.697 64.8293L34.176 58.5967M39.6601 56.8625L39.5779 56.6264L39.6603 56.8624C39.6602 56.8625 39.6602 56.8625 39.6601 56.8625ZM39.6601 56.8625C38.5441 57.252 37.4394 57.6609 36.3315 58.071C35.7147 58.2994 35.0969 58.528 34.4756 58.754M34.4756 58.754C34.4564 58.6802 34.4371 58.6066 34.4178 58.5331L34.176 58.5967M34.4756 58.754C34.4041 58.7799 34.3326 58.8059 34.2611 58.8318L34.176 58.5967M23.8856 64.4801C23.7018 63.4557 23.5185 62.4342 23.3237 61.421C26.8103 61.2653 30.0468 60.3203 33.3033 59.1781L33.3039 59.1779L33.571 59.0833C34.2678 62.2379 35.0431 65.3762 35.8968 68.4984C32.4064 69.4263 28.8601 70.1996 25.3329 70.9689C25.2822 70.9799 25.2315 70.991 25.1808 71.002C24.6698 68.8512 24.2766 66.6593 23.8856 64.4801ZM41.2496 79.4044C39.3235 76.4325 38.0842 72.9677 37.0791 69.3812C40.493 68.477 43.8408 67.3348 47.0987 65.9628C47.6007 67.3133 48.0977 68.6554 48.5429 70.0159L48.5428 70.0159L48.5445 70.0208C48.6785 70.4034 49.2616 72.2005 49.6728 73.9338C49.8789 74.8023 50.0387 75.642 50.0803 76.2764C50.1013 76.596 50.0908 76.8444 50.0508 77.0127C50.031 77.0961 50.0071 77.1459 49.9875 77.173C49.971 77.1958 49.9613 77.1982 49.9575 77.1992L49.9573 77.1992L49.9547 77.1999C48.7545 77.5183 47.5768 77.9619 46.423 78.3965C46.2128 78.4757 46.0033 78.5546 45.7947 78.6324L45.7945 78.6325C45.0992 78.8923 44.369 79.1842 43.6151 79.4855C41.1177 80.4837 38.3611 81.5854 35.7601 81.9702C34.0749 82.2195 32.483 82.1617 31.0924 81.5913C29.7089 81.0238 28.4993 79.9385 27.5902 78.0836C26.67 76.1301 25.944 74.0892 25.4228 71.991C28.9979 71.3019 32.6381 70.5546 36.205 69.622C36.3167 70.0283 36.4294 70.4351 36.5459 70.8384C36.6709 71.2742 36.7988 71.7624 36.935 72.2819C37.2136 73.3451 37.5264 74.5392 37.9182 75.6819C38.5017 77.3835 39.2802 79.0393 40.4409 80.0673C40.6591 80.2655 40.9485 80.2251 41.126 80.0955C41.2179 80.0283 41.2968 79.9271 41.3268 79.7987C41.3579 79.6655 41.3306 79.5268 41.2496 79.4044Z" fill="#262626" stroke="#262626" stroke-width="0.5"/>
</g>
<defs>
<clipPath id="clip0_209_7217">
<rect width="100" height="100" fill="white"/>
</clipPath>
</defs>
</svg>
