<svg width="100" height="100" viewBox="0 0 100 100" fill="none" xmlns="http://www.w3.org/2000/svg">
<path d="M67.5934 48.7791C69.3262 48.7791 71.1318 47.4242 70.3819 45.6357C69.4546 43.5396 68.3796 41.5028 67.1638 39.5385C67 39.2346 66.7662 38.968 66.4789 38.7579C66.1917 38.5478 65.8581 38.3992 65.502 38.3229C65.146 38.2465 64.7762 38.2442 64.4191 38.3162C64.062 38.3881 63.7263 38.5325 63.4361 38.7391C61.1864 36.7067 58.9002 34.7285 56.5413 32.7977C54.6992 31.2938 51.6632 32.6216 51.5686 34.532C50.8405 34.0375 50.1124 33.5497 49.3843 33.0891C47.1055 31.7341 43.8583 34.532 45.5328 36.6728L48.8019 40.9273C47.4986 39.9382 46.1881 38.9626 44.8339 38.0345C42.7516 36.6119 39.6864 39.4436 41.2372 41.3744C42.788 43.3052 44.2879 44.9785 45.8896 46.7467C44.7101 45.8186 43.5307 44.904 42.3293 44.0368C40.2689 42.4922 36.8907 44.4433 38.456 46.8212C41.1207 50.886 44.0185 54.7882 46.8215 58.7513C43.4433 56.4683 40.1233 54.0972 36.6795 51.8954C34.2405 50.2695 32.0563 53.5552 33.7163 55.4114C34.8157 56.6647 35.9442 57.8977 37.0872 59.1239C36.2271 58.8139 35.3498 58.547 34.4589 58.3245C32.5295 57.8503 31.1243 60.6211 33.061 61.4138C37.5386 63.3716 41.7032 65.7292 46.0425 67.9309C46.4153 68.1167 46.8356 68.2039 47.2578 68.1831C47.68 68.1623 48.0881 68.0343 48.4377 67.813C48.7873 67.5917 49.0651 67.2856 49.241 66.9278C49.4169 66.57 49.4841 66.1742 49.4353 65.7834C50.7094 66.5625 51.9981 67.3212 53.3232 68.0258C53.7809 68.262 54.3088 68.3531 54.8271 68.2854C55.3455 68.2177 55.826 67.9948 56.1961 67.6504C56.5662 67.306 56.8057 66.8589 56.8785 66.3766C56.9513 65.8943 56.8534 65.4031 56.5995 64.9772C55.0196 62.308 53.3014 59.7269 51.503 57.1728C54.6488 59.6142 57.9375 61.8917 61.3538 63.9949C63.4361 65.2617 66.079 62.7687 64.7539 60.8379C64.3243 60.2079 63.8729 59.5914 63.4215 58.9749L64.368 59.6524C64.5573 59.7811 64.7321 59.9166 64.9141 60.0453C67.5861 61.9083 69.8722 58.1416 68.1758 56.1092C66.6226 54.253 65.0815 52.3877 63.5526 50.5134C65.2854 51.2112 67.3167 50.2966 67.5934 48.7791Z" fill="#F5C362"/>
<path d="M56.8109 15.8884C56.6435 11.451 56.6289 7.01364 56.658 2.56948C56.658 -0.993968 51.1684 -0.716208 50.9791 2.56948H50.9136C50.9718 7.01364 51.314 11.4578 51.6416 15.8884C51.9474 19.5941 51.8746 24.0721 53.4691 27.5272C54.1098 28.9228 56.7454 28.5705 57.0002 27.1004C57.6846 23.5166 56.9638 19.506 56.8109 15.8884Z" fill="#F5C362"/>
<path d="M75.4713 17.2772C75.2278 16.9031 74.8611 16.612 74.4256 16.4472C73.9901 16.2824 73.5091 16.2528 73.0541 16.3627C70.2365 16.8233 69.7632 20.7188 69.1371 22.7511C68.1615 25.9149 66.6471 29.3361 66.3558 32.6285C66.1738 34.6609 69.2681 35.1826 70.3165 33.6244C72.0566 31.0365 72.8502 27.5882 73.9569 24.7293C74.8015 22.6157 76.9129 19.5061 75.4713 17.2772Z" fill="#F5C362"/>
<path d="M97.7575 27.0394C97.1631 26.9024 96.5354 26.9703 95.9907 27.2306C95.4459 27.4909 95.0209 27.926 94.7943 28.4553L94.423 28.7331C93.7283 29.1973 92.9983 29.6139 92.2387 29.9796C90.1273 31.1042 87.9067 32.0527 85.6861 33.0011C81.9875 34.5999 77.0366 35.7855 74.037 38.4208C72.4425 39.7757 74.1098 42.1943 76.1047 41.7268C81.6089 40.4261 87.135 37.933 92.3334 35.8261C94.5758 34.9251 97.8886 33.8615 99.2937 31.8562C100.59 30.0677 100.116 27.7779 97.7575 27.0394Z" fill="#F5C362"/>
<path d="M92.2457 49.4565C90.6803 47.2548 86.7269 47.8103 84.2369 47.6613L78.2813 47.3293C77.5532 47.2819 75.602 47.6003 75.2088 47.5529H75.1069C75.0465 47.5462 74.9854 47.5462 74.9249 47.5529C74.7631 47.5532 74.6041 47.5927 74.4637 47.6675C74.3233 47.7424 74.2062 47.8499 74.124 47.9797C74.0056 48.1784 73.9744 48.412 74.0368 48.6317C74.0992 48.8514 74.2505 49.0401 74.4589 49.1584C76.4466 50.3914 79.8394 50.8995 82.5769 51.4076C85.1834 51.8886 89.7193 53.6568 91.9472 51.7599C92.2684 51.4633 92.4726 51.0745 92.5268 50.6565C92.581 50.2385 92.4819 49.8157 92.2457 49.4565Z" fill="#F5C362"/>
<path d="M85.3877 65.6413C81.3469 63.216 77.3789 59.8286 72.9085 58.0672C72.5945 57.9136 72.2323 57.868 71.8857 57.9385C71.5391 58.0089 71.2303 58.1909 71.0137 58.4523C70.7971 58.7138 70.6866 59.038 70.7015 59.3678C70.7165 59.6976 70.8561 60.0119 71.0957 60.2554C73.0687 62.464 76.1921 64.1576 78.5729 65.9529C80.0291 67.0436 81.4852 68.1208 82.8758 69.3402C83.2981 69.706 83.6476 70.2548 84.0699 70.5867C84.3658 70.8296 84.677 71.0558 85.0018 71.2642C85.293 71.4403 85.3003 71.4471 85.1984 71.3658C86.7856 72.2127 89.2464 71.7384 89.0935 69.5909C88.9406 67.4433 87.0768 66.6575 85.3877 65.6413Z" fill="#F5C362"/>
<path d="M83.662 89.5489C80.655 86.4326 77.9321 83.052 75.1363 79.7731C72.4934 76.6703 70.0398 72.9985 66.88 70.2886C66.5245 69.9742 66.0597 69.7885 65.5699 69.7652C65.08 69.742 64.5974 69.8827 64.2093 70.1619C63.8213 70.4411 63.5535 70.8403 63.4544 71.2873C63.3554 71.7343 63.4315 72.1995 63.6692 72.5988C65.5549 76.1555 68.7001 79.3734 71.212 82.571C73.4302 85.3938 75.6775 88.203 77.9539 90.9987C78.4928 91.7638 79.0888 92.4928 79.7377 93.1801C82.0602 95.7206 86.0573 92.0284 83.662 89.5489Z" fill="#F5C362"/>
<path d="M53.3232 73.344C53.2699 73.1856 53.1741 73.0424 53.0447 72.9281C52.9154 72.8138 52.7568 72.7321 52.584 72.6907C52.4113 72.6493 52.23 72.6497 52.0574 72.6917C51.8848 72.7337 51.7266 72.816 51.5977 72.9308C52.071 72.5039 51.0662 73.344 50.9497 73.6624C50.761 74.2135 50.6079 74.7745 50.4911 75.3425C50.0396 77.3749 49.6756 79.4073 49.2315 81.4397C48.7874 83.4721 48.3141 85.6806 47.8336 87.8011C47.6734 88.4785 47.3749 89.095 47.1783 89.7521C47.0363 90.2746 47.0363 90.8217 47.1783 91.3442V91.3848C47.1892 91.9592 47.4188 92.5114 47.8263 92.943C48.6782 93.8914 50.1853 93.6205 51.0735 92.943C53.0539 91.3848 52.4932 86.4868 52.6607 83.7837C52.7918 81.5684 52.9446 79.3599 53.1703 77.1513C53.2577 76.2842 53.3742 75.417 53.4689 74.5567C53.4652 74.1489 53.4164 73.7425 53.3232 73.344Z" fill="#F5C362"/>
<path d="M53.3235 73.3437C53.2871 73.1682 53.2944 73.2155 53.3235 73.3437V73.3437Z" fill="#F5C362"/>
<path d="M35.4272 69.679C25.2488 74.5228 22.0088 84.9287 17.4948 93.8779C16.7152 94.7309 16.1882 95.7583 15.9659 96.8588C15.3252 100.023 20.56 101.344 21.1424 98.2137C23.0573 87.8282 29.3187 79.0889 37.2328 71.8943C38.4996 70.7223 36.9052 68.9744 35.4272 69.679Z" fill="#F5C362"/>
<path d="M24.8629 56.1837C25.8021 55.8382 24.1712 55.906 23.7344 55.933C23.0063 55.9737 22.2783 56.0618 21.5502 56.1431C19.4388 56.3802 17.3128 56.536 15.2014 56.7189C12.5731 56.9357 8.84537 56.6105 6.7194 58.3651C6.35075 58.704 6.11402 59.1475 6.04664 59.6256C5.97926 60.1036 6.08508 60.589 6.34737 61.0048C6.60966 61.4206 7.01344 61.7432 7.49486 61.9216C7.97629 62.0999 8.50787 62.1238 9.00554 61.9896C7.94256 62.1386 9.1366 62.0912 9.42054 62.1183C10.1751 62.1509 10.9311 62.0939 11.6703 61.9489C13.4686 61.6847 15.2742 61.4273 17.0726 61.1495C18.8709 60.8718 20.8003 60.5127 22.6423 60.0723C23.3806 59.9539 24.0818 59.6855 24.6959 59.2862C25.31 58.887 25.8219 58.3666 26.1953 57.7622C26.3138 57.5754 26.3689 57.3597 26.3534 57.1433C26.338 56.9269 26.2527 56.7199 26.1088 56.5493C25.9648 56.3788 25.7688 56.2526 25.5465 56.1874C25.3243 56.1221 25.086 56.1209 24.8629 56.1837Z" fill="#F5C362"/>
<path d="M25.8532 43.1494C22.6133 41.117 17.6188 40.4396 13.9639 39.1863C11.6267 38.4004 9.31148 37.5671 7.05447 36.5916C6.24165 36.2405 5.45588 35.8376 4.7028 35.3857C4.5192 35.2563 4.31857 35.1493 4.10578 35.0673C3.9949 34.6308 3.70313 34.2527 3.29402 34.0154C2.88492 33.7781 2.39162 33.7008 1.92157 33.8004C-0.124301 34.1256 -0.350003 36.0835 0.378067 37.5536C1.33912 39.4911 4.55719 40.2228 6.48657 40.8867C9.79929 42.0248 13.2212 42.9191 16.6286 43.7388C19.2132 44.4163 22.4531 45.6018 25.147 45.5002C25.4417 45.4955 25.7268 45.4023 25.96 45.2347C26.1933 45.067 26.3621 44.8338 26.4414 44.5697C26.5208 44.3056 26.5064 44.0247 26.4004 43.7688C26.2944 43.5129 26.1025 43.2957 25.8532 43.1494Z" fill="#F5C362"/>
<path d="M38.0847 31.3074C35.9005 27.6152 33.2212 24.2211 31.037 20.5289C29.7152 18.3051 28.5502 16.0037 27.5496 13.6391C26.7851 11.8371 26.4647 10.2518 25.1469 8.73431C23.8291 7.2168 21.8269 8.64624 21.6522 10.0892C21.2008 13.8288 24.6882 18.4559 26.6904 21.5248C29.2896 25.4947 32.3111 29.6544 35.9515 32.8452C36.1863 33.0603 36.4971 33.1889 36.8261 33.2071C37.1551 33.2252 37.48 33.1317 37.7405 32.9439C38.001 32.7561 38.1795 32.4867 38.2428 32.1858C38.3061 31.8848 38.2499 31.5727 38.0847 31.3074Z" fill="#F5C362"/>
<path d="M67.9282 42.3773C66.2988 39.8444 63.6662 38.0078 60.5965 37.2624C60.7359 37.0985 60.8117 36.8956 60.8117 36.6866C60.8117 36.4776 60.7359 36.2747 60.5965 36.1108C49.1149 22.4463 33.141 41.3746 32.8207 52.8441C32.362 69.1032 55.5656 71.2778 65.8823 62.4166C71.9471 57.1798 72.0199 48.6438 67.9282 42.3773ZM61.6522 63.2567C51.1535 69.74 34.3787 64.8826 34.7137 51.8685C34.9976 41.9166 49.0493 26.125 58.8564 36.9644C56.6133 36.7207 54.34 36.9424 52.2 37.6136C50.0599 38.2848 48.1062 39.3888 46.4793 40.8462C41.907 44.9245 40.1086 52.8441 44.2368 57.6405C48.547 62.6605 58.0701 59.761 60.4582 54.4971C62.6424 49.6058 60.0942 42.4925 53.0828 43.5019C47.3457 44.3284 45.2051 50.3849 51.7141 51.916C51.9198 51.9663 52.1385 51.9391 52.3228 51.8404C52.5071 51.7417 52.6421 51.5793 52.6987 51.3886C52.7552 51.1978 52.7286 50.994 52.6247 50.8213C52.5208 50.6487 52.348 50.5211 52.1436 50.4662C51.5466 49.1113 50.9423 47.7563 50.3453 46.4014C51.0276 45.8362 51.8595 45.4504 52.7552 45.2837C53.651 45.117 54.5784 45.1754 55.4418 45.453C58.223 46.0085 59.468 48.2915 59.5481 50.7033C59.7228 55.1746 55.4345 58.0131 51.1171 58.2638C42.1691 58.8193 43.1083 48.9487 46.1225 44.1048C51.6486 35.142 64.4553 37.818 68.0301 46.5572C70.6439 53.027 67.5642 59.6187 61.6522 63.2567Z" fill="#262626"/>
<path d="M57.2184 6.64801C57.1624 6.4867 57.0522 6.34636 56.9042 6.24759C56.7561 6.14883 56.5779 6.09684 56.3957 6.09926C55.6239 6.16023 55.5002 6.41767 55.1143 7.04771C55.0712 7.13465 55.0484 7.22911 55.0474 7.32484C55.0465 7.42058 55.0673 7.51542 55.1086 7.60311C55.1498 7.69081 55.2106 7.76937 55.2869 7.83362C55.3632 7.89786 55.4532 7.94633 55.5511 7.97583L55.3546 9.58142C55.2017 11.0651 55.2963 12.5961 55.2235 14.0865C55.0196 17.8329 54.4954 21.5386 54.6046 25.3121C54.6046 25.4576 54.6668 25.5972 54.7774 25.7001C54.888 25.803 55.038 25.8608 55.1944 25.8608C55.3508 25.8608 55.5008 25.803 55.6114 25.7001C55.722 25.5972 55.7841 25.4576 55.7841 25.3121C55.9953 21.559 56.4248 17.86 56.7524 14.0865C56.9636 11.8983 57.7717 8.80911 57.2184 6.64801Z" fill="#262626"/>
<path d="M28.8891 21.7622C27.8873 20.6021 27.0209 19.3463 26.3044 18.0158C25.9258 17.2841 25.671 16.4305 24.7973 16.1189C24.5898 16.0669 24.3686 16.0932 24.1818 16.1922C23.995 16.2911 23.8577 16.4547 23.7999 16.6473C23.7127 17.1028 23.7632 17.5718 23.9455 18.0022C23.967 18.0818 24.0066 18.1561 24.0618 18.22C24.117 18.2839 24.1864 18.336 24.2652 18.3727C24.344 18.4094 24.4304 18.4298 24.5185 18.4325C24.6066 18.4352 24.6942 18.4201 24.7755 18.3884C25.0376 18.8558 25.2633 19.3572 25.5036 19.7433C26.1759 20.738 26.9461 21.6724 27.8043 22.5345C30.9641 26.064 34.0511 29.5597 36.1261 33.76C36.2572 34.0242 36.7231 33.8345 36.6285 33.5635C35.0267 29.1329 31.9179 25.4408 28.8891 21.7622Z" fill="#262626"/>
<path d="M28.0521 41.8014C26.2829 41.4965 24.4118 41.6659 22.5916 41.3678C20.6112 41.0426 18.6746 40.5278 16.7161 40.1213C16.5632 40.0863 16.4016 40.1081 16.2658 40.1823C16.13 40.2564 16.0307 40.3769 15.9889 40.5182C15.9472 40.6594 15.9663 40.8103 16.0423 40.9386C16.1183 41.0669 16.2451 41.1626 16.3957 41.2052C17.2403 41.4898 18.0411 42.1537 18.8493 42.5195C18.9949 42.5805 19.1187 42.3908 18.9731 42.323C18.5133 42.1206 18.0767 41.8755 17.6698 41.5914C19.3807 42.0887 21.1183 42.5025 22.8755 42.8311C24.5137 43.1428 26.6469 43.6373 28.2196 42.9734C28.3232 42.9012 28.4043 42.8047 28.4545 42.6936C28.5047 42.5826 28.5221 42.4611 28.5051 42.3417C28.488 42.2223 28.437 42.1093 28.3574 42.0143C28.2778 41.9194 28.1724 41.8459 28.0521 41.8014Z" fill="#262626"/>
<path d="M27.12 57.9993C25.4163 57.6538 23.2612 58.2297 21.5576 58.46C20.6766 58.5752 19.7956 58.6971 18.9147 58.8394C18.5537 58.9159 18.2024 59.0271 17.8662 59.1714C17.393 59.2459 17.5459 59.8488 17.9682 59.8962C18.2397 59.9735 18.5216 60.0145 18.8054 60.0182C19.6427 59.9775 20.48 59.8691 21.31 59.7878C23.1811 59.5982 25.3071 59.7201 27.1346 59.3001C27.2854 59.2576 27.4173 59.1707 27.5105 59.0525C27.6037 58.9344 27.6532 58.7912 27.6516 58.6446C27.65 58.498 27.5973 58.3559 27.5014 58.2395C27.4055 58.1232 27.2717 58.0389 27.12 57.9993Z" fill="#262626"/>
<path d="M38.0777 67.7481C36.3012 68.2833 35.0926 70.2141 33.9495 71.5216C31.7653 73.9808 29.7559 76.5348 27.8046 79.1295C26.7781 80.4844 20.6768 87.5232 23.4362 89.2372C23.4959 89.2671 23.5627 89.2824 23.6305 89.2817C23.6983 89.2809 23.7647 89.2642 23.8237 89.2331C23.8826 89.2019 23.932 89.1574 23.9674 89.1036C24.0028 89.0498 24.0229 88.9886 24.026 88.9256C24.026 85.457 28.3216 81.1009 30.3602 78.4927C32.8574 75.2815 36.9128 72.1042 38.7912 68.6017C39.0096 68.1681 38.6092 67.572 38.0777 67.7481Z" fill="#262626"/>
<path d="M52.0347 72.5649C50.2801 73.3101 50.3601 79.0144 50.149 80.4235C49.4719 84.8134 48.7802 89.2305 47.9648 93.5798C47.8265 94.3386 49.0132 94.6773 49.2244 93.905C50.2291 90.2128 50.6805 86.3445 51.3066 82.5914C51.8163 79.6851 51.9037 76.0674 53.0394 73.2966C53.3015 72.7072 52.5225 72.3549 52.0347 72.5649Z" fill="#262626"/>
<path d="M79.6212 87.4624C75.6824 85.4301 72.8939 82.2189 70.1563 78.9332C67.8047 76.0946 65.7078 71.9147 62.6645 69.6926C62.571 69.6032 62.4456 69.549 62.3119 69.5401C62.1782 69.5312 62.0457 69.5684 61.9396 69.6446C61.8335 69.7207 61.7612 69.8305 61.7365 69.953C61.7117 70.0756 61.7362 70.2023 61.8054 70.3091C63.5309 74.1097 67.2586 77.8831 69.9525 81.1485C72.0566 83.689 75.2965 88.2009 79.0606 88.7022C79.8251 88.7835 80.3857 87.8621 79.6212 87.4624Z" fill="#262626"/>
<path d="M87.0839 66.5219C86.1899 66.1565 85.2545 65.8861 84.2954 65.7158C82.9585 65.3531 81.6517 64.9003 80.3856 64.3608C79.6575 64.0492 77.5898 62.4436 76.7453 63.0533C76.454 63.2566 76.6652 63.6495 76.9346 63.7308L77.2986 63.8663C77.9029 64.1576 78.7111 64.8486 79.177 65.0993C79.9636 65.5075 80.7756 65.8717 81.6088 66.19C83.1304 66.7658 85.1108 67.6939 86.7926 67.4839C87.3096 67.4501 87.6372 66.8065 87.0839 66.5219Z" fill="#262626"/>
<path d="M88.8459 49.3008C88.0742 49.0502 87.0913 49.3482 86.2904 49.4092C85.0163 49.5108 83.7276 49.565 82.4462 49.6192C80.7571 49.6938 78.9952 49.9512 77.3497 50.0054C76.9274 50.0054 76.9202 50.6354 77.3497 50.6219C79.1772 50.6693 81.0629 50.8861 82.9413 50.8725C84.5795 50.8725 87.7757 51.3264 89.1299 50.2967C89.574 49.9918 89.2682 49.4566 88.8459 49.3008Z" fill="#262626"/>
<path d="M97.4879 31.7276C97.3204 32.3103 94.896 33.1639 94.379 33.4078C91.8643 34.5183 89.2882 35.5043 86.6615 36.3615C82.6717 37.7164 78.3251 39.3288 74.0586 39.6946C73.908 39.6946 73.7636 39.7503 73.6571 39.8494C73.5506 39.9485 73.4907 40.0829 73.4907 40.223C73.4907 40.3632 73.5506 40.4976 73.6571 40.5967C73.7636 40.6958 73.908 40.7514 74.0586 40.7514C79.3298 40.7853 85.118 38.4074 89.9815 36.768C91.6997 36.1921 99.1042 34.4104 98.7183 31.8902C98.6747 31.2602 97.6918 31.0163 97.4879 31.7276Z" fill="#262626"/>
<path d="M75.6679 22.2227C74.0006 23.0221 72.7556 25.1697 71.6053 26.5246C71.0156 27.2359 68.4455 29.6342 69.0862 30.7181C69.2827 31.05 69.8142 30.7587 69.6249 30.4268C70.1398 29.9509 70.6259 29.4488 71.0811 28.9228C71.9111 28.0015 72.7411 27.0937 73.6002 26.213C74.5904 25.1764 75.981 24.1806 76.5125 22.8257C76.6945 22.3582 76.0756 22.0262 75.6679 22.2227Z" fill="#262626"/>
</svg>
