<svg width="120" height="67" viewBox="0 0 120 67" fill="none" xmlns="http://www.w3.org/2000/svg">
<path d="M14.7285 1.3916C6.59861 1.3916 0 7.9902 0 16.1201C0 24.2501 6.59861 30.8487 14.7285 30.8487C22.8585 30.8487 29.4571 24.2501 29.4571 16.1201C29.4571 7.9902 22.8585 1.3916 14.7285 1.3916ZM14.7285 21.1317C11.9722 21.1317 9.74478 18.9044 9.74478 16.148C9.74478 13.3916 11.9722 11.1642 14.7285 11.1642C17.4849 11.1642 19.7123 13.3916 19.7123 16.148C19.7123 18.8765 17.4849 21.1317 14.7285 21.1317Z" fill="#FFD583"/>
<path d="M14.7285 2.78371C22.0789 2.78371 28.065 8.76978 28.065 16.1201C28.065 23.4705 22.0789 29.4566 14.7285 29.4566C7.37819 29.4566 1.39211 23.4705 1.39211 16.1201C1.39211 8.76978 7.37819 2.78371 14.7285 2.78371ZM14.7285 22.5238C18.2645 22.5238 21.1044 19.6561 21.1044 16.148C21.1044 12.6399 18.2367 9.77211 14.7285 9.77211C11.1926 9.77211 8.35267 12.6399 8.35267 16.148C8.35267 19.6561 11.1926 22.5238 14.7285 22.5238ZM14.7285 1.3916C6.59861 1.3916 0 7.9902 0 16.1201C0 24.2501 6.59861 30.8487 14.7285 30.8487C22.8585 30.8487 29.4571 24.2501 29.4571 16.1201C29.4571 7.9902 22.8585 1.3916 14.7285 1.3916ZM14.7285 21.1317C11.9722 21.1317 9.74478 18.9044 9.74478 16.148C9.74478 13.3916 11.9722 11.1642 14.7285 11.1642C17.4849 11.1642 19.7123 13.3916 19.7123 16.148C19.7123 18.9044 17.4849 21.1317 14.7285 21.1317Z" fill="#60A2D1"/>
<path d="M115.1 19.0436C114.014 19.0436 112.984 19.4055 112.176 20.018C111.313 20.7141 110.228 21.1039 109.058 21.1039C106.302 21.1039 104.074 18.8765 104.074 16.1201C104.074 13.3637 106.302 11.1364 109.058 11.1364C110.228 11.1364 111.313 11.554 112.149 12.2222C112.956 12.8347 113.986 13.2245 115.1 13.2245C117.801 13.2245 119.972 11.0529 119.972 8.35215C119.972 6.87652 119.304 5.54008 118.246 4.64913C115.712 2.61664 112.538 1.41943 109.03 1.41943C100.9 1.41943 94.3018 8.01805 94.3018 16.148C94.3018 24.2779 100.9 30.8765 109.03 30.8765C112.455 30.8765 115.601 29.7071 118.107 27.7303C118.135 27.7025 118.163 27.6747 118.19 27.6468C118.218 27.619 118.246 27.619 118.274 27.5911C119.304 26.7002 119.972 25.3916 119.972 23.9159C119.972 21.2431 117.773 19.0436 115.1 19.0436Z" fill="#FFD583"/>
<path d="M109.058 2.78371C112.037 2.78371 114.849 3.75819 117.215 5.56794L117.355 5.67929C118.134 6.34751 118.58 7.29414 118.58 8.32431C118.58 10.2454 117.021 11.8046 115.099 11.8046C114.348 11.8046 113.624 11.554 113.011 11.0807L111.953 10.2733L111.87 10.3568C111.007 9.93915 110.06 9.71642 109.058 9.71642C105.522 9.71642 102.682 12.5842 102.682 16.0923C102.682 19.6004 105.55 22.4682 109.058 22.4682C109.837 22.4682 110.589 22.3289 111.313 22.0505L111.396 22.3289L113.039 21.1039C113.652 20.6584 114.376 20.4078 115.127 20.4078C117.048 20.4078 118.608 21.967 118.608 23.8881C118.608 24.8904 118.162 25.8371 117.41 26.5053L117.355 26.561C117.327 26.561 117.327 26.5888 117.299 26.5888C114.932 28.4542 112.092 29.4287 109.085 29.4287C101.735 29.4287 95.749 23.4426 95.749 16.0923C95.749 8.74195 101.679 2.78371 109.058 2.78371ZM109.058 1.3916C100.928 1.3916 94.3291 7.9902 94.3291 16.1201C94.3291 24.2501 100.928 30.8487 109.058 30.8487C112.482 30.8487 115.628 29.6793 118.134 27.7025C118.162 27.6747 118.19 27.6468 118.218 27.619C118.246 27.5911 118.273 27.5911 118.301 27.5633C119.331 26.6723 120 25.3638 120 23.8881C120 21.2153 117.828 19.0157 115.127 19.0157C114.041 19.0157 113.011 19.3777 112.204 19.9902C111.341 20.6863 110.255 21.076 109.085 21.076C106.329 21.076 104.102 18.8487 104.102 16.0923C104.102 13.3359 106.329 11.1085 109.085 11.1085C110.255 11.1085 111.341 11.5262 112.176 12.1944C112.983 12.8069 114.014 13.1967 115.127 13.1967C117.828 13.1967 120 11.025 120 8.32431C120 6.84867 119.331 5.51224 118.273 4.62129C115.74 2.61665 112.538 1.3916 109.058 1.3916Z" fill="#60A2D1"/>
<path d="M78.3197 16.1201C78.3197 7.9902 71.721 1.3916 63.5911 1.3916C61.6978 1.3916 59.8603 1.75354 58.1897 2.42175C57.3545 1.78138 56.3243 1.3916 55.2106 1.3916C54.0969 1.3916 53.0389 1.78138 52.2315 2.42175C50.561 1.75354 48.7512 1.3916 46.8301 1.3916C38.7002 1.3916 32.1016 7.9902 32.1016 16.1201C32.1016 24.2501 38.7002 30.8487 46.8301 30.8487C48.7234 30.8487 50.561 30.4867 52.2315 29.8185C53.0668 30.4589 54.0969 30.8487 55.2106 30.8487C56.3243 30.8487 57.3823 30.4589 58.1897 29.8185C59.8603 30.4867 61.67 30.8487 63.5911 30.8487C71.721 30.8487 78.3197 24.2501 78.3197 16.1201ZM46.8023 21.1317C44.0459 21.1317 41.8185 18.9044 41.8185 16.148C41.8185 13.3916 44.0459 11.1642 46.8023 11.1642C49.5586 11.1642 51.786 13.3916 51.786 16.148C51.8139 18.8765 49.5586 21.1317 46.8023 21.1317ZM58.5795 16.1201C58.5795 13.3637 60.8069 11.1364 63.5633 11.1364C66.3197 11.1364 68.547 13.3637 68.547 16.1201C68.547 18.8765 66.3197 21.1039 63.5633 21.1039C60.8069 21.1317 58.5795 18.8765 58.5795 16.1201Z" fill="#FFD583"/>
<path d="M63.5911 2.78371C70.9415 2.78371 76.9275 8.76978 76.9275 16.1201C76.9275 23.4705 70.9415 29.4566 63.5911 29.4566C61.8927 29.4566 60.2501 29.1503 58.6909 28.5378L57.967 28.2593L57.3266 28.7327C56.7141 29.206 55.9624 29.4566 55.1828 29.4566C54.4032 29.4566 53.6793 29.206 53.0389 28.7327L52.3986 28.2593L51.6746 28.5378C50.1155 29.1503 48.4728 29.4566 46.7744 29.4566C39.4241 29.4566 33.438 23.4705 33.438 16.1201C33.438 8.76978 39.4241 2.78371 46.7744 2.78371C48.4728 2.78371 50.1155 3.08997 51.6746 3.7025L52.3986 3.98093L53.0389 3.5076C53.6514 3.03429 54.4032 2.78371 55.1828 2.78371C55.9624 2.78371 56.6862 3.03429 57.3266 3.5076L57.967 3.98093L58.6909 3.7025C60.2501 3.08997 61.8927 2.78371 63.5911 2.78371ZM63.5911 22.5238C67.1271 22.5238 69.967 19.6561 69.967 16.148C69.967 12.612 67.0992 9.77211 63.5911 9.77211C60.0551 9.77211 57.2153 12.6399 57.2153 16.148C57.1874 19.6561 60.0551 22.5238 63.5911 22.5238ZM46.8023 22.5238C50.3382 22.5238 53.1781 19.6561 53.1781 16.148C53.1781 12.612 50.3104 9.77211 46.8023 9.77211C43.2663 9.77211 40.4264 12.6399 40.4264 16.148C40.4264 19.6561 43.2941 22.5238 46.8023 22.5238ZM63.5911 1.3916C61.6978 1.3916 59.8603 1.75354 58.1897 2.42175C57.3545 1.78138 56.3243 1.3916 55.2106 1.3916C54.0969 1.3916 53.0389 1.78138 52.2315 2.42175C50.561 1.75354 48.7512 1.3916 46.8301 1.3916C38.7002 1.3916 32.1016 7.9902 32.1016 16.1201C32.1016 24.2501 38.7002 30.8487 46.8301 30.8487C48.7234 30.8487 50.561 30.4867 52.2315 29.8185C53.0668 30.4589 54.0969 30.8487 55.2106 30.8487C56.3243 30.8487 57.3823 30.4589 58.1897 29.8185C59.8603 30.4867 61.67 30.8487 63.5911 30.8487C71.721 30.8487 78.3197 24.2501 78.3197 16.1201C78.3197 7.9902 71.721 1.3916 63.5911 1.3916ZM63.5911 21.1317C60.8347 21.1317 58.6074 18.9044 58.6074 16.148C58.6074 13.3916 60.8347 11.1642 63.5911 11.1642C66.3475 11.1642 68.5749 13.3916 68.5749 16.148C68.5749 18.9044 66.3475 21.1317 63.5911 21.1317ZM46.8023 21.1317C44.0459 21.1317 41.8185 18.9044 41.8185 16.148C41.8185 13.3916 44.0459 11.1642 46.8023 11.1642C49.5586 11.1642 51.786 13.3916 51.786 16.148C51.786 18.9044 49.5586 21.1317 46.8023 21.1317Z" fill="#60A2D1"/>
<path d="M91.712 16.1201C91.712 12.3893 91.4892 8.85332 91.1273 5.70715C90.8489 3.28487 88.8164 1.3916 86.3106 1.3916C83.8326 1.3916 81.7723 3.25702 81.4939 5.67929C81.4939 5.70714 81.4939 5.73498 81.4939 5.76282C81.1319 8.90899 80.9092 12.4171 80.9092 16.1201C80.9092 19.8231 81.1319 23.3034 81.4939 26.4496C81.7166 28.9276 83.7769 30.8487 86.3106 30.8487C88.8164 30.8487 90.9045 28.9276 91.1273 26.4774C91.5171 23.3313 91.712 19.8231 91.712 16.1201Z" fill="#FFD583"/>
<path d="M86.3106 2.78371C88.0646 2.78371 89.5403 4.0923 89.7352 5.84636L89.9301 7.57256C90.1806 10.3011 90.3198 13.141 90.3198 16.0923C90.3198 19.6561 90.125 23.0807 89.7352 26.2825V26.3104V26.3382C89.5681 28.1201 88.0925 29.4566 86.3106 29.4566C84.5287 29.4566 83.053 28.1201 82.886 26.3104V26.2825V26.2547C82.4962 23.0529 82.3013 19.6283 82.3013 16.0923C82.3013 12.5285 82.4962 9.10388 82.886 5.90203V5.84636V5.81851V5.79067C83.1087 4.09229 84.5565 2.78371 86.3106 2.78371ZM86.3106 1.3916C83.8326 1.3916 81.7723 3.25702 81.4939 5.67929C81.4939 5.70714 81.4939 5.73498 81.4939 5.76282C81.1319 8.90899 80.9092 12.4171 80.9092 16.1201C80.9092 19.8231 81.1319 23.3034 81.4939 26.4496C81.7166 28.9276 83.7769 30.8487 86.3106 30.8487C88.8164 30.8487 90.9045 28.9276 91.1273 26.4774C91.4892 23.3313 91.712 19.8231 91.712 16.1201C91.712 12.3893 91.4892 8.85332 91.1273 5.70715C90.8489 3.28487 88.8164 1.3916 86.3106 1.3916Z" fill="#60A2D1"/>
<path d="M107.415 41.2064C106.803 41.2064 106.19 41.2621 105.578 41.3456C105.522 40.928 105.494 40.5103 105.438 40.0927C105.16 37.5591 103.016 35.6101 100.427 35.6101C97.8375 35.6101 95.6937 37.5591 95.4153 40.0927C95.4153 40.1206 95.4153 40.1484 95.4153 40.1762C95.0255 43.4616 94.8027 47.1089 94.8027 50.979C94.8027 54.8212 95.0255 58.4686 95.4153 61.7539C95.638 64.3154 97.8097 66.3479 100.427 66.3479C101.401 66.3479 102.32 66.0695 103.1 65.5962C104.436 66.0973 105.912 66.3479 107.415 66.3479C114.348 66.3479 119.972 60.7238 119.972 53.7911C119.972 46.8305 114.348 41.2064 107.415 41.2064ZM107.415 58.0231C105.077 58.0231 103.155 56.1298 103.155 53.7632C103.155 51.4245 105.049 49.5034 107.415 49.5034C109.782 49.5034 111.675 51.3967 111.675 53.7632C111.675 56.1298 109.754 58.0231 107.415 58.0231Z" fill="#FFA857"/>
<path d="M100.427 37.0022C102.292 37.0022 103.851 38.3943 104.046 40.2598L104.241 42.1252L104.325 42.9605L105.773 42.7377C106.329 42.6542 106.858 42.6264 107.415 42.6264C113.568 42.6264 118.58 47.6379 118.58 53.7911C118.58 59.9442 113.568 64.9558 107.415 64.9558C106.107 64.9558 104.798 64.7331 103.573 64.2876L102.933 64.0649L102.348 64.4268C101.763 64.7888 101.095 64.9837 100.427 64.9837C98.5336 64.9837 96.9744 63.5637 96.8074 61.6704V61.6426V61.6147C96.4176 58.2737 96.1948 54.7099 96.1948 51.0069C96.1948 47.3038 96.3897 43.74 96.7795 40.399V40.2876C97.0023 38.3943 98.5614 37.0022 100.427 37.0022ZM107.415 59.4152C110.534 59.4152 113.067 56.8816 113.067 53.7632C113.067 50.6449 110.534 48.1113 107.415 48.1113C104.297 48.1113 101.763 50.6449 101.763 53.7632C101.763 56.8816 104.297 59.4152 107.415 59.4152ZM100.427 35.6101C97.8375 35.6101 95.6937 37.5591 95.4153 40.0927C95.4153 40.1206 95.4153 40.1484 95.4153 40.1762C95.0255 43.4616 94.8027 47.1089 94.8027 50.979C94.8027 54.8212 95.0255 58.4686 95.4153 61.7539C95.638 64.3154 97.8097 66.3479 100.427 66.3479C101.401 66.3479 102.32 66.0695 103.1 65.5962C104.436 66.0973 105.912 66.3479 107.415 66.3479C114.348 66.3479 119.972 60.7238 119.972 53.7911C119.972 46.8584 114.348 41.2342 107.415 41.2342C106.803 41.2342 106.19 41.2899 105.578 41.3735C105.522 40.9558 105.494 40.5382 105.438 40.1206C105.16 37.5869 103.016 35.6101 100.427 35.6101ZM107.415 58.0231C105.077 58.0231 103.155 56.1298 103.155 53.7632C103.155 51.4245 105.049 49.5034 107.415 49.5034C109.782 49.5034 111.675 51.3967 111.675 53.7632C111.675 56.1298 109.754 58.0231 107.415 58.0231Z" fill="#FFA857"/>
<path d="M53.2348 35.6101C52.2325 35.6101 51.2858 35.9164 50.4784 36.4175C49.0863 35.8885 47.5828 35.6101 46.0236 35.6101C39.0909 35.6101 33.4668 41.2342 33.4668 48.167C33.4668 52.2041 35.3879 55.7957 38.3392 58.1066C36.8635 58.8027 35.8612 60.2783 35.8612 62.0045C35.8612 64.399 37.8102 66.3201 40.2046 66.3201C42.1814 66.3201 43.7963 64.7052 44.3531 63.2296C44.91 61.754 45.606 60.6681 48.1118 60.6681C48.1397 61.0579 48.251 61.8375 48.251 61.8375C48.5294 64.3711 50.6733 66.3201 53.2626 66.3201C55.8519 66.3201 57.9958 64.3711 58.2742 61.8375C58.2742 61.8096 58.2742 61.7818 58.2742 61.7539C58.664 58.4686 58.8868 54.8212 58.8868 50.9512C58.8868 47.109 58.664 43.4616 58.2742 40.1762C58.0515 37.6426 55.8798 35.6101 53.2348 35.6101ZM46.0236 43.9071C48.3624 43.9071 50.2835 45.8004 50.2835 48.167C50.2835 50.5057 48.3902 52.4268 46.0236 52.4268C43.6849 52.4268 41.7638 50.5335 41.7638 48.167C41.7916 45.8282 43.6849 43.9071 46.0236 43.9071Z" fill="#FFA857"/>
<path d="M53.2348 37.0022C55.1281 37.0022 56.6872 38.4222 56.8543 40.3154V40.3433V40.3711C57.2441 43.7122 57.4668 47.276 57.4668 50.979C57.4668 54.682 57.2719 58.2458 56.8821 61.5869V61.6983C56.6872 63.5359 55.128 64.928 53.2626 64.928C51.3972 64.928 49.838 63.5359 49.6431 61.6704L49.5039 60.4175L49.3926 59.2481H48.1397C44.8543 59.2481 43.7684 60.9187 43.0724 62.7284C42.6547 63.8143 41.4854 64.928 40.2325 64.928C38.6176 64.928 37.2812 63.6194 37.2812 62.0045C37.2812 60.8908 37.9494 59.8328 38.9796 59.3595L41.0399 58.385L39.258 56.9929C36.5016 54.8491 34.9146 51.6472 34.9146 48.167C34.9146 42.0138 39.9262 37.0022 46.0793 37.0022C47.4436 37.0022 48.78 37.2528 50.0329 37.7261L50.7011 37.9767L51.2858 37.5869C51.8427 37.1971 52.5387 37.0022 53.2348 37.0022ZM46.0236 53.8189C49.142 53.8189 51.6756 51.2853 51.6756 48.167C51.6756 45.0486 49.142 42.515 46.0236 42.515C42.9053 42.515 40.3717 45.0486 40.3717 48.167C40.3995 51.2853 42.9332 53.8189 46.0236 53.8189ZM53.2348 35.6101C52.2325 35.6101 51.2858 35.9164 50.4784 36.4175C49.0863 35.8885 47.5828 35.6101 46.0236 35.6101C39.0909 35.6101 33.4668 41.2342 33.4668 48.167C33.4668 52.2041 35.3879 55.7957 38.3392 58.1066C36.8635 58.8027 35.8612 60.2783 35.8612 62.0045C35.8612 64.399 37.8102 66.3201 40.2046 66.3201C42.1814 66.3201 43.7963 64.7052 44.3531 63.2296C44.91 61.754 45.606 60.6681 48.1118 60.6681C48.1397 61.0579 48.251 61.8375 48.251 61.8375C48.5294 64.3711 50.6733 66.3201 53.2626 66.3201C55.8519 66.3201 57.9958 64.3711 58.2742 61.8375C58.2742 61.8096 58.2742 61.7818 58.2742 61.7539C58.664 58.4686 58.8868 54.8212 58.8868 50.9512C58.8868 47.109 58.664 43.4616 58.2742 40.1762C58.0515 37.6426 55.8798 35.6101 53.2348 35.6101ZM46.0236 52.4268C43.6849 52.4268 41.7638 50.5335 41.7638 48.167C41.7638 45.8282 43.6571 43.9071 46.0236 43.9071C48.3902 43.9071 50.2835 45.8004 50.2835 48.167C50.2835 50.5335 48.3902 52.4268 46.0236 52.4268Z" fill="#FFA857"/>
<path d="M28.0928 40.0927C27.8144 37.5591 25.6705 35.6101 23.0812 35.6101C20.4919 35.6101 18.348 37.5591 18.0696 40.0927C18.0696 40.0927 17.7633 43.0718 17.652 44.6031C17.4571 46.2737 16.065 47.5823 14.3387 47.5823C12.6404 47.5823 11.2483 46.3294 11.0534 44.6867L10.6357 40.1206C10.3573 37.5869 8.21345 35.638 5.62412 35.638C3.0348 35.638 0.890946 37.5869 0.612524 40.1206C0.612524 40.1484 0 47.1368 0 51.0069C0 54.8491 0.222733 58.4964 0.612524 61.7818C0.835262 64.3433 3.00696 66.3758 5.62412 66.3758C8.24129 66.3758 10.413 64.3711 10.6357 61.8097C10.8028 60.5011 10.9141 59.1368 11.0255 57.7168C11.1369 55.9906 12.5847 54.5985 14.3387 54.5985C16.1206 54.5985 17.5684 55.9906 17.6798 57.7447C17.7912 59.1368 17.9025 60.4732 18.0696 61.7818C18.2923 64.3433 20.464 66.3758 23.0812 66.3758C25.6984 66.3758 27.8701 64.3711 28.0928 61.8097C28.4826 58.5243 28.7053 54.8769 28.7053 51.0069C28.7053 47.0811 28.0928 40.0927 28.0928 40.0927Z" fill="#FFA857"/>
<path d="M23.0812 37.0022C24.9466 37.0022 26.5058 38.3943 26.7007 40.2319C26.7285 40.5103 27.3132 47.2482 27.3132 50.9512C27.3132 54.6542 27.1183 58.2458 26.7007 61.5869V61.6147V61.6426C26.5336 63.5359 24.9745 64.9558 23.0812 64.9558C21.1879 64.9558 19.6288 63.5359 19.4617 61.6426V61.6147V61.5869C19.3225 60.334 19.1833 58.9976 19.0998 57.6333C18.9605 55.1275 16.9002 53.1786 14.3944 53.1786C12.3619 53.1786 10.6079 54.4593 9.93967 56.2969H9.74478L9.66125 57.6055C9.57772 58.9976 9.43851 60.3618 9.2993 61.6147V61.6426V61.6704C9.13225 63.5637 7.57308 64.9837 5.67981 64.9837C3.78654 64.9837 2.22738 63.5637 2.06032 61.6704V61.6426V61.6147C1.67053 58.2737 1.44779 54.7099 1.44779 51.0069C1.44779 47.3038 2.03248 40.5939 2.06032 40.2598C2.28306 38.4222 3.84223 37.0301 5.67981 37.0301C7.54524 37.0301 9.10441 38.4222 9.2993 40.2598C9.32714 40.4268 9.4942 42.2922 9.60557 43.6008L9.68909 44.4918C9.68909 44.6032 9.71694 44.7424 9.74478 44.9094C10.051 47.2482 12.0557 49.0301 14.4223 49.0301C16.8167 49.0301 18.8492 47.2203 19.0998 44.8259V44.798V44.7702C19.1833 43.2946 19.4895 40.4268 19.5174 40.3155C19.6566 38.3943 21.2158 37.0022 23.0812 37.0022ZM23.0812 35.6101C20.4919 35.6101 18.348 37.5591 18.0696 40.0927C18.0696 40.0927 17.7633 43.0718 17.652 44.6031C17.4571 46.2737 16.065 47.5823 14.3387 47.5823C12.6404 47.5823 11.2483 46.3294 11.0534 44.6867L10.6357 40.1206C10.3573 37.5869 8.21345 35.638 5.62412 35.638C3.0348 35.638 0.890946 37.5869 0.612524 40.1206C0.612524 40.1484 0 47.1368 0 51.0069C0 54.8491 0.222733 58.4964 0.612524 61.7818C0.835262 64.3433 3.00696 66.3758 5.62412 66.3758C8.24129 66.3758 10.413 64.3711 10.6357 61.8097C10.8028 60.5011 10.9141 59.1368 11.0255 57.7168C11.1369 55.9906 12.5847 54.5985 14.3387 54.5985C16.1206 54.5985 17.5684 55.9906 17.6798 57.7447C17.7912 59.1368 17.9025 60.4732 18.0696 61.7818C18.2923 64.3433 20.464 66.3758 23.0812 66.3758C25.6984 66.3758 27.8701 64.3711 28.0928 61.8097C28.4826 58.5243 28.7053 54.8769 28.7053 51.0069C28.7053 47.1089 28.0928 40.1484 28.0928 40.1484C27.8144 37.5869 25.6705 35.6101 23.0812 35.6101Z" fill="#FFA857"/>
<path d="M91.2114 40.0927C90.933 37.5591 88.7892 35.6101 86.1998 35.6101C83.6105 35.6101 81.4667 37.5591 81.1882 40.0927C81.1882 40.1206 81.1882 40.1484 81.1882 40.1762C81.0212 41.5962 80.882 43.0718 80.7985 44.6031C80.6036 46.2737 79.2114 47.5823 77.4852 47.5823C75.7869 47.5823 74.3947 46.3294 74.1999 44.6867C74.1999 44.6867 73.9493 41.5683 73.7822 40.1206C73.5038 37.5869 71.3599 35.638 68.7706 35.638C66.1813 35.638 64.0374 37.5869 63.759 40.1206C63.759 40.1484 63.759 40.1762 63.759 40.2041C63.3692 43.4895 63.1465 47.1368 63.1465 51.0069C63.1465 54.8491 63.3692 58.4964 63.759 61.7818C63.9818 64.3433 66.1534 66.3758 68.7706 66.3758C71.3878 66.3758 73.5595 64.3711 73.7822 61.8097C73.9493 60.5011 74.0606 59.1368 74.172 57.7168C74.2834 55.9906 75.7312 54.5985 77.4852 54.5985C79.2671 54.5985 80.7149 55.9906 80.8263 57.7447C80.9377 59.1368 81.049 60.4732 81.2161 61.7818C81.4388 64.3433 83.6105 66.3758 86.2277 66.3758C88.8449 66.3758 91.0166 64.3711 91.2393 61.8097C91.6291 58.5243 91.8518 54.8769 91.8518 51.0069C91.824 47.0811 91.6012 43.4059 91.2114 40.0927Z" fill="#FFA857"/>
<path d="M86.1998 37.0022C88.0653 37.0022 89.6244 38.3943 89.8193 40.2598L90.0142 42.0695C90.2927 44.9094 90.4319 47.8885 90.4319 50.979C90.4319 54.682 90.237 58.2737 89.8193 61.6147V61.6426V61.6704C89.6523 63.5637 88.0931 64.9837 86.1998 64.9837C84.3066 64.9837 82.7474 63.5637 82.5804 61.6704V61.6426V61.6147C82.4411 60.3618 82.3019 59.0254 82.2184 57.6612C82.0792 55.1554 80.0189 53.2064 77.5131 53.2064C75.4806 53.2064 73.7265 54.4871 73.0583 56.3247H72.8634L72.7799 57.6333C72.6964 59.0254 72.5572 60.3897 72.4179 61.6426V61.6704V61.6983C72.2509 63.5915 70.6917 65.0115 68.7985 65.0115C66.9052 65.0115 65.346 63.5915 65.179 61.6983V61.6704V61.6426C64.7892 58.3015 64.5664 54.7377 64.5664 51.0347C64.5664 47.3317 64.7613 43.7679 65.1511 40.4268V40.3155C65.346 38.4779 66.9052 37.0857 68.7706 37.0857C70.636 37.0857 72.1952 38.4779 72.3901 40.3433L72.5015 41.3456C72.6407 42.6264 72.7521 44.269 72.8077 44.8537C72.8077 44.8816 72.8077 44.9373 72.8077 44.9651C73.114 47.3039 75.1186 49.0857 77.4852 49.0857C79.8797 49.0857 81.9121 47.276 82.1627 44.8816V44.8537V44.8259C82.2741 43.3224 82.3855 41.8746 82.5525 40.5103L82.5804 40.3711C82.7752 38.3943 84.3344 37.0022 86.1998 37.0022ZM86.1998 35.6101C83.6105 35.6101 81.4667 37.5591 81.1882 40.0927C81.1882 40.1206 81.1882 40.1484 81.1882 40.1762C81.0212 41.5962 80.882 43.0718 80.7985 44.6031C80.6036 46.2737 79.2114 47.5823 77.4852 47.5823C75.7869 47.5823 74.3947 46.3294 74.1999 44.6867C74.1999 44.6867 73.9493 41.5683 73.7822 40.1206C73.5038 37.5869 71.3599 35.638 68.7706 35.638C66.1813 35.638 64.0374 37.5869 63.759 40.1206C63.759 40.1484 63.759 40.1762 63.759 40.2041C63.3692 43.4895 63.1465 47.1368 63.1465 51.0069C63.1465 54.8491 63.3692 58.4964 63.759 61.7818C63.9818 64.3433 66.1534 66.3758 68.7706 66.3758C71.3878 66.3758 73.5595 64.3711 73.7822 61.8097C73.9493 60.5011 74.0606 59.1368 74.172 57.7168C74.2834 55.9906 75.7312 54.5985 77.4852 54.5985C79.2671 54.5985 80.7149 55.9906 80.8263 57.7447C80.9377 59.1368 81.049 60.4732 81.2161 61.7818C81.4388 64.3433 83.6105 66.3758 86.2277 66.3758C88.8449 66.3758 91.0166 64.3711 91.2393 61.8097C91.6291 58.5243 91.8518 54.8769 91.8518 51.0069C91.8518 47.1089 91.6291 43.4338 91.2393 40.1484C90.933 37.5869 88.7892 35.6101 86.1998 35.6101Z" fill="#FFA857"/>
<path d="M14.7285 0C6.59861 0 0 6.5986 0 14.7285C0 22.8585 6.59861 29.4571 14.7285 29.4571C22.8585 29.4571 29.4571 22.8585 29.4571 14.7285C29.4571 6.5986 22.8585 0 14.7285 0ZM14.7285 19.7401C11.9722 19.7401 9.74478 17.5128 9.74478 14.7564C9.74478 12 11.9722 9.77261 14.7285 9.77261C17.4849 9.77261 19.7123 12 19.7123 14.7564C19.7123 17.4849 17.4849 19.7401 14.7285 19.7401Z" fill="#62E7F4"/>
<path d="M14.7285 0.556845C22.5522 0.556845 28.9002 6.90486 28.9002 14.7285C28.9002 22.5522 22.5522 28.9002 14.7285 28.9002C6.90487 28.9002 0.556845 22.5522 0.556845 14.7285C0.556845 6.90486 6.90487 0.556845 14.7285 0.556845ZM14.7285 20.297C17.7912 20.297 20.2691 17.819 20.2691 14.7564C20.2691 11.6937 17.7912 9.21577 14.7285 9.21577C11.6659 9.21577 9.18793 11.6937 9.18793 14.7564C9.18793 17.819 11.6659 20.297 14.7285 20.297ZM14.7285 0C6.59861 0 0 6.5986 0 14.7285C0 22.8585 6.59861 29.4571 14.7285 29.4571C22.8585 29.4571 29.4571 22.8585 29.4571 14.7285C29.4571 6.5986 22.8585 0 14.7285 0ZM14.7285 19.7401C11.9722 19.7401 9.74478 17.5128 9.74478 14.7564C9.74478 12 11.9722 9.77261 14.7285 9.77261C17.4849 9.77261 19.7123 12 19.7123 14.7564C19.7123 17.5128 17.4849 19.7401 14.7285 19.7401Z" fill="#60A2D1"/>
<path d="M115.111 17.6221C114.027 17.6221 113 17.984 112.194 18.5964C111.333 19.2924 110.25 19.6821 109.084 19.6821C106.334 19.6821 104.112 17.455 104.112 14.699C104.112 11.9429 106.334 9.7158 109.084 9.7158C110.25 9.7158 111.333 10.1334 112.167 10.8015C112.972 11.414 114 11.8037 115.111 11.8037C117.805 11.8037 119.971 9.63228 119.971 6.9319C119.971 5.45644 119.304 4.12016 118.249 3.22931C115.722 1.19707 112.555 0 109.056 0C100.946 0 94.3633 6.59784 94.3633 14.7268C94.3633 22.8558 100.946 29.4536 109.056 29.4536C112.472 29.4536 115.611 28.2844 118.11 26.3078C118.138 26.28 118.166 26.2521 118.193 26.2243C118.221 26.1965 118.249 26.1965 118.277 26.1686C119.304 25.2778 119.971 23.9693 119.971 22.4939C119.971 19.8213 117.777 17.6221 115.111 17.6221Z" fill="#62E7F4"/>
<path d="M109.058 0.556845C112.232 0.556845 115.239 1.58699 117.744 3.53595L117.911 3.67516C118.886 4.51043 119.443 5.67981 119.443 6.96056C119.443 9.32715 117.494 11.2761 115.127 11.2761C114.181 11.2761 113.29 10.9698 112.51 10.3851L112.092 10.0789L112.065 10.1067C111.174 9.52204 110.143 9.21577 109.058 9.21577C105.995 9.21577 103.517 11.6937 103.517 14.7564C103.517 17.819 105.995 20.297 109.058 20.297C110.032 20.297 111.007 20.0464 111.842 19.5452V19.6009L112.51 19.0998C113.262 18.5429 114.153 18.2367 115.099 18.2367C117.466 18.2367 119.415 20.1578 119.415 22.5522C119.415 23.8051 118.858 24.9745 117.911 25.8097L117.828 25.8654C117.828 25.8654 117.8 25.8654 117.8 25.8933L117.744 25.9211C115.239 27.8979 112.204 28.9281 109.03 28.9281C101.206 28.9281 94.8581 22.58 94.8581 14.7564C94.8581 6.90487 101.234 0.556845 109.058 0.556845ZM109.058 0C100.928 0 94.3291 6.5986 94.3291 14.7285C94.3291 22.8585 100.928 29.4571 109.058 29.4571C112.482 29.4571 115.628 28.2877 118.134 26.3109C118.162 26.2831 118.19 26.2552 118.218 26.2274C118.246 26.1995 118.273 26.1995 118.301 26.1717C119.331 25.2807 120 23.9722 120 22.4965C120 19.8237 117.828 17.6241 115.127 17.6241C114.041 17.6241 113.011 17.9861 112.204 18.5986C111.341 19.2947 110.255 19.6844 109.085 19.6844C106.329 19.6844 104.102 17.4571 104.102 14.7007C104.102 11.9443 106.329 9.71693 109.085 9.71693C110.255 9.71693 111.341 10.1346 112.176 10.8028C112.983 11.4153 114.014 11.8051 115.127 11.8051C117.828 11.8051 120 9.6334 120 6.9327C120 5.45707 119.331 4.12064 118.273 3.22969C115.74 1.22505 112.538 0 109.058 0Z" fill="#60A2D1"/>
<path d="M78.3197 14.7285C78.3197 6.5986 71.721 0 63.5911 0C61.6978 0 59.8603 0.361935 58.1897 1.03015C57.3545 0.389778 56.3243 0 55.2106 0C54.0969 0 53.0389 0.389778 52.2315 1.03015C50.561 0.361935 48.7512 0 46.8301 0C38.7002 0 32.1016 6.5986 32.1016 14.7285C32.1016 22.8585 38.7002 29.4571 46.8301 29.4571C48.7234 29.4571 50.561 29.0951 52.2315 28.4269C53.0668 29.0673 54.0969 29.4571 55.2106 29.4571C56.3243 29.4571 57.3823 29.0673 58.1897 28.4269C59.8603 29.0951 61.67 29.4571 63.5911 29.4571C71.721 29.4571 78.3197 22.8585 78.3197 14.7285ZM46.8023 19.7401C44.0459 19.7401 41.8185 17.5128 41.8185 14.7564C41.8185 12 44.0459 9.77261 46.8023 9.77261C49.5586 9.77261 51.786 12 51.786 14.7564C51.8139 17.4849 49.5586 19.7401 46.8023 19.7401ZM58.5795 14.7285C58.5795 11.9721 60.8069 9.74478 63.5633 9.74478C66.3197 9.74478 68.547 11.9721 68.547 14.7285C68.547 17.4849 66.3197 19.7123 63.5633 19.7123C60.8069 19.7401 58.5795 17.4849 58.5795 14.7285Z" fill="#62E7F4"/>
<path d="M63.5911 0.556845C71.4148 0.556845 77.7628 6.90486 77.7628 14.7285C77.7628 22.5522 71.4148 28.9002 63.5911 28.9002C61.8092 28.9002 60.0552 28.5661 58.3846 27.9258L58.0784 27.8144L57.8278 28.0093C57.0482 28.594 56.1573 28.9281 55.1828 28.9281C54.2083 28.9281 53.3173 28.6218 52.5378 28.0093L52.2872 27.8144L51.9809 27.9258C50.3382 28.5661 48.5842 28.9002 46.7744 28.9002C38.9508 28.9002 32.6027 22.5522 32.6027 14.7285C32.6027 6.90486 38.9508 0.556845 46.7744 0.556845C48.5563 0.556845 50.3104 0.890951 51.9809 1.53132L52.2872 1.64268L52.5378 1.44778C53.3173 0.863095 54.2083 0.528992 55.1828 0.528992C56.1573 0.528992 57.0482 0.835253 57.8278 1.44778L58.0784 1.64268L58.3846 1.53132C60.0273 0.890951 61.7814 0.556845 63.5911 0.556845ZM63.5911 20.297C66.6538 20.297 69.1317 17.819 69.1317 14.7564C69.1317 11.6937 66.6538 9.21577 63.5911 9.21577C60.5285 9.21577 58.0505 11.6937 58.0505 14.7564C58.0505 17.819 60.5285 20.297 63.5911 20.297ZM46.8023 20.297C49.8649 20.297 52.3429 17.819 52.3429 14.7564C52.3429 11.6937 49.8649 9.21577 46.8023 9.21577C43.7396 9.21577 41.2617 11.6937 41.2617 14.7564C41.2617 17.819 43.7396 20.297 46.8023 20.297ZM63.5911 0C61.6978 0 59.8603 0.361935 58.1897 1.03015C57.3545 0.389778 56.3243 0 55.2106 0C54.0969 0 53.0389 0.389778 52.2315 1.03015C50.561 0.361935 48.7512 0 46.8301 0C38.7002 0 32.1016 6.5986 32.1016 14.7285C32.1016 22.8585 38.7002 29.4571 46.8301 29.4571C48.7234 29.4571 50.561 29.0951 52.2315 28.4269C53.0668 29.0673 54.0969 29.4571 55.2106 29.4571C56.3243 29.4571 57.3823 29.0673 58.1897 28.4269C59.8603 29.0951 61.67 29.4571 63.5911 29.4571C71.721 29.4571 78.3197 22.8585 78.3197 14.7285C78.3197 6.5986 71.721 0 63.5911 0ZM63.5911 19.7401C60.8347 19.7401 58.6074 17.5128 58.6074 14.7564C58.6074 12 60.8347 9.77261 63.5911 9.77261C66.3475 9.77261 68.5749 12 68.5749 14.7564C68.5749 17.5128 66.3475 19.7401 63.5911 19.7401ZM46.8023 19.7401C44.0459 19.7401 41.8185 17.5128 41.8185 14.7564C41.8185 12 44.0459 9.77261 46.8023 9.77261C49.5586 9.77261 51.786 12 51.786 14.7564C51.786 17.5128 49.5586 19.7401 46.8023 19.7401Z" fill="#60A2D1"/>
<path d="M91.712 14.7285C91.712 10.9977 91.4892 7.46172 91.1273 4.31555C90.8489 1.89327 88.8164 0 86.3106 0C83.8326 0 81.7723 1.86542 81.4939 4.28769C81.4939 4.31554 81.4939 4.34337 81.4939 4.37122C81.1319 7.51739 80.9092 11.0255 80.9092 14.7285C80.9092 18.4315 81.1319 21.9118 81.4939 25.058C81.7166 27.536 83.7769 29.4571 86.3106 29.4571C88.8164 29.4571 90.9045 27.536 91.1273 25.0858C91.5171 21.9397 91.712 18.4315 91.712 14.7285Z" fill="#62E7F4"/>
<path d="M86.3106 0.556845C88.5101 0.556845 90.3199 2.19952 90.5704 4.37122L90.654 5.15081C90.9881 8.18561 91.1551 11.4153 91.1551 14.7285C91.1551 18.3202 90.9602 21.7726 90.5704 25.0302C90.3755 27.2297 88.538 28.9002 86.3106 28.9002C84.0832 28.9002 82.2456 27.2297 82.0507 25.0023C81.6609 21.7726 81.466 18.3202 81.466 14.7285C81.466 11.1369 81.6609 7.68444 82.0507 4.4269V4.39907V4.37122V4.34338C82.3013 2.19953 84.1389 0.556845 86.3106 0.556845ZM86.3106 0C83.8326 0 81.7723 1.86542 81.4939 4.28769C81.4939 4.31554 81.4939 4.34337 81.4939 4.37122C81.1319 7.51739 80.9092 11.0255 80.9092 14.7285C80.9092 18.4315 81.1319 21.9118 81.4939 25.058C81.7166 27.536 83.7769 29.4571 86.3106 29.4571C88.8164 29.4571 90.9045 27.536 91.1273 25.0858C91.4892 21.9397 91.712 18.4315 91.712 14.7285C91.712 10.9977 91.4892 7.46172 91.1273 4.31555C90.8489 1.89327 88.8164 0 86.3106 0Z" fill="#60A2D1"/>
<path d="M107.415 39.8143C106.803 39.8143 106.19 39.87 105.578 39.9535C105.522 39.5359 105.494 39.1183 105.438 38.7006C105.16 36.167 103.016 34.218 100.427 34.218C97.8375 34.218 95.6937 36.167 95.4153 38.7006C95.4153 38.7285 95.4153 38.7563 95.4153 38.7841C95.0255 42.0695 94.8027 45.7169 94.8027 49.5869C94.8027 53.4292 95.0255 57.0765 95.4153 60.3619C95.638 62.9233 97.8097 64.9558 100.427 64.9558C101.401 64.9558 102.32 64.6774 103.1 64.2041C104.436 64.7053 105.912 64.9558 107.415 64.9558C114.348 64.9558 119.972 59.3317 119.972 52.399C119.972 45.4384 114.348 39.8143 107.415 39.8143ZM107.415 56.631C105.077 56.631 103.155 54.7377 103.155 52.3712C103.155 50.0324 105.049 48.1113 107.415 48.1113C109.782 48.1113 111.675 50.0046 111.675 52.3712C111.675 54.7377 109.754 56.631 107.415 56.631Z" fill="#FFD583"/>
<path d="M100.427 34.7749C102.71 34.7749 104.631 36.5011 104.882 38.7563L104.965 39.508C104.993 39.6751 104.993 39.8143 105.021 39.9814L105.077 40.566L105.661 40.4825C106.246 40.399 106.831 40.3433 107.415 40.3433C114.042 40.3433 119.415 45.7169 119.415 52.3433C119.415 58.9698 114.042 64.3433 107.415 64.3433C105.995 64.3433 104.603 64.0927 103.295 63.6194L103.044 63.5359L102.821 63.6751C102.125 64.1206 101.29 64.3433 100.455 64.3433C98.116 64.3433 96.1948 62.5893 95.9999 60.2505C95.6102 56.8816 95.3874 53.2621 95.3874 49.5591C95.3874 45.8282 95.5823 42.2087 95.9999 38.812V38.7841V38.7285C96.2227 36.5011 98.1438 34.7749 100.427 34.7749ZM107.415 57.1879C110.06 57.1879 112.232 55.0162 112.232 52.3712C112.232 49.7261 110.06 47.5544 107.415 47.5544C104.77 47.5544 102.599 49.7261 102.599 52.3712C102.599 55.044 104.742 57.1879 107.415 57.1879ZM100.427 34.218C97.8375 34.218 95.6937 36.167 95.4153 38.7006C95.4153 38.7285 95.4153 38.7563 95.4153 38.7841C95.0255 42.0695 94.8027 45.7169 94.8027 49.5869C94.8027 53.4292 95.0255 57.0765 95.4153 60.3619C95.638 62.9233 97.8097 64.9558 100.427 64.9558C101.401 64.9558 102.32 64.6774 103.1 64.2041C104.436 64.7053 105.912 64.9558 107.415 64.9558C114.348 64.9558 119.972 59.3317 119.972 52.399C119.972 45.4663 114.348 39.8422 107.415 39.8422C106.803 39.8422 106.19 39.8978 105.578 39.9814C105.522 39.5637 105.494 39.1461 105.438 38.7285C105.16 36.1948 103.016 34.218 100.427 34.218ZM107.415 56.631C105.077 56.631 103.155 54.7377 103.155 52.3712C103.155 50.0324 105.049 48.1113 107.415 48.1113C109.782 48.1113 111.675 50.0046 111.675 52.3712C111.675 54.7377 109.754 56.631 107.415 56.631Z" fill="#FFA857"/>
<path d="M53.2338 34.218C52.2315 34.218 51.2848 34.5243 50.4774 35.0254C49.0853 34.4964 47.5818 34.218 46.0227 34.218C39.09 34.218 33.4658 39.8422 33.4658 46.7749C33.4658 50.812 35.3869 54.4036 38.3382 56.7145C36.8626 57.4106 35.8603 58.8862 35.8603 60.6124C35.8603 63.0069 37.8092 64.928 40.2036 64.928C42.1804 64.928 43.7953 63.3131 44.3521 61.8375C44.909 60.3619 45.605 59.276 48.1108 59.276C48.1387 59.6658 48.25 60.4454 48.25 60.4454C48.5285 62.979 50.6723 64.928 53.2616 64.928C55.851 64.928 57.9948 62.979 58.2732 60.4454C58.2732 60.4176 58.2732 60.3897 58.2732 60.3619C58.663 57.0765 58.8858 53.4292 58.8858 49.5591C58.8858 45.7169 58.663 42.0695 58.2732 38.7841C58.0505 36.2505 55.8788 34.218 53.2338 34.218ZM46.0227 42.515C48.3614 42.515 50.2825 44.4083 50.2825 46.7749C50.2825 49.1136 48.3893 51.0347 46.0227 51.0347C43.6839 51.0347 41.7628 49.1415 41.7628 46.7749C41.7907 44.4361 43.6839 42.515 46.0227 42.515Z" fill="#FFD583"/>
<path d="M53.2338 34.7749C55.5726 34.7749 57.4937 36.5289 57.6886 38.8677C58.0784 42.2366 58.3011 45.8561 58.3011 49.5591C58.3011 53.2899 58.1062 56.9094 57.6886 60.3062V60.334V60.3897C57.438 62.6449 55.5169 64.3711 53.2338 64.3711C50.9507 64.3711 49.0296 62.6449 48.779 60.3897L48.7234 59.8885C48.6955 59.6658 48.6677 59.3874 48.6398 59.2203L48.5842 58.7192H48.083C45.1596 58.7192 44.3521 60.167 43.7953 61.6426C43.2941 62.979 41.8463 64.3711 40.148 64.3711C38.0598 64.3711 36.3614 62.6728 36.3614 60.6124C36.3614 59.1646 37.2245 57.8282 38.5331 57.2157L39.3684 56.8259L38.6445 56.2691C35.6932 53.986 33.9948 50.5057 33.9948 46.7749C33.9948 40.1484 39.3684 34.7749 45.9948 34.7749C47.4705 34.7749 48.8904 35.0254 50.2547 35.5544L50.5331 35.6658L50.7837 35.4988C51.5354 35.0255 52.3707 34.7749 53.2338 34.7749ZM46.0227 51.5916C48.6677 51.5916 50.8394 49.4199 50.8394 46.7749C50.8394 44.1299 48.6677 41.9582 46.0227 41.9582C43.3777 41.9582 41.206 44.1299 41.206 46.7749C41.2338 49.4477 43.3777 51.5916 46.0227 51.5916ZM53.2338 34.218C52.2315 34.218 51.2848 34.5243 50.4774 35.0254C49.0853 34.4964 47.5818 34.218 46.0227 34.218C39.09 34.218 33.4658 39.8422 33.4658 46.7749C33.4658 50.812 35.3869 54.4036 38.3382 56.7145C36.8626 57.4106 35.8603 58.8862 35.8603 60.6124C35.8603 63.0069 37.8092 64.928 40.2036 64.928C42.1804 64.928 43.7953 63.3131 44.3521 61.8375C44.909 60.3619 45.605 59.276 48.1108 59.276C48.1387 59.6658 48.25 60.4454 48.25 60.4454C48.5285 62.979 50.6723 64.928 53.2616 64.928C55.851 64.928 57.9948 62.979 58.2732 60.4454C58.2732 60.4176 58.2732 60.3897 58.2732 60.3619C58.663 57.0765 58.8858 53.4292 58.8858 49.5591C58.8858 45.7169 58.663 42.0695 58.2732 38.7841C58.0505 36.2505 55.8788 34.218 53.2338 34.218ZM46.0227 51.0347C43.6839 51.0347 41.8348 49.1415 41.8348 46.7749C41.8348 44.4361 43.6561 42.5857 46.0227 42.5857C48.3893 42.5857 50.1832 44.3932 50.1832 46.7598C50.1832 49.1264 48.3893 51.0347 46.0227 51.0347Z" fill="#FFA857"/>
<path d="M28.0928 38.7006C27.8144 36.167 25.6705 34.218 23.0812 34.218C20.4919 34.218 18.348 36.167 18.0696 38.7006C18.0696 38.7285 17.7633 41.6797 17.652 43.2111C17.4571 44.8816 16.065 46.1902 14.3387 46.1902C12.6404 46.1902 11.2483 44.9373 11.0534 43.2946L10.6357 38.7285C10.3573 36.1948 8.21345 34.2459 5.62412 34.2459C3.0348 34.2459 0.890946 36.1948 0.612524 38.7285C0.612524 38.7563 0 45.7447 0 49.6148C0 53.457 0.222733 57.1043 0.612524 60.3897C0.835262 62.9512 3.00696 64.9837 5.62412 64.9837C8.24129 64.9837 10.413 62.979 10.6357 60.4176C10.8028 59.109 10.9141 57.7447 11.0255 56.3247C11.1369 54.5985 12.5847 53.2064 14.3387 53.2064C16.1206 53.2064 17.5684 54.5985 17.6798 56.3526C17.7912 57.7447 17.9025 59.0811 18.0696 60.3897C18.2923 62.9512 20.464 64.9837 23.0812 64.9837C25.6984 64.9837 27.8701 62.979 28.0928 60.4176C28.4826 57.1322 28.7053 53.4848 28.7053 49.6148C28.7053 45.689 28.0928 38.7006 28.0928 38.7006Z" fill="#FFD583"/>
<path d="M23.0812 34.7749C25.3643 34.7749 27.2854 36.5011 27.536 38.7563C27.5638 38.9233 28.1485 45.7169 28.1485 49.5591C28.1485 53.29 27.9536 56.9094 27.536 60.3062C27.3132 62.6171 25.3921 64.3711 23.0812 64.3711C20.7425 64.3711 18.8213 62.6171 18.6264 60.2783C18.4872 58.9976 18.348 57.6612 18.2645 56.2969C18.1531 54.2366 16.4547 52.6217 14.3666 52.6217C12.5012 52.6217 10.9142 53.9582 10.5522 55.7401H10.5244L10.4965 56.2691C10.3851 57.689 10.2738 59.0533 10.1067 60.334C9.88399 62.6449 7.96287 64.399 5.65197 64.399C3.31322 64.399 1.39211 62.6449 1.19721 60.3062C0.807421 56.9373 0.58468 53.3178 0.58468 49.6148C0.58468 45.8561 1.19721 38.9512 1.19721 38.7841C1.44779 36.5289 3.36891 34.8027 5.65197 34.8027C7.93503 34.8027 9.85614 36.5289 10.1067 38.7841C10.1067 38.8955 10.3016 40.9558 10.413 42.2087L10.4965 43.0162C10.4965 43.1275 10.5244 43.2389 10.5522 43.3503C10.8028 45.2714 12.4733 46.747 14.3944 46.747C16.3712 46.747 18.0418 45.2435 18.2645 43.2667C18.348 41.7911 18.6543 38.9512 18.6821 38.7841C18.877 36.5011 20.7981 34.7749 23.0812 34.7749ZM23.0812 34.218C20.4919 34.218 18.348 36.167 18.0696 38.7006C18.0696 38.7285 17.7633 41.6797 17.652 43.2111C17.4571 44.8816 16.065 46.1902 14.3387 46.1902C12.6404 46.1902 11.2483 44.9373 11.0534 43.2946L10.6357 38.7285C10.3573 36.1948 8.21345 34.2459 5.62412 34.2459C3.0348 34.2459 0.890946 36.1948 0.612524 38.7285C0.612524 38.7563 0 45.7447 0 49.6148C0 53.457 0.222733 57.1043 0.612524 60.3897C0.835262 62.9512 3.00696 64.9837 5.62412 64.9837C8.24129 64.9837 10.413 62.979 10.6357 60.4176C10.8028 59.109 10.9141 57.7447 11.0255 56.3247C11.1369 54.5985 12.5847 53.2064 14.3387 53.2064C16.1206 53.2064 17.5684 54.5985 17.6798 56.3526C17.7912 57.7447 17.9025 59.0811 18.0696 60.3897C18.2923 62.9512 20.464 64.9837 23.0812 64.9837C25.6984 64.9837 27.8701 62.979 28.0928 60.4176C28.4826 57.1322 28.7053 53.4848 28.7053 49.6148C28.7053 45.7169 28.0928 38.7563 28.0928 38.7563C27.8144 36.1948 25.6705 34.218 23.0812 34.218Z" fill="#FFA857"/>
<path d="M91.2114 38.7006C90.933 36.167 88.7892 34.218 86.1998 34.218C83.6105 34.218 81.4667 36.167 81.1882 38.7006C81.1882 38.7285 81.1882 38.7563 81.1882 38.7841C81.0212 40.2041 80.882 41.6797 80.7985 43.2111C80.6036 44.8816 79.2114 46.1902 77.4852 46.1902C75.7869 46.1902 74.3947 44.9373 74.1999 43.2946C74.1999 43.2946 73.9493 40.1763 73.7822 38.7285C73.5038 36.1948 71.3599 34.2459 68.7706 34.2459C66.1813 34.2459 64.0374 36.1948 63.759 38.7285C63.759 38.7563 63.759 38.7841 63.759 38.812C63.3692 42.0974 63.1465 45.7447 63.1465 49.6148C63.1465 53.457 63.3692 57.1043 63.759 60.3897C63.9818 62.9512 66.1534 64.9837 68.7706 64.9837C71.3878 64.9837 73.5595 62.979 73.7822 60.4176C73.9493 59.109 74.0606 57.7447 74.172 56.3247C74.2834 54.5985 75.7312 53.2064 77.4852 53.2064C79.2671 53.2064 80.7149 54.5985 80.8263 56.3526C80.9377 57.7447 81.049 59.0811 81.2161 60.3897C81.4388 62.9512 83.6105 64.9837 86.2277 64.9837C88.8449 64.9837 91.0166 62.979 91.2393 60.4176C91.6291 57.1322 91.8518 53.4848 91.8518 49.6148C91.824 45.689 91.6012 42.0139 91.2114 38.7006Z" fill="#FFD583"/>
<path d="M86.1998 34.7749C88.4829 34.7749 90.404 36.5011 90.6546 38.7563L90.7381 39.508C91.1001 42.6821 91.2671 46.051 91.2671 49.5591C91.2671 53.29 91.0722 56.9094 90.6546 60.3062C90.4319 62.6171 88.5107 64.3711 86.1998 64.3711C83.8611 64.3711 81.94 62.6171 81.7451 60.2783C81.6059 58.9976 81.4667 57.6612 81.3831 56.2969C81.2718 54.2366 79.5734 52.6217 77.4852 52.6217C75.6198 52.6217 74.0328 53.9582 73.6708 55.7401H73.643L73.6152 56.2691C73.5038 57.689 73.3924 59.0533 73.2254 60.334C73.0026 62.6449 71.0815 64.399 68.7706 64.399C66.4319 64.399 64.5108 62.6449 64.3159 60.3062C63.9261 56.9373 63.7033 53.3178 63.7033 49.6148C63.7033 45.8839 63.8982 42.2644 64.3159 38.8677V38.8398V38.7841C64.5664 36.5289 66.4876 34.8027 68.7706 34.8027C71.0537 34.8027 72.9748 36.5289 73.2254 38.7841L73.3089 39.5359C73.4481 40.8723 73.5873 42.6821 73.643 43.2946C73.643 43.3224 73.643 43.3503 73.643 43.3503C73.8936 45.2714 75.5641 46.747 77.4852 46.747C79.462 46.747 81.1326 45.2435 81.3553 43.2667C81.4667 41.7354 81.578 40.2598 81.7451 38.8677V38.8398V38.7841C81.9957 36.5011 83.9168 34.7749 86.1998 34.7749ZM86.1998 34.218C83.6105 34.218 81.4667 36.167 81.1882 38.7006C81.1882 38.7285 81.1882 38.7563 81.1882 38.7841C81.0212 40.2041 80.882 41.6797 80.7985 43.2111C80.6036 44.8816 79.2114 46.1902 77.4852 46.1902C75.7869 46.1902 74.3947 44.9373 74.1999 43.2946C74.1999 43.2946 73.9493 40.1763 73.7822 38.7285C73.5038 36.1948 71.3599 34.2459 68.7706 34.2459C66.1813 34.2459 64.0374 36.1948 63.759 38.7285C63.759 38.7563 63.759 38.7841 63.759 38.812C63.3692 42.0974 63.1465 45.7447 63.1465 49.6148C63.1465 53.457 63.3692 57.1043 63.759 60.3897C63.9818 62.9512 66.1534 64.9837 68.7706 64.9837C71.3878 64.9837 73.5595 62.979 73.7822 60.4176C73.9493 59.109 74.0606 57.7447 74.172 56.3247C74.2834 54.5985 75.7312 53.2064 77.4852 53.2064C79.2671 53.2064 80.7149 54.5985 80.8263 56.3526C80.9377 57.7447 81.049 59.0811 81.2161 60.3897C81.4388 62.9512 83.6105 64.9837 86.2277 64.9837C88.8449 64.9837 91.0166 62.979 91.2393 60.4176C91.6291 57.1322 91.8518 53.4848 91.8518 49.6148C91.8518 45.7169 91.6291 42.0417 91.2393 38.7563C90.933 36.1948 88.7892 34.218 86.1998 34.218Z" fill="#FFA857"/>
<g style="mix-blend-mode:overlay">
<path d="M14.8574 1.8858C17.6131 1.8858 20.2018 2.63736 22.4287 3.91779C20.3132 2.33117 17.6966 1.38477 14.8574 1.38477C12.0182 1.38477 9.3738 2.33117 7.28613 3.91779C9.51297 2.63736 12.1017 1.8858 14.8574 1.8858Z" fill="white"/>
</g>
<g style="mix-blend-mode:overlay">
<path d="M109.137 1.60748C111.781 1.60748 114.258 2.35904 116.374 3.63947C114.37 2.05285 111.865 1.10645 109.137 1.10645C106.409 1.10645 103.904 2.05285 101.899 3.63947C104.043 2.35904 106.52 1.60748 109.137 1.60748Z" fill="white"/>
</g>
<g style="mix-blend-mode:overlay">
<path d="M44.6414 1.9136C47.1466 1.49607 49.5962 1.80227 51.823 2.66517C49.6518 1.46824 47.1188 0.9672 44.5579 1.41257C41.9971 1.85794 39.7702 3.16621 38.1279 5.03119C39.9372 3.4724 42.1362 2.35897 44.6414 1.9136Z" fill="white"/>
</g>
<g style="mix-blend-mode:overlay">
<path d="M44.4188 36.1234C46.9518 35.678 49.4292 36.0398 51.7117 37.0419C49.5127 35.7337 46.924 35.1491 44.3353 35.5945C41.7466 36.0398 39.4919 37.4316 37.8496 39.4079C39.6589 37.71 41.8858 36.5409 44.4188 36.1234Z" fill="white"/>
</g>
<g style="mix-blend-mode:overlay">
<path d="M110.584 42.2197C108.19 41.4682 105.713 41.496 103.402 42.164C105.713 41.162 108.274 40.9393 110.751 41.7187C113.228 42.4981 115.205 44.1125 116.541 46.2559C115.01 44.3909 112.978 42.9713 110.584 42.2197Z" fill="white"/>
</g>
<g style="mix-blend-mode:overlay">
<path d="M66.2143 1.94135C63.7369 1.52382 61.3152 1.83001 59.1162 2.69291C61.2595 1.52382 63.7647 1.02278 66.2978 1.46815C68.8308 1.91351 71.0298 3.19394 72.6721 5.03109C70.8906 3.44446 68.6916 2.35888 66.2143 1.94135Z" fill="white"/>
</g>
<g style="mix-blend-mode:overlay">
<path d="M86.4506 1.41266C87.7589 1.41266 88.9558 2.02504 89.7352 2.94361C89.1228 1.74669 87.8981 0.939453 86.4506 0.939453C85.031 0.939453 83.7784 1.74669 83.166 2.94361C83.9732 1.99721 85.1423 1.41266 86.4506 1.41266Z" fill="white"/>
</g>
<g style="mix-blend-mode:overlay">
<path d="M5.83879 36.0123C7.14706 36.0123 8.31615 36.6525 9.09554 37.6267C8.48316 36.3741 7.2584 35.5112 5.83879 35.5112C4.41918 35.5112 3.16658 36.3741 2.58203 37.6267C3.36143 36.6525 4.53052 36.0123 5.83879 36.0123Z" fill="white"/>
</g>
<g style="mix-blend-mode:overlay">
<path d="M23.2079 36.0123C24.544 36.0123 25.7131 36.6525 26.5204 37.6267C25.908 36.3741 24.6554 35.5112 23.2079 35.5112C21.7605 35.5112 20.5079 36.3741 19.8955 37.6267C20.7027 36.6525 21.8718 36.0123 23.2079 36.0123Z" fill="white"/>
</g>
<g style="mix-blend-mode:overlay">
<path d="M14.4956 47.3691C15.8873 47.3691 17.1121 46.7289 17.9472 45.7546C17.3069 47.0072 15.9987 47.8701 14.4956 47.8701C12.9924 47.8701 11.6842 47.0072 11.0439 45.7546C11.879 46.7567 13.1316 47.3691 14.4956 47.3691Z" fill="white"/>
</g>
<g style="mix-blend-mode:overlay">
<path d="M14.8853 20.8974C16.6111 20.8974 18.1421 20.2572 19.172 19.283C18.3647 20.5356 16.7503 21.3985 14.8853 21.3985C13.0203 21.3985 11.4059 20.5356 10.5986 19.283C11.6285 20.285 13.1595 20.8974 14.8853 20.8974Z" fill="white"/>
</g>
<g style="mix-blend-mode:overlay">
<path d="M46.9522 20.8974C48.7337 20.8974 50.3203 20.2572 51.3781 19.283C50.543 20.5356 48.9007 21.3985 46.9522 21.3985C45.0316 21.3985 43.3614 20.5356 42.5264 19.283C43.612 20.285 45.1986 20.8974 46.9522 20.8974Z" fill="white"/>
</g>
<g style="mix-blend-mode:overlay">
<path d="M63.7364 20.8974C65.5179 20.8974 67.1045 20.2572 68.1622 19.283C67.3272 20.5356 65.657 21.3985 63.7364 21.3985C61.7879 21.3985 60.1178 20.5356 59.3105 19.283C60.3405 20.285 61.9271 20.8974 63.7364 20.8974Z" fill="white"/>
</g>
<g style="mix-blend-mode:overlay">
<path d="M109.136 20.8974C110.806 20.8974 112.31 20.2572 113.312 19.283C112.532 20.5356 110.946 21.3985 109.136 21.3985C107.299 21.3985 105.74 20.5356 104.961 19.283C105.963 20.285 107.466 20.8974 109.136 20.8974Z" fill="white"/>
</g>
<g style="mix-blend-mode:overlay">
<path d="M68.9696 36.0679C70.2501 36.0679 71.3913 36.6525 72.1707 37.571C71.5862 36.402 70.3614 35.6226 68.9696 35.6226C67.5779 35.6226 66.3809 36.4298 65.7686 37.571C66.5201 36.6525 67.6892 36.0679 68.9696 36.0679Z" fill="white"/>
</g>
<g style="mix-blend-mode:overlay">
<path d="M38.9629 57.7794C39.8536 57.2506 40.8835 57.167 41.7743 57.4732C40.8835 56.9165 39.7144 56.8608 38.768 57.4454C37.8216 58.0299 37.3206 59.0598 37.3763 60.1176C37.5154 59.199 38.0722 58.3083 38.9629 57.7794Z" fill="white"/>
</g>
<g style="mix-blend-mode:overlay">
<path d="M86.2831 36.0123C87.5357 36.0123 88.6213 36.6525 89.3728 37.6267C88.7883 36.3741 87.6192 35.5112 86.2831 35.5112C84.947 35.5112 83.7779 36.3741 83.1934 37.6267C83.9449 36.6525 85.0583 36.0123 86.2831 36.0123Z" fill="white"/>
</g>
<g style="mix-blend-mode:overlay">
<path d="M100.535 35.9844C101.843 35.9844 103.012 36.569 103.792 37.5154C103.179 36.3463 101.955 35.5112 100.535 35.5112C99.1155 35.5112 97.8907 36.3185 97.2783 37.5154C98.0856 36.5968 99.2268 35.9844 100.535 35.9844Z" fill="white"/>
</g>
<g style="mix-blend-mode:overlay">
<path d="M77.7099 47.3691C79.1574 47.3691 80.4656 46.7289 81.3564 45.7546C80.6883 47.0072 79.2965 47.8701 77.7099 47.8701C76.1233 47.8701 74.7594 47.0072 74.0635 45.7546C74.9542 46.7567 76.2625 47.3691 77.7099 47.3691Z" fill="white"/>
</g>
<g style="mix-blend-mode:overlay">
<path d="M46.1728 52.1289C47.7316 52.1289 49.1234 51.4886 50.042 50.5144C49.3183 51.767 47.843 52.6299 46.1728 52.6299C44.4749 52.6299 42.9996 51.767 42.3037 50.5144C43.2223 51.5165 44.6141 52.1289 46.1728 52.1289Z" fill="white"/>
</g>
<g style="mix-blend-mode:overlay">
<path d="M107.55 57.6958C109.025 57.6958 110.333 57.0555 111.196 56.0813C110.528 57.3339 109.136 58.1968 107.55 58.1968C105.963 58.1968 104.571 57.3339 103.903 56.0813C104.766 57.0555 106.074 57.6958 107.55 57.6958Z" fill="white"/>
</g>
</svg>
