<svg width="100" height="173" viewBox="0 0 100 173" fill="none" xmlns="http://www.w3.org/2000/svg">
<path d="M48 114C48.7525 120.867 51.5 126 48 140.5C47 148.5 49.0261 151.86 53 154.5C56.5 156.5 59.73 155.752 61.6329 153.305C63.9922 150.272 60.6063 147 58 147C53.7287 147 51.5 149 45.574 154.543C40.5 158.5 38.6 170.1 53 172.5" stroke="#00737F" stroke-linecap="round"/>
<path d="M48.6242 117.589C49.0043 116.899 49.9957 116.899 50.3758 117.589L57.7762 131.017C58.1435 131.684 57.6613 132.5 56.9004 132.5H42.0996C41.3387 132.5 40.8565 131.684 41.2238 131.017L48.6242 117.589Z" fill="#D0F8FC"/>
<path d="M100 50C100 77.6142 71.5 126 50 126C28.5 126 0 77.6142 0 50C0 22.3858 22.3858 0 50 0C77.6142 0 100 22.3858 100 50Z" fill="#E7FBFD"/>
<path d="M44.5 125C46.5 125.5 47.6761 126 49.5 126C51.3261 126 53 126 54.5 125.5" stroke="#00737F" stroke-linecap="round"/>
<path d="M51.6667 38.1333V49.6666H65C65.0007 46.4591 63.8451 43.3589 61.7451 40.9344C59.6451 38.5099 56.7415 36.9237 53.5667 36.4666C52.5667 36.3166 51.6667 37.1166 51.6667 38.1333ZM62.2 59.4833C64.0156 57.1546 65.0012 54.2861 65 51.3333H40.7334L39.6 48.95C39.4661 48.6655 39.2539 48.425 38.9882 48.2568C38.7226 48.0885 38.4145 47.9995 38.1 48H35C34.0834 48 33.3334 48.75 33.3334 49.6666C33.3334 50.5833 34.0834 51.3333 35 51.3333H37.0334C37.0334 51.3333 40.1834 58.1166 40.5667 58.7C39.4214 59.3157 38.5143 60.2958 37.989 61.4853C37.4638 62.6747 37.3503 64.0054 37.6667 65.2666C38.1667 67.3666 39.9 69.05 42 69.5166C45.5 70.2833 48.6334 67.9166 49.0834 64.6666H52.55C52.6637 65.4615 52.9403 66.2244 53.3626 66.9074C53.7849 67.5904 54.3437 68.1788 55.004 68.6357C55.6644 69.0926 56.412 69.4082 57.2 69.5627C57.988 69.7171 58.7994 69.7071 59.5834 69.5333C60.6317 69.3028 61.5959 68.7871 62.3695 68.0429C63.143 67.2988 63.6958 66.3553 63.9667 65.3166C64.55 63 63.7334 60.85 62.2 59.4833ZM43.3334 66.3333C41.95 66.3333 40.8334 65.2166 40.8334 63.8333C40.8334 62.45 41.95 61.3333 43.3334 61.3333C44.7167 61.3333 45.8334 62.45 45.8334 63.8333C45.8334 65.2166 44.7167 66.3333 43.3334 66.3333ZM58.3334 66.3333C56.95 66.3333 55.8334 65.2166 55.8334 63.8333C55.8334 62.45 56.95 61.3333 58.3334 61.3333C59.7167 61.3333 60.8334 62.45 60.8334 63.8333C60.8334 65.2166 59.7167 66.3333 58.3334 66.3333Z" fill="#00D2E7"/>
</svg>
