<svg width="100" height="173" viewBox="0 0 100 173" fill="none" xmlns="http://www.w3.org/2000/svg">
<path d="M48 114C48.7525 120.867 51.5 126 48 140.5C47 148.5 49.0261 151.86 53 154.5C56.5 156.5 59.73 155.752 61.633 153.305C63.9922 150.272 60.6063 147 58 147C53.7288 147 51.5 149 45.5741 154.543C40.5 158.5 38.6 170.1 53 172.5" stroke="#A87715" stroke-linecap="round"/>
<path d="M48.6242 117.589C49.0043 116.899 49.9957 116.899 50.3758 117.589L57.7762 131.017C58.1435 131.684 57.6613 132.5 56.9004 132.5H42.0996C41.3387 132.5 40.8565 131.684 41.2238 131.017L48.6242 117.589Z" fill="#FFEECD"/>
<path d="M100 50C100 77.6142 71.5 126 50 126C28.5 126 0 77.6142 0 50C0 22.3858 22.3858 0 50 0C77.6142 0 100 22.3858 100 50Z" fill="#FFF7E6"/>
<path d="M44.5 125C46.5 125.5 47.6761 126 49.5 126C51.3261 126 53 126 54.5 125.5" stroke="#A87715" stroke-linecap="round"/>
<path d="M53.3333 36.3334H41.6666C40.7826 36.3334 39.9347 36.6846 39.3096 37.3097C38.6845 37.9348 38.3333 38.7827 38.3333 39.6667V63C38.3333 63.8841 38.6845 64.7319 39.3096 65.3571C39.9347 65.9822 40.7826 66.3334 41.6666 66.3334H46.6666V71.3334L50 69.6667L53.3333 71.3334V66.3334H58.3333C59.2174 66.3334 60.0652 65.9822 60.6903 65.3571C61.3155 64.7319 61.6666 63.8841 61.6666 63V44.6667M53.3333 58V61.3334L50 59.6667L46.6666 61.3334V58L43.3333 56.3334L46.6666 54.6667V51.3334L50 53L53.3333 51.3334V54.6667L56.6666 56.3334M51.6666 46.3334V38.8334L59.1666 46.3334H51.6666Z" fill="#F5C362"/>
</svg>
