<svg width="24" height="24" viewBox="0 0 24 24" fill="none" xmlns="http://www.w3.org/2000/svg">
<path d="M16.0108 20.5005C16.1416 20.3666 16.2148 20.1867 16.2148 19.9995C16.2148 19.8123 16.1416 19.6324 16.0108 19.4985L8.70126 12L16.0108 4.503C16.1416 4.36905 16.2148 4.18924 16.2148 4.002C16.2148 3.81476 16.1416 3.63494 16.0108 3.501C15.9472 3.43568 15.8711 3.38377 15.7872 3.34832C15.7032 3.31287 15.6129 3.29461 15.5218 3.29461C15.4306 3.29461 15.3404 3.31287 15.2564 3.34832C15.1724 3.38377 15.0964 3.43568 15.0328 3.501L7.25976 11.4765C7.12324 11.6166 7.04684 11.8044 7.04684 12C7.04684 12.1956 7.12324 12.3834 7.25976 12.5235L15.0328 20.499C15.0964 20.5643 15.1724 20.6162 15.2564 20.6517C15.3404 20.6871 15.4306 20.7054 15.5218 20.7054C15.6129 20.7054 15.7032 20.6871 15.7871 20.6517C15.8711 20.6162 15.9472 20.5643 16.0108 20.499L16.0108 20.5005Z" fill="#141414"/>
</svg>
