<svg width="24" height="24" viewBox="0 0 24 24" fill="none" xmlns="http://www.w3.org/2000/svg">
<path d="M12.9398 12L18.4665 6.47336C18.5757 6.34582 18.6328 6.18177 18.6263 6.01399C18.6198 5.8462 18.5503 5.68704 18.4315 5.56831C18.3128 5.44958 18.1536 5.38003 17.9859 5.37355C17.8181 5.36707 17.654 5.42414 17.5265 5.53336L11.9998 11.06L6.47315 5.52669C6.34762 5.40115 6.17735 5.33063 5.99982 5.33063C5.82228 5.33063 5.65202 5.40115 5.52649 5.52669C5.40095 5.65222 5.33042 5.82249 5.33042 6.00002C5.33042 6.17756 5.40095 6.34782 5.52649 6.47336L11.0598 12L5.52649 17.5267C5.4567 17.5865 5.40002 17.66 5.36 17.7427C5.31999 17.8254 5.2975 17.9155 5.29395 18.0073C5.29041 18.0991 5.30588 18.1907 5.33939 18.2762C5.37291 18.3618 5.42375 18.4395 5.48872 18.5045C5.55369 18.5694 5.63139 18.6203 5.71694 18.6538C5.80249 18.6873 5.89404 18.7028 5.98585 18.6992C6.07767 18.6957 6.16776 18.6732 6.25047 18.6332C6.33318 18.5932 6.40672 18.5365 6.46649 18.4667L11.9998 12.94L17.5265 18.4667C17.654 18.5759 17.8181 18.633 17.9859 18.6265C18.1536 18.62 18.3128 18.5505 18.4315 18.4317C18.5503 18.313 18.6198 18.1538 18.6263 17.9861C18.6328 17.8183 18.5757 17.6542 18.4665 17.5267L12.9398 12Z" fill="#141414"/>
</svg>
