<svg width="24" height="24" viewBox="0 0 24 24" fill="none" xmlns="http://www.w3.org/2000/svg">
<path d="M8.33832 12C8.33832 9.97503 9.98042 8.33304 12.0066 8.33304C14.0328 8.33304 15.6758 9.97503 15.6758 12C15.6758 14.025 14.0328 15.667 12.0066 15.667C9.98042 15.667 8.33832 14.025 8.33832 12ZM6.35484 12C6.35484 15.1196 8.88513 17.6484 12.0066 17.6484C15.1281 17.6484 17.6584 15.1196 17.6584 12C17.6584 8.8804 15.1281 6.35163 12.0066 6.35163C8.88513 6.35163 6.35484 8.8804 6.35484 12ZM16.5613 6.12767C16.5612 6.38874 16.6386 6.64398 16.7836 6.86111C16.9286 7.07824 17.1349 7.24751 17.3762 7.34752C17.6175 7.44752 17.883 7.47377 18.1393 7.42294C18.3955 7.37211 18.6309 7.24649 18.8157 7.06195C19.0005 6.87742 19.1263 6.64227 19.1774 6.38624C19.2285 6.1302 19.2024 5.86478 19.1026 5.62355C19.0027 5.38231 18.8335 5.17608 18.6163 5.03095C18.3992 4.88582 18.1439 4.8083 17.8826 4.8082H17.8821C17.5319 4.80836 17.1962 4.94741 16.9485 5.19481C16.7009 5.44221 16.5616 5.77773 16.5613 6.12767ZM7.55993 20.9537C6.48683 20.9049 5.90357 20.7263 5.51596 20.5753C5.00209 20.3754 4.63544 20.1373 4.24994 19.7525C3.86445 19.3678 3.62582 19.0017 3.42665 18.4882C3.27555 18.101 3.0968 17.5179 3.04802 16.4454C2.99466 15.2859 2.98401 14.9376 2.98401 12.0001C2.98401 9.06256 2.99554 8.71522 3.04802 7.55477C3.09689 6.48231 3.27696 5.90037 3.42665 5.51202C3.6267 4.99846 3.86497 4.63202 4.24994 4.24676C4.63491 3.8615 5.00121 3.62302 5.51596 3.42396C5.9034 3.27295 6.48683 3.09431 7.55993 3.04556C8.72012 2.99223 9.06863 2.98158 12.0066 2.98158C14.9446 2.98158 15.2934 2.99311 16.4546 3.04556C17.5277 3.0944 18.11 3.27436 18.4986 3.42396C19.0124 3.62302 19.3791 3.86202 19.7646 4.24676C20.1501 4.6315 20.3878 4.99846 20.5879 5.51202C20.739 5.89922 20.9177 6.48231 20.9665 7.55477C21.0199 8.71522 21.0305 9.06256 21.0305 12.0001C21.0305 14.9376 21.0199 15.285 20.9665 16.4454C20.9176 17.5179 20.738 18.1008 20.5879 18.4882C20.3878 19.0017 20.1495 19.3682 19.7646 19.7525C19.3796 20.1369 19.0124 20.3754 18.4986 20.5753C18.1111 20.7263 17.5277 20.905 16.4546 20.9537C15.2944 21.0071 14.9459 21.0177 12.0066 21.0177C9.06731 21.0177 8.71976 21.0071 7.55993 20.9537ZM7.4688 1.06662C6.29708 1.11994 5.49642 1.30562 4.79719 1.57754C4.07304 1.85835 3.46002 2.23508 2.84744 2.84633C2.23485 3.45758 1.85887 4.0712 1.57789 4.79491C1.30581 5.49416 1.12002 6.2939 1.06666 7.46492C1.01242 8.63778 1 9.01275 1 12C1 14.9872 1.01242 15.3622 1.06666 16.5351C1.12002 17.7062 1.30581 18.5058 1.57789 19.2051C1.85887 19.9284 2.23494 20.5427 2.84744 21.1537C3.45993 21.7647 4.07304 22.1409 4.79719 22.4225C5.49774 22.6944 6.29708 22.8801 7.4688 22.9334C8.64298 22.9867 9.01756 23 12.0066 23C14.9956 23 15.3708 22.9876 16.5444 22.9334C17.7162 22.8801 18.5163 22.6944 19.216 22.4225C19.9397 22.1409 20.5532 21.7649 21.1658 21.1537C21.7783 20.5424 22.1535 19.9284 22.4353 19.2051C22.7074 18.5058 22.8941 17.7061 22.9465 16.5351C22.9999 15.3613 23.0123 14.9872 23.0123 12C23.0123 9.01275 22.9999 8.63778 22.9465 7.46492C22.8932 6.29382 22.7074 5.49372 22.4353 4.79491C22.1535 4.07164 21.7774 3.45854 21.1658 2.84633C20.5541 2.23411 19.9397 1.85835 19.2169 1.57754C18.5163 1.30562 17.7161 1.11906 16.5453 1.06662C15.3717 1.01329 14.9965 1 12.0075 1C9.01844 1 8.64298 1.01241 7.4688 1.06662Z" fill="url(#paint0_radial_209_7103)"/>
<path d="M8.33832 12C8.33832 9.97503 9.98042 8.33304 12.0066 8.33304C14.0328 8.33304 15.6758 9.97503 15.6758 12C15.6758 14.025 14.0328 15.667 12.0066 15.667C9.98042 15.667 8.33832 14.025 8.33832 12ZM6.35484 12C6.35484 15.1196 8.88513 17.6484 12.0066 17.6484C15.1281 17.6484 17.6584 15.1196 17.6584 12C17.6584 8.8804 15.1281 6.35163 12.0066 6.35163C8.88513 6.35163 6.35484 8.8804 6.35484 12ZM16.5613 6.12767C16.5612 6.38874 16.6386 6.64398 16.7836 6.86111C16.9286 7.07824 17.1349 7.24751 17.3762 7.34752C17.6175 7.44752 17.883 7.47377 18.1393 7.42294C18.3955 7.37211 18.6309 7.24649 18.8157 7.06195C19.0005 6.87742 19.1263 6.64227 19.1774 6.38624C19.2285 6.1302 19.2024 5.86478 19.1026 5.62355C19.0027 5.38231 18.8335 5.17608 18.6163 5.03095C18.3992 4.88582 18.1439 4.8083 17.8826 4.8082H17.8821C17.5319 4.80836 17.1962 4.94741 16.9485 5.19481C16.7009 5.44221 16.5616 5.77773 16.5613 6.12767ZM7.55993 20.9537C6.48683 20.9049 5.90357 20.7263 5.51596 20.5753C5.00209 20.3754 4.63544 20.1373 4.24994 19.7525C3.86445 19.3678 3.62582 19.0017 3.42665 18.4882C3.27555 18.101 3.0968 17.5179 3.04802 16.4454C2.99466 15.2859 2.98401 14.9376 2.98401 12.0001C2.98401 9.06256 2.99554 8.71522 3.04802 7.55477C3.09689 6.48231 3.27696 5.90037 3.42665 5.51202C3.6267 4.99846 3.86497 4.63202 4.24994 4.24676C4.63491 3.8615 5.00121 3.62302 5.51596 3.42396C5.9034 3.27295 6.48683 3.09431 7.55993 3.04556C8.72012 2.99223 9.06863 2.98158 12.0066 2.98158C14.9446 2.98158 15.2934 2.99311 16.4546 3.04556C17.5277 3.0944 18.11 3.27436 18.4986 3.42396C19.0124 3.62302 19.3791 3.86202 19.7646 4.24676C20.1501 4.6315 20.3878 4.99846 20.5879 5.51202C20.739 5.89922 20.9177 6.48231 20.9665 7.55477C21.0199 8.71522 21.0305 9.06256 21.0305 12.0001C21.0305 14.9376 21.0199 15.285 20.9665 16.4454C20.9176 17.5179 20.738 18.1008 20.5879 18.4882C20.3878 19.0017 20.1495 19.3682 19.7646 19.7525C19.3796 20.1369 19.0124 20.3754 18.4986 20.5753C18.1111 20.7263 17.5277 20.905 16.4546 20.9537C15.2944 21.0071 14.9459 21.0177 12.0066 21.0177C9.06731 21.0177 8.71976 21.0071 7.55993 20.9537ZM7.4688 1.06662C6.29708 1.11994 5.49642 1.30562 4.79719 1.57754C4.07304 1.85835 3.46002 2.23508 2.84744 2.84633C2.23485 3.45758 1.85887 4.0712 1.57789 4.79491C1.30581 5.49416 1.12002 6.2939 1.06666 7.46492C1.01242 8.63778 1 9.01275 1 12C1 14.9872 1.01242 15.3622 1.06666 16.5351C1.12002 17.7062 1.30581 18.5058 1.57789 19.2051C1.85887 19.9284 2.23494 20.5427 2.84744 21.1537C3.45993 21.7647 4.07304 22.1409 4.79719 22.4225C5.49774 22.6944 6.29708 22.8801 7.4688 22.9334C8.64298 22.9867 9.01756 23 12.0066 23C14.9956 23 15.3708 22.9876 16.5444 22.9334C17.7162 22.8801 18.5163 22.6944 19.216 22.4225C19.9397 22.1409 20.5532 21.7649 21.1658 21.1537C21.7783 20.5424 22.1535 19.9284 22.4353 19.2051C22.7074 18.5058 22.8941 17.7061 22.9465 16.5351C22.9999 15.3613 23.0123 14.9872 23.0123 12C23.0123 9.01275 22.9999 8.63778 22.9465 7.46492C22.8932 6.29382 22.7074 5.49372 22.4353 4.79491C22.1535 4.07164 21.7774 3.45854 21.1658 2.84633C20.5541 2.23411 19.9397 1.85835 19.2169 1.57754C18.5163 1.30562 17.7161 1.11906 16.5453 1.06662C15.3717 1.01329 14.9965 1 12.0075 1C9.01844 1 8.64298 1.01241 7.4688 1.06662Z" fill="url(#paint1_radial_209_7103)"/>
<defs>
<radialGradient id="paint0_radial_209_7103" cx="0" cy="0" r="1" gradientUnits="userSpaceOnUse" gradientTransform="translate(3.92459 23.1039) scale(28.7364 28.7192)">
<stop offset="0.09" stop-color="#FA8F21"/>
<stop offset="0.78" stop-color="#D82D7E"/>
</radialGradient>
<radialGradient id="paint1_radial_209_7103" cx="0" cy="0" r="1" gradientUnits="userSpaceOnUse" gradientTransform="translate(14.35 24.0895) scale(22.6482 22.6347)">
<stop offset="0.64" stop-color="#8C3AAA" stop-opacity="0"/>
<stop offset="1" stop-color="#8C3AAA"/>
</radialGradient>
</defs>
</svg>
