<svg width="24" height="24" viewBox="0 0 24 24" fill="none" xmlns="http://www.w3.org/2000/svg">
<path d="M12 24.0001C18.6274 24.0001 24 18.6275 24 12.0001C24 5.37265 18.6274 6.10352e-05 12 6.10352e-05C5.37259 6.10352e-05 0 5.37265 0 12.0001C0 18.6275 5.37259 24.0001 12 24.0001Z" fill="#34AADF"/>
<path d="M5.1443 11.7371C5.1443 11.7371 11.0885 9.20823 13.15 8.31775C13.9403 7.96159 16.6203 6.82178 16.6203 6.82178C16.6203 6.82178 17.8573 6.32316 17.7542 7.53415C17.7198 8.03283 17.445 9.77808 17.1701 11.6658C16.7578 14.3372 16.3111 17.2579 16.3111 17.2579C16.3111 17.2579 16.2424 18.0771 15.6583 18.2196C15.0742 18.362 14.1121 17.721 13.9403 17.5784C13.8028 17.4716 11.3633 15.8688 10.47 15.0852C10.2295 14.8715 9.95462 14.4441 10.5043 13.9454C11.7413 12.77 13.2187 11.3097 14.1121 10.3836C14.5244 9.95619 14.9367 8.95889 13.2187 10.1699C10.7792 11.9152 8.37408 13.5536 8.37408 13.5536C8.37408 13.5536 7.82432 13.9098 6.79355 13.5892C5.76273 13.2687 4.56015 12.8412 4.56015 12.8412C4.56015 12.8412 3.73557 12.307 5.1443 11.7371Z" fill="white"/>
</svg>
