<svg width="24" height="24" viewBox="0 0 24 24" fill="none" xmlns="http://www.w3.org/2000/svg">
<path d="M6.43237 21.6639C6.43237 21.2623 6.43237 20.8606 6.43237 20.459C6.43522 20.4426 6.43465 20.4258 6.43067 20.4096C6.42669 20.3934 6.4194 20.3782 6.40925 20.3649C6.3991 20.3516 6.3863 20.3406 6.37165 20.3324C6.35699 20.3242 6.3408 20.319 6.32406 20.3173C5.31857 20.0345 4.39052 19.5307 3.60906 18.8435C3.03968 18.3308 2.56561 17.7231 2.20842 17.0481C1.70496 16.0731 1.36991 15.0215 1.21714 13.937C1.02786 12.5766 0.962126 11.2021 1.02072 9.83005C1.03357 9.19039 1.06661 8.55799 1.14004 7.91833C1.25715 6.70277 1.56689 5.51306 2.05789 4.3929C2.66419 3.01562 3.76409 1.9093 5.14554 1.28725C6.08659 0.860945 7.07659 0.549723 8.09368 0.360462C9.09109 0.173439 10.101 0.0586491 11.1152 0.0170054C12.0295 -0.0150014 12.9448 -0.00165829 13.8578 0.0569845C15.1644 0.111582 16.4592 0.325822 17.7127 0.694833C18.6422 0.960052 19.5263 1.36124 20.336 1.88512C21.1248 2.42122 21.7629 3.14729 22.19 3.99492C22.6922 4.98493 23.0335 6.04712 23.2015 7.14237C23.3106 7.79262 23.3823 8.44849 23.4163 9.1068C23.464 9.92273 23.4585 10.7423 23.4273 11.5546C23.3961 12.3669 23.3263 13.1556 23.2254 13.9515C23.0977 15.1462 22.7268 16.3028 22.135 17.3516C21.3646 18.6783 20.1305 19.6801 18.6655 20.1683C17.6637 20.5156 16.6293 20.7627 15.5778 20.9061C14.8087 21.0115 14.0377 21.0878 13.263 21.1187C12.6701 21.146 12.0771 21.1387 11.4842 21.1296C11.1483 21.1296 10.8142 21.0969 10.4801 21.0678C10.4473 21.0617 10.4134 21.0653 10.3827 21.0783C10.352 21.0912 10.3258 21.1129 10.3075 21.1405C9.63199 21.9437 8.93076 22.7251 8.22401 23.5029C8.09527 23.6448 7.94622 23.7673 7.78161 23.8664C7.67355 23.9365 7.55034 23.9806 7.42192 23.9949C7.29349 24.0093 7.16346 23.9935 7.04233 23.9489C6.92119 23.9044 6.81233 23.8322 6.72455 23.7383C6.63677 23.6444 6.57253 23.5314 6.537 23.4084C6.46705 23.1898 6.43235 22.9617 6.4342 22.7324C6.43237 22.3726 6.43237 22.0182 6.43237 21.6639ZM7.24925 23.1885L7.33553 23.1086L8.86834 21.424C9.45821 20.7758 10.0475 20.1271 10.6361 19.4777C10.6651 19.4381 10.7041 19.4068 10.7492 19.387C10.7944 19.3672 10.844 19.3597 10.8931 19.3651C11.0932 19.3851 11.2933 19.3923 11.4952 19.3941C12.1928 19.3941 12.8904 19.3941 13.5879 19.3451C14.2212 19.296 14.8527 19.2197 15.4805 19.1216C16.1565 19.0051 16.8256 18.8528 17.4851 18.6654C18.9537 18.2747 20.09 17.4388 20.8041 16.085C21.2257 15.2526 21.4901 14.351 21.5842 13.4245C21.6958 12.5513 21.7626 11.6731 21.7843 10.7932C21.8169 9.68785 21.7406 8.58199 21.5567 7.49128C21.4292 6.70104 21.1997 5.93029 20.8738 5.19793C20.459 4.28932 19.8715 3.53698 18.9665 3.0536C17.5787 2.31217 16.0771 1.98143 14.5296 1.81243C14.0909 1.76518 13.6522 1.73974 13.2116 1.72339C12.3095 1.67735 11.4055 1.6822 10.504 1.73792C9.85559 1.78556 9.21071 1.87173 8.57279 1.99597C7.63466 2.16526 6.72712 2.47147 5.87982 2.90459C5.38861 3.15029 4.94297 3.47655 4.56179 3.86954C3.94401 4.55307 3.49086 5.36638 3.23641 6.24829C2.93456 7.2754 2.76978 8.3372 2.74628 9.40664C2.68722 10.4761 2.70071 11.5482 2.78667 12.6159C2.84015 13.2512 2.94761 13.881 3.10791 14.4985C3.34642 15.4608 3.80912 16.3545 4.45899 17.1081C5.1606 17.8769 6.0674 18.4338 7.07486 18.7145C7.20153 18.7527 7.25843 18.7963 7.25843 18.938C7.24742 19.4614 7.25843 19.9847 7.25843 20.5081L7.24925 23.1885Z" fill="#754A91"/>
<path d="M5.96447 6.95742C5.95162 6.55945 6.17007 6.27051 6.43441 6.01065C6.78304 5.68003 7.16715 5.38815 7.57988 5.14019C7.76809 5.02529 7.99187 4.98151 8.21008 5.0169C8.42829 5.05229 8.62626 5.16447 8.76758 5.33282C9.26696 5.85246 9.71393 6.41909 10.1021 7.02466C10.2944 7.29706 10.4395 7.59921 10.5317 7.91874C10.5685 8.04343 10.5709 8.17562 10.5386 8.30154C10.5063 8.42746 10.4406 8.54251 10.3481 8.63473C10.1363 8.84052 9.91065 9.03177 9.67258 9.20716C9.55263 9.30179 9.46344 9.42926 9.41612 9.57369C9.36879 9.71812 9.36541 9.87314 9.40641 10.0195C9.55342 10.7065 9.88658 11.341 10.3702 11.8549C10.9577 12.565 11.7148 13.119 12.573 13.4667C12.7839 13.5741 13.0255 13.6068 13.2577 13.5594C13.3849 13.5251 13.4979 13.452 13.5808 13.3504C13.7093 13.1887 13.8488 13.0324 13.9645 12.8598C14.1144 12.6444 14.3435 12.4956 14.6027 12.445C14.862 12.3945 15.1309 12.4461 15.3522 12.589C15.9745 12.9464 16.562 13.3601 17.1072 13.8247C17.2357 13.9338 17.3697 14.0392 17.4982 14.15C17.6502 14.2648 17.76 14.4258 17.8108 14.6083C17.8615 14.7908 17.8503 14.9848 17.779 15.1604C17.6656 15.4558 17.5003 15.7289 17.2907 15.9673C17.0303 16.3256 16.6986 16.6274 16.316 16.8541C16.1331 16.9604 15.9276 17.0228 15.7159 17.0364C15.5042 17.05 15.2923 17.0143 15.0971 16.9322C13.6119 16.3403 12.2241 15.5324 10.9796 14.5353C9.76235 13.5433 8.69857 12.38 7.8222 11.0825C7.08478 10.0084 6.49812 8.84019 6.07828 7.60981C6.03358 7.46099 5.99681 7.30996 5.96814 7.15732C5.95998 7.09099 5.95875 7.024 5.96447 6.95742Z" fill="#754A91"/>
<path d="M12.3023 5.02359C13.545 5.04633 14.7401 5.50009 15.6794 6.30574C16.6187 7.1114 17.2426 8.21785 17.4423 9.43219C17.5227 9.8737 17.5657 10.3211 17.5708 10.7697C17.5708 10.8751 17.5433 10.9514 17.4295 10.9623C17.3156 10.9732 17.2863 10.8769 17.2863 10.7806C17.3033 9.87319 17.1152 8.97351 16.7356 8.14741C16.4159 7.46862 15.9423 6.87198 15.3517 6.40393C14.7611 5.93588 14.0694 5.60904 13.3303 5.44882C12.9396 5.35927 12.54 5.31295 12.139 5.31071C12.0999 5.31138 12.061 5.30648 12.0233 5.29618C11.9913 5.28723 11.964 5.26632 11.9472 5.23784C11.9304 5.20936 11.9255 5.17555 11.9334 5.14353C11.9336 5.12834 11.9369 5.11334 11.943 5.09942C11.9492 5.0855 11.9581 5.07293 11.9692 5.06245C11.9803 5.05196 11.9934 5.04377 12.0077 5.03834C12.0221 5.03292 12.0373 5.03038 12.0527 5.03086C12.1353 5.01996 12.2197 5.02359 12.3023 5.02359Z" fill="#754A91"/>
<path d="M15.8462 9.95169C15.84 9.44683 15.7144 8.95044 15.4795 8.50231C15.2445 8.05418 14.9067 7.66679 14.4932 7.37122C14.0107 7.03564 13.4496 6.82737 12.8631 6.76608C12.764 6.75336 12.6649 6.74791 12.5639 6.73701C12.463 6.7261 12.4024 6.68431 12.4116 6.58254C12.4207 6.48078 12.485 6.44443 12.5951 6.4517C14.2216 6.54983 15.6057 7.46027 16.0316 9.15574C16.1095 9.48266 16.1483 9.81751 16.1472 10.1534C16.1472 10.1843 16.1472 10.2152 16.1472 10.2443C16.1472 10.3351 16.0885 10.3951 15.9985 10.3933C15.9786 10.3926 15.959 10.3879 15.9409 10.3795C15.9228 10.3711 15.9067 10.3591 15.8935 10.3443C15.8803 10.3295 15.8702 10.3122 15.864 10.2935C15.8577 10.2747 15.8554 10.2549 15.8572 10.2352C15.8425 10.1498 15.8462 10.0625 15.8462 9.95169Z" fill="#754A91"/>
<path d="M12.9967 7.92732C13.8888 7.98729 14.5111 8.41979 14.6818 9.3593C14.7025 9.47966 14.7173 9.60096 14.7259 9.72275C14.7259 9.82088 14.7039 9.90447 14.5956 9.90447C14.4873 9.90447 14.4505 9.83178 14.4469 9.72275C14.4459 9.36261 14.3338 9.01137 14.1256 8.716C13.9069 8.44848 13.5928 8.27418 13.2482 8.22898C13.1711 8.21472 13.0932 8.20501 13.015 8.19991C12.8865 8.19991 12.8149 8.13631 12.8315 8.03817C12.848 7.94004 12.9251 7.92187 12.9967 7.92732Z" fill="#754A91"/>
</svg>
